<svg xmlns="http://www.w3.org/2000/svg" viewBox="0 0 392.3 800.29"><title>DT_Screen_Tap_English</title><g id="phone"><path d="M199.25,800H338c65.5,0,57-55,57-55V51c0-53-53-49.22-53-49.22H58.5S5.48-2,5.48,51V745s-8.48,55,57,55H199.25Z" transform="translate(-4.1 -0.71)" fill="#fff"/><path d="M338,801H62.5c-21.48,0-37.39-5.86-47.29-17.4-13.71-16-11-37-10.73-38.67V51c0-15.89,4.72-28.34,14-37C34.34-.76,57.59.71,58.57.78H342C342.91.71,366.15-.76,382,14c9.3,8.66,14,21.11,14,37V744.93c.25,1.68,3,22.68-10.73,38.67C375.38,795.14,359.47,801,338,801Zm-138.75-2H338c20.86,0,36.25-5.62,45.76-16.69,13.39-15.6,10.31-36.95,10.27-37.16V51c0-15.31-4.5-27.27-13.38-35.54C365.42,1.29,342.3,2.76,342.07,2.78H58.5C58.2,2.76,35,1.3,19.85,15.47,11,23.74,6.48,35.69,6.48,51V745.15c0,.21-3.12,21.56,10.27,37.16C26.25,793.38,41.65,799,62.5,799Z" transform="translate(-4.1 -0.71)"/><path d="M200.42,785.38a27.21,27.21,0,1,1,27.21-27.21A27.24,27.24,0,0,1,200.42,785.38Zm0-52.43a25.21,25.21,0,1,0,25.21,25.21A25.24,25.24,0,0,0,200.42,733Z" transform="translate(-4.1 -0.71)"/><path d="M200.42,791a32.83,32.83,0,1,1,32.83-32.83A32.87,32.87,0,0,1,200.42,791Zm0-63.67a30.83,30.83,0,1,0,30.83,30.83A30.87,30.87,0,0,0,200.42,727.33Z" transform="translate(-4.1 -0.71)"/><path d="M371,712.12H31.08V105.33H371Zm-337.94-2H369V107.33H33.08Z" transform="translate(-4.1 -0.71)"/><path d="M141.14,68.33A9.33,9.33,0,1,1,150.47,59,9.34,9.34,0,0,1,141.14,68.33Zm0-16.67A7.33,7.33,0,1,0,148.47,59,7.34,7.34,0,0,0,141.14,51.67Z" transform="translate(-4.1 -0.71)"/><path d="M201.25,39.54A7.54,7.54,0,1,1,208.79,32,7.55,7.55,0,0,1,201.25,39.54Zm0-13.08A5.54,5.54,0,1,0,206.79,32,5.55,5.55,0,0,0,201.25,26.46Z" transform="translate(-4.1 -0.71)"/><path d="M228.83,64.33H171.17a5.17,5.17,0,0,1,0-10.33h57.67a5.17,5.17,0,1,1,0,10.33ZM171.17,56a3.17,3.17,0,0,0,0,6.33h57.67a3.17,3.17,0,1,0,0-6.33Z" transform="translate(-4.1 -0.71)"/></g><g id="Question"><rect x="27.98" y="105.62" width="337.94" height="302.39" fill="#c88ad7"/><path d="M68.7,192.54a2.28,2.28,0,0,1-.28,1.45,2.51,2.51,0,0,1-3.08,0,2.28,2.28,0,0,1-.28-1.45V181.37a2.28,2.28,0,0,1,.28-1.45,2.51,2.51,0,0,1,3.08,0,2.28,2.28,0,0,1,.28,1.45Z" transform="translate(-4.1 -0.71)" fill="#fff"/><path d="M76.13,192.54a2.24,2.24,0,0,1-.28,1.43,1.71,1.71,0,0,1-1.49.55,1.76,1.76,0,0,1-1.52-.55,2.24,2.24,0,0,1-.28-1.43V181.21c0-1.2.48-1.66,1.7-1.66h5.31a2.33,2.33,0,0,1,1.4.25,1.54,1.54,0,0,1,.55,1.36,1.56,1.56,0,0,1-.55,1.38,2.33,2.33,0,0,1-1.4.25H76.13v2.67h2.81a2.34,2.34,0,0,1,1.4.25,1.5,1.5,0,0,1,.55,1.33,1.51,1.51,0,0,1-.55,1.36,2.34,2.34,0,0,1-1.4.25H76.13Z" transform="translate(-4.1 -0.71)" fill="#fff"/><path d="M98.23,191H93l-.69,1.86c-.44,1.15-.9,1.68-2.18,1.68s-1.59-.41-1.59-1.06a2.4,2.4,0,0,1,.25-.94l4.78-11.45c.46-1.08.92-1.7,2.21-1.7s1.7.62,2.14,1.7l4.6,11.5a2.37,2.37,0,0,1,.21.85c0,.71-.55,1.1-1.7,1.1s-1.66-.46-2.12-1.68Zm-4.16-2.85H97.2L95.64,184Z" transform="translate(-4.1 -0.71)" fill="#fff"/><path d="M117.65,191.37a4.56,4.56,0,0,0,1.75-.34,5.21,5.21,0,0,1,1.61-.6c.94,0,1.45,1.13,1.45,1.82a1.8,1.8,0,0,1-1,1.47,8.14,8.14,0,0,1-4,.94c-4.21,0-7.52-2.83-7.52-7.73a7.25,7.25,0,0,1,7.59-7.7,8,8,0,0,1,3.91.92,1.76,1.76,0,0,1,1,1.49c0,.71-.48,1.84-1.45,1.84a5.31,5.31,0,0,1-1.72-.6,4.75,4.75,0,0,0-1.82-.37c-2,0-3.86,1.31-3.86,4.35S115.53,191.37,117.65,191.37Z" transform="translate(-4.1 -0.71)" fill="#fff"/><path d="M132.6,191.16a2.34,2.34,0,0,1,1.4.25,1.56,1.56,0,0,1,.55,1.38,1.54,1.54,0,0,1-.55,1.36,2.34,2.34,0,0,1-1.4.25h-5.66c-1.26,0-1.7-.48-1.7-1.7V181.37a2.28,2.28,0,0,1,.28-1.45,2.51,2.51,0,0,1,3.08,0,2.28,2.28,0,0,1,.28,1.45v9.8Z" transform="translate(-4.1 -0.71)" fill="#fff"/><path d="M143.11,179.18c4.83,0,7.86,3.29,7.86,7.73s-3.13,7.79-7.93,7.79-7.86-3.29-7.86-7.73S138.3,179.18,143.11,179.18Zm0,12.42c2.58,0,4.21-1.7,4.21-4.64s-1.66-4.67-4.23-4.67-4.21,1.7-4.21,4.64S140.51,191.6,143.08,191.6Z" transform="translate(-4.1 -0.71)" fill="#fff"/><path d="M157.37,192.54a2.21,2.21,0,0,1-.28,1.43,1.73,1.73,0,0,1-1.47.55,1.75,1.75,0,0,1-1.49-.55,2.24,2.24,0,0,1-.28-1.43V180.79c0-.87.62-1.43,1.91-1.43a2.68,2.68,0,0,1,2.44,1.36l5.93,7.77v-7.13a2.21,2.21,0,0,1,.28-1.43,1.73,1.73,0,0,1,1.47-.55,1.75,1.75,0,0,1,1.49.55,2.21,2.21,0,0,1,.28,1.43v11.77c0,1-.62,1.45-1.68,1.45a2.59,2.59,0,0,1-2.25-1.31l-6.35-8.12Z" transform="translate(-4.1 -0.71)" fill="#fff"/><path d="M175,185h2.51a2.49,2.49,0,0,1,1.4.23,1.83,1.83,0,0,1,0,2.62,2.49,2.49,0,0,1-1.4.23H175v3.2h3.84a2.5,2.5,0,0,1,1.4.23,1.83,1.83,0,0,1,0,2.62,2.5,2.5,0,0,1-1.4.23h-5.61c-1.24,0-1.7-.48-1.7-1.7V181.25c0-1.24.46-1.7,1.7-1.7h5.15a2.5,2.5,0,0,1,1.4.23,1.83,1.83,0,0,1,0,2.62,2.5,2.5,0,0,1-1.4.23H175Z" transform="translate(-4.1 -0.71)" fill="#fff"/><path d="M196.21,192.61c-.41,1.26-.85,1.93-2.37,1.93s-1.84-.67-2.21-2l-3-11a3.54,3.54,0,0,1-.16-.94c0-.69.39-1.2,1.82-1.2s1.82.48,2.09,1.7l1.91,8.42,2.48-8c.3-1,.58-1.63,2-1.63s1.77.64,2.07,1.63l2.44,8,2-8.37c.28-1.24.6-1.72,2-1.72s1.82.41,1.82,1.15a3.7,3.7,0,0,1-.16.94l-3.1,11c-.39,1.43-.71,2-2.25,2a2.2,2.2,0,0,1-2.46-1.89l-2.41-7.5Z" transform="translate(-4.1 -0.71)" fill="#fff"/><path d="M219.26,191H214l-.69,1.86c-.44,1.15-.9,1.68-2.18,1.68s-1.59-.41-1.59-1.06a2.39,2.39,0,0,1,.25-.94l4.78-11.45c.46-1.08.92-1.7,2.21-1.7s1.7.62,2.14,1.7l4.6,11.5a2.36,2.36,0,0,1,.21.85c0,.71-.55,1.1-1.7,1.1s-1.66-.46-2.12-1.68Zm-4.16-2.85h3.13L216.66,184Z" transform="translate(-4.1 -0.71)" fill="#fff"/><path d="M232.69,186.22a4.42,4.42,0,0,1,2.28,3.86c0,2.92-2.44,4.55-5.36,4.55a7.11,7.11,0,0,1-3.13-.69c-.74-.37-1.33-.85-1.33-1.66s.55-1.75,1.45-1.75,1.63,1.06,3,1.06c1,0,1.7-.53,1.7-1.36s-.83-1.4-1.84-1.93c-1.75-.9-4.14-2-4.14-4.69s2.3-4.37,5.15-4.37c2,0,4.18.87,4.18,2.23a1.71,1.71,0,0,1-1.52,1.68c-.83,0-1.56-.85-2.74-.85-.9,0-1.45.48-1.45,1.1C229,184.61,231.06,185.14,232.69,186.22Z" transform="translate(-4.1 -0.71)" fill="#fff"/><path d="M255.44,181.41c.67-1.36,1.22-2,2.62-2a1.8,1.8,0,0,1,1.47.55,2.63,2.63,0,0,1,.46,1.61l1,10.9c0,.28.07.62.07.85,0,.8-.53,1.24-1.75,1.24s-1.82-.48-1.88-1.45l-.6-8.09-3.15,7c-.34.76-.69,1.33-1.75,1.33s-1.4-.58-1.75-1.33l-3.13-7-.62,8.12c-.07.92-.55,1.45-1.89,1.45-1.15,0-1.68-.39-1.68-1.26a8.79,8.79,0,0,1,.07-.9L244,181.53c.09-.94.23-1.38.58-1.7a2.17,2.17,0,0,1,1.52-.46c1.45,0,2,.74,2.62,2l3.33,6.83Z" transform="translate(-4.1 -0.71)" fill="#fff"/><path d="M272.59,191h-5.22l-.69,1.86c-.44,1.15-.9,1.68-2.18,1.68s-1.59-.41-1.59-1.06a2.41,2.41,0,0,1,.25-.94L268,181.07c.46-1.08.92-1.7,2.21-1.7s1.7.62,2.14,1.7l4.6,11.5a2.38,2.38,0,0,1,.21.85c0,.71-.55,1.1-1.7,1.1s-1.66-.46-2.12-1.68Zm-4.16-2.85h3.13L270,184Z" transform="translate(-4.1 -0.71)" fill="#fff"/><path d="M290.19,193.07a11.51,11.51,0,0,1-6.39,1.5,8.72,8.72,0,0,1-3.29-.44c-.87-.37-1-.92-1-1.79V181.64c0-1.13.25-1.7,1.68-2a15.5,15.5,0,0,1,3.2-.28,10.29,10.29,0,0,1,6,1.43c1.52,1.06,2.78,2.92,2.78,6.07C293.13,190.15,291.75,192,290.19,193.07Zm-7.06-1.66s.53,0,1.17,0c1.59,0,5.15-.28,5.15-4.44a4.47,4.47,0,0,0-1.49-3.66,5.22,5.22,0,0,0-3.43-.92,8.7,8.7,0,0,0-1.4.09Z" transform="translate(-4.1 -0.71)" fill="#fff"/><path d="M299.48,185H302a2.49,2.49,0,0,1,1.4.23,1.83,1.83,0,0,1,0,2.62,2.49,2.49,0,0,1-1.4.23h-2.51v3.2h3.84a2.5,2.5,0,0,1,1.4.23,1.83,1.83,0,0,1,0,2.62,2.5,2.5,0,0,1-1.4.23h-5.61c-1.24,0-1.7-.48-1.7-1.7V181.25c0-1.24.46-1.7,1.7-1.7h5.15a2.5,2.5,0,0,1,1.4.23,1.83,1.83,0,0,1,0,2.62,2.5,2.5,0,0,1-1.4.23h-3.38Z" transform="translate(-4.1 -0.71)" fill="#fff"/><path d="M72,211.18c4.83,0,7.86,3.29,7.86,7.73s-3.13,7.79-7.93,7.79-7.86-3.29-7.86-7.73S67.21,211.18,72,211.18Zm0,12.42c2.58,0,4.21-1.7,4.21-4.64s-1.66-4.67-4.23-4.67-4.21,1.7-4.21,4.64S69.42,223.6,72,223.6Z" transform="translate(-4.1 -0.71)" fill="#fff"/><path d="M91.82,222.66a4.08,4.08,0,0,0,.67-2.67v-6.62a2.28,2.28,0,0,1,.28-1.45,2.44,2.44,0,0,1,3,0,2.28,2.28,0,0,1,.28,1.45v6.44c0,1.56,0,3.36-1.31,4.9-1,1.15-2.6,2-5.36,2s-4.35-.85-5.31-2c-1.33-1.56-1.33-3.29-1.33-4.92v-6.42a2.28,2.28,0,0,1,.28-1.45,2.51,2.51,0,0,1,3.08,0,2.28,2.28,0,0,1,.28,1.45V220a4.06,4.06,0,0,0,.64,2.67,3,3,0,0,0,2.41.92A2.91,2.91,0,0,0,91.82,222.66Z" transform="translate(-4.1 -0.71)" fill="#fff"/><path d="M106.56,224.54a2.24,2.24,0,0,1-.28,1.43,2.43,2.43,0,0,1-3.08,0,2.24,2.24,0,0,1-.28-1.43v-9.75h-2.51a2.34,2.34,0,0,1-1.4-.25,1.54,1.54,0,0,1-.55-1.36A1.56,1.56,0,0,1,99,211.8a2.34,2.34,0,0,1,1.4-.25h8.65a2.34,2.34,0,0,1,1.4.25,1.56,1.56,0,0,1,.55,1.38,1.54,1.54,0,0,1-.55,1.36,2.34,2.34,0,0,1-1.4.25h-2.51Z" transform="translate(-4.1 -0.71)" fill="#fff"/><path d="M126.11,211.18c4.83,0,7.86,3.29,7.86,7.73s-3.13,7.79-7.93,7.79-7.86-3.29-7.86-7.73S121.3,211.18,126.11,211.18Zm0,12.42c2.58,0,4.21-1.7,4.21-4.64s-1.66-4.67-4.23-4.67-4.21,1.7-4.21,4.64S123.51,223.6,126.09,223.6Z" transform="translate(-4.1 -0.71)" fill="#fff"/><path d="M140.42,224.54a2.24,2.24,0,0,1-.28,1.43,1.71,1.71,0,0,1-1.49.55,1.76,1.76,0,0,1-1.52-.55,2.24,2.24,0,0,1-.28-1.43V213.21c0-1.2.48-1.66,1.7-1.66h5.31a2.33,2.33,0,0,1,1.4.25,1.54,1.54,0,0,1,.55,1.36,1.56,1.56,0,0,1-.55,1.38,2.33,2.33,0,0,1-1.4.25h-3.45v2.67h2.81a2.34,2.34,0,0,1,1.4.25,1.5,1.5,0,0,1,.55,1.33,1.51,1.51,0,0,1-.55,1.36,2.34,2.34,0,0,1-1.4.25h-2.81Z" transform="translate(-4.1 -0.71)" fill="#fff"/><path d="M166.2,213.41c.67-1.36,1.22-2,2.62-2a1.8,1.8,0,0,1,1.47.55,2.63,2.63,0,0,1,.46,1.61l1,10.9c0,.28.07.62.07.85,0,.8-.53,1.24-1.75,1.24s-1.82-.48-1.89-1.45l-.6-8.09-3.15,7c-.34.76-.69,1.33-1.75,1.33s-1.4-.58-1.75-1.33l-3.13-7-.62,8.12c-.07.92-.55,1.45-1.89,1.45-1.15,0-1.68-.39-1.68-1.26a8.65,8.65,0,0,1,.07-.9l1.06-10.83c.09-.94.23-1.38.57-1.7a2.17,2.17,0,0,1,1.52-.46c1.45,0,2,.74,2.62,2l3.33,6.83Z" transform="translate(-4.1 -0.71)" fill="#fff"/><path d="M178.6,217h2.51a2.49,2.49,0,0,1,1.4.23,1.83,1.83,0,0,1,0,2.62,2.49,2.49,0,0,1-1.4.23H178.6v3.2h3.84a2.5,2.5,0,0,1,1.4.23,1.83,1.83,0,0,1,0,2.62,2.5,2.5,0,0,1-1.4.23h-5.61c-1.24,0-1.7-.48-1.7-1.7V213.25c0-1.24.46-1.7,1.7-1.7H182a2.5,2.5,0,0,1,1.4.23,1.83,1.83,0,0,1,0,2.62,2.5,2.5,0,0,1-1.4.23H178.6Z" transform="translate(-4.1 -0.71)" fill="#fff"/><path d="M190.6,223.92a13.3,13.3,0,0,1-.64,2.83c-.32,1-.62,1.72-2,1.72-1.1,0-1.52-.46-1.52-1.17a23.47,23.47,0,0,1,.41-2.85,1.88,1.88,0,0,1,2.09-1.73C190,222.73,190.6,223.14,190.6,223.92Z" transform="translate(-4.1 -0.71)" fill="#fff"/><path d="M206,224.61c-.41,1.26-.85,1.93-2.37,1.93s-1.84-.67-2.21-2l-3-11a3.54,3.54,0,0,1-.16-.94c0-.69.39-1.2,1.82-1.2s1.82.48,2.09,1.7l1.91,8.42,2.48-8c.3-1,.58-1.63,2-1.63s1.77.64,2.07,1.63l2.44,8,2-8.37c.28-1.24.6-1.72,2-1.72s1.82.41,1.82,1.15a3.7,3.7,0,0,1-.16.94l-3.1,11c-.39,1.43-.71,2-2.25,2a2.2,2.2,0,0,1-2.46-1.89l-2.41-7.5Z" transform="translate(-4.1 -0.71)" fill="#fff"/><path d="M228.37,211.18c4.83,0,7.86,3.29,7.86,7.73s-3.13,7.79-7.93,7.79-7.86-3.29-7.86-7.73S223.56,211.18,228.37,211.18Zm0,12.42c2.58,0,4.21-1.7,4.21-4.64s-1.66-4.67-4.23-4.67-4.21,1.7-4.21,4.64S225.77,223.6,228.34,223.6Z" transform="translate(-4.1 -0.71)" fill="#fff"/><path d="M248.17,222.66a4.08,4.08,0,0,0,.67-2.67v-6.62a2.28,2.28,0,0,1,.28-1.45,2.44,2.44,0,0,1,3,0,2.29,2.29,0,0,1,.28,1.45v6.44c0,1.56,0,3.36-1.31,4.9-1,1.15-2.6,2-5.36,2s-4.35-.85-5.31-2c-1.33-1.56-1.33-3.29-1.33-4.92v-6.42a2.29,2.29,0,0,1,.28-1.45,2.51,2.51,0,0,1,3.08,0,2.29,2.29,0,0,1,.28,1.45V220a4.06,4.06,0,0,0,.64,2.67,3,3,0,0,0,2.42.92A2.91,2.91,0,0,0,248.17,222.66Z" transform="translate(-4.1 -0.71)" fill="#fff"/><path d="M263.65,223.16a2.34,2.34,0,0,1,1.4.25,1.56,1.56,0,0,1,.55,1.38,1.54,1.54,0,0,1-.55,1.36,2.34,2.34,0,0,1-1.4.25H258c-1.26,0-1.7-.48-1.7-1.7V213.37a2.29,2.29,0,0,1,.28-1.45,2.51,2.51,0,0,1,3.08,0,2.29,2.29,0,0,1,.28,1.45v9.8Z" transform="translate(-4.1 -0.71)" fill="#fff"/><path d="M278.69,225.07a11.51,11.51,0,0,1-6.39,1.5,8.72,8.72,0,0,1-3.29-.44c-.87-.37-1-.92-1-1.79V213.64c0-1.13.25-1.7,1.68-2a15.5,15.5,0,0,1,3.2-.28,10.29,10.29,0,0,1,6,1.43c1.52,1.06,2.78,2.92,2.78,6.07C281.63,222.15,280.25,224,278.69,225.07Zm-7.06-1.66s.53,0,1.17,0c1.59,0,5.15-.28,5.15-4.44a4.47,4.47,0,0,0-1.5-3.66,5.22,5.22,0,0,0-3.43-.92,8.7,8.7,0,0,0-1.4.09Z" transform="translate(-4.1 -0.71)" fill="#fff"/><path d="M293.89,224.54a2.28,2.28,0,0,1-.28,1.45,2.51,2.51,0,0,1-3.08,0,2.28,2.28,0,0,1-.28-1.45V213.37a2.29,2.29,0,0,1,.28-1.45,2.51,2.51,0,0,1,3.08,0,2.29,2.29,0,0,1,.28,1.45Z" transform="translate(-4.1 -0.71)" fill="#fff"/><path d="M78.38,256.54a2.28,2.28,0,0,1-.28,1.45A2.51,2.51,0,0,1,75,258a2.28,2.28,0,0,1-.28-1.45v-4.37h-6v4.37a2.28,2.28,0,0,1-.28,1.45,2.51,2.51,0,0,1-3.08,0,2.28,2.28,0,0,1-.28-1.45V245.37a2.28,2.28,0,0,1,.28-1.45,2.51,2.51,0,0,1,3.08,0,2.28,2.28,0,0,1,.28,1.45V249h6v-3.59a2.28,2.28,0,0,1,.28-1.45,2.51,2.51,0,0,1,3.08,0,2.28,2.28,0,0,1,.28,1.45Z" transform="translate(-4.1 -0.71)" fill="#fff"/><path d="M90.48,255H85.26l-.69,1.86c-.44,1.15-.9,1.68-2.18,1.68s-1.59-.41-1.59-1.06a2.4,2.4,0,0,1,.25-.94l4.78-11.45c.46-1.08.92-1.7,2.21-1.7s1.7.62,2.14,1.7l4.6,11.5a2.37,2.37,0,0,1,.21.85c0,.71-.55,1.1-1.7,1.1s-1.66-.46-2.12-1.68Zm-4.16-2.85h3.13L87.88,248Z" transform="translate(-4.1 -0.71)" fill="#fff"/><path d="M105.46,245.16c.39-1.06.74-1.77,2.3-1.77,1.17,0,1.72.39,1.72,1.13a3,3,0,0,1-.28,1.08l-4.74,11.13c-.51,1.22-.85,1.82-2.28,1.82s-1.89-.69-2.35-1.79l-4.53-11.11a2.72,2.72,0,0,1-.3-1.08c0-.8.62-1.17,1.77-1.17,1.45,0,1.86.58,2.32,1.79l3.17,8.55Z" transform="translate(-4.1 -0.71)" fill="#fff"/><path d="M115.44,249h2.51a2.49,2.49,0,0,1,1.4.23,1.83,1.83,0,0,1,0,2.62,2.49,2.49,0,0,1-1.4.23h-2.51v3.2h3.84a2.5,2.5,0,0,1,1.4.23,1.83,1.83,0,0,1,0,2.62,2.5,2.5,0,0,1-1.4.23h-5.61c-1.24,0-1.7-.48-1.7-1.7V245.25c0-1.24.46-1.7,1.7-1.7h5.15a2.5,2.5,0,0,1,1.4.23,1.83,1.83,0,0,1,0,2.62,2.5,2.5,0,0,1-1.4.23h-3.38Z" transform="translate(-4.1 -0.71)" fill="#fff"/><path d="M136.48,250.22a4.42,4.42,0,0,1,2.28,3.86c0,2.92-2.44,4.55-5.36,4.55a7.11,7.11,0,0,1-3.13-.69c-.74-.37-1.33-.85-1.33-1.66s.55-1.75,1.45-1.75,1.63,1.06,3,1.06c1,0,1.7-.53,1.7-1.36s-.83-1.4-1.84-1.93c-1.75-.9-4.14-2-4.14-4.69s2.3-4.37,5.15-4.37c2,0,4.19.87,4.19,2.23a1.71,1.71,0,0,1-1.52,1.68c-.83,0-1.56-.85-2.74-.85-.9,0-1.45.48-1.45,1.1C132.78,248.61,134.85,249.14,136.48,250.22Z" transform="translate(-4.1 -0.71)" fill="#fff"/><path d="M145,249h2.51a2.49,2.49,0,0,1,1.4.23,1.83,1.83,0,0,1,0,2.62,2.49,2.49,0,0,1-1.4.23H145v3.2h3.84a2.5,2.5,0,0,1,1.4.23,1.83,1.83,0,0,1,0,2.62,2.5,2.5,0,0,1-1.4.23h-5.61c-1.24,0-1.7-.48-1.7-1.7V245.25c0-1.24.46-1.7,1.7-1.7h5.15a2.5,2.5,0,0,1,1.4.23,1.83,1.83,0,0,1,0,2.62,2.5,2.5,0,0,1-1.4.23H145Z" transform="translate(-4.1 -0.71)" fill="#fff"/><path d="M162,244.91a2.61,2.61,0,0,1,2.6-1.52c1.31,0,1.68.44,1.68,1a2.23,2.23,0,0,1-.64,1.31l-3.77,5,4,5.43a2.57,2.57,0,0,1,.67,1.4c0,.6-.51,1-1.79,1A2.76,2.76,0,0,1,162,257L159.46,253l-2.55,4a2.65,2.65,0,0,1-2.6,1.52c-1.31,0-1.68-.44-1.68-1a2.24,2.24,0,0,1,.62-1.29l4-5.47-3.63-5a2.6,2.6,0,0,1-.67-1.4c0-.6.53-1,1.82-1A2.75,2.75,0,0,1,157.5,245l2.23,3.45Z" transform="translate(-4.1 -0.71)" fill="#fff"/><path d="M181.7,256.61c-.41,1.26-.85,1.93-2.37,1.93s-1.84-.67-2.21-2l-3-11a3.54,3.54,0,0,1-.16-.94c0-.69.39-1.2,1.82-1.2s1.82.48,2.09,1.7l1.91,8.42,2.48-8c.3-1,.58-1.63,2-1.63s1.77.64,2.07,1.63l2.44,8,2-8.37c.28-1.24.6-1.72,2-1.72s1.82.41,1.82,1.15a3.7,3.7,0,0,1-.16.94l-3.1,11c-.39,1.43-.71,2-2.25,2a2.2,2.2,0,0,1-2.46-1.89l-2.41-7.5Z" transform="translate(-4.1 -0.71)" fill="#fff"/><path d="M201,256.54a2.28,2.28,0,0,1-.28,1.45,2.51,2.51,0,0,1-3.08,0,2.28,2.28,0,0,1-.28-1.45V245.37a2.28,2.28,0,0,1,.28-1.45,2.51,2.51,0,0,1,3.08,0,2.28,2.28,0,0,1,.28,1.45Z" transform="translate(-4.1 -0.71)" fill="#fff"/><path d="M211.51,256.54a2.25,2.25,0,0,1-.28,1.43,2.43,2.43,0,0,1-3.08,0,2.25,2.25,0,0,1-.28-1.43v-9.75h-2.51a2.33,2.33,0,0,1-1.4-.25,1.54,1.54,0,0,1-.55-1.36,1.56,1.56,0,0,1,.55-1.38,2.33,2.33,0,0,1,1.4-.25H214a2.33,2.33,0,0,1,1.4.25,1.56,1.56,0,0,1,.55,1.38,1.54,1.54,0,0,1-.55,1.36,2.33,2.33,0,0,1-1.4.25h-2.51Z" transform="translate(-4.1 -0.71)" fill="#fff"/><path d="M231.68,256.54a2.28,2.28,0,0,1-.28,1.45,2.51,2.51,0,0,1-3.08,0,2.28,2.28,0,0,1-.28-1.45v-4.37h-6v4.37a2.28,2.28,0,0,1-.28,1.45,2.51,2.51,0,0,1-3.08,0,2.28,2.28,0,0,1-.28-1.45V245.37a2.28,2.28,0,0,1,.28-1.45,2.51,2.51,0,0,1,3.08,0,2.28,2.28,0,0,1,.28,1.45V249h6v-3.59a2.28,2.28,0,0,1,.28-1.45,2.51,2.51,0,0,1,3.08,0,2.28,2.28,0,0,1,.28,1.45Z" transform="translate(-4.1 -0.71)" fill="#fff"/><path d="M247.92,256.54a2.24,2.24,0,0,1-.28,1.43,2.43,2.43,0,0,1-3.08,0,2.24,2.24,0,0,1-.28-1.43v-9.75h-2.51a2.34,2.34,0,0,1-1.4-.25,1.54,1.54,0,0,1-.55-1.36,1.56,1.56,0,0,1,.55-1.38,2.34,2.34,0,0,1,1.4-.25h8.65a2.34,2.34,0,0,1,1.4.25,1.56,1.56,0,0,1,.55,1.38,1.54,1.54,0,0,1-.55,1.36,2.34,2.34,0,0,1-1.4.25h-2.51Z" transform="translate(-4.1 -0.71)" fill="#fff"/><path d="M268.08,256.54a2.28,2.28,0,0,1-.28,1.45,2.51,2.51,0,0,1-3.08,0,2.28,2.28,0,0,1-.28-1.45v-4.37h-6v4.37a2.28,2.28,0,0,1-.28,1.45,2.51,2.51,0,0,1-3.08,0,2.28,2.28,0,0,1-.28-1.45V245.37a2.29,2.29,0,0,1,.28-1.45,2.51,2.51,0,0,1,3.08,0,2.29,2.29,0,0,1,.28,1.45V249h6v-3.59a2.29,2.29,0,0,1,.28-1.45,2.51,2.51,0,0,1,3.08,0,2.29,2.29,0,0,1,.28,1.45Z" transform="translate(-4.1 -0.71)" fill="#fff"/><path d="M275.42,249h2.51a2.49,2.49,0,0,1,1.4.23,1.83,1.83,0,0,1,0,2.62,2.49,2.49,0,0,1-1.4.23h-2.51v3.2h3.84a2.5,2.5,0,0,1,1.4.23,1.83,1.83,0,0,1,0,2.62,2.5,2.5,0,0,1-1.4.23h-5.61c-1.24,0-1.7-.48-1.7-1.7V245.25c0-1.24.46-1.7,1.7-1.7h5.15a2.5,2.5,0,0,1,1.4.23,1.83,1.83,0,0,1,0,2.62,2.5,2.5,0,0,1-1.4.23h-3.38Z" transform="translate(-4.1 -0.71)" fill="#fff"/><path d="M296.12,245.41c.67-1.36,1.22-2,2.62-2a1.8,1.8,0,0,1,1.47.55,2.63,2.63,0,0,1,.46,1.61l1,10.9c0,.28.07.62.07.85,0,.8-.53,1.24-1.75,1.24s-1.82-.48-1.88-1.45l-.6-8.09-3.15,7c-.34.76-.69,1.33-1.75,1.33s-1.4-.58-1.75-1.33l-3.13-7-.62,8.12c-.07.92-.55,1.45-1.89,1.45-1.15,0-1.68-.39-1.68-1.26a8.79,8.79,0,0,1,.07-.9l1.06-10.83c.09-.94.23-1.38.58-1.7a2.17,2.17,0,0,1,1.52-.46c1.45,0,2,.74,2.62,2l3.33,6.83Z" transform="translate(-4.1 -0.71)" fill="#fff"/><path d="M308.31,246.29c-1.17,0-2,.87-2.76.87a1.69,1.69,0,0,1-1.52-1.61c0-1.26,1.84-2.32,4.35-2.32,2.74,0,4.78,1.24,4.78,4,0,3.24-2.71,2.6-3.06,5.29-.09.71,0,1.33-1.75,1.33-1.15,0-1.84-.25-1.84-1.56,0-2.85,3.29-3.27,3.29-4.85C309.81,246.82,309.23,246.29,308.31,246.29Zm.14,12.3a1.89,1.89,0,1,1,0-3.77,1.89,1.89,0,1,1,0,3.77Z" transform="translate(-4.1 -0.71)" fill="#fff"/><path d="M91.59,436.69h2.14l6.63,9.89h0v-9.89H102v12H100l-6.7-9.89h0v9.89H91.59Z" transform="translate(-4.1 -0.71)" fill="#58595b"/><path d="M104.34,444.7a4.1,4.1,0,0,1,.33-1.65,4.29,4.29,0,0,1,.91-1.34,4.33,4.33,0,0,1,6.09,0,4.3,4.3,0,0,1,.91,1.34,4.1,4.1,0,0,1,.33,1.65,4.19,4.19,0,0,1-1.24,3,4.31,4.31,0,0,1-1.36.9,4.43,4.43,0,0,1-3.37,0,4.3,4.3,0,0,1-1.36-.9,4.19,4.19,0,0,1-1.24-3Zm1.63,0a3.3,3.3,0,0,0,.19,1.13,2.54,2.54,0,0,0,.53.88,2.43,2.43,0,0,0,.83.58,3,3,0,0,0,2.21,0,2.43,2.43,0,0,0,.83-.58,2.55,2.55,0,0,0,.53-.88,3.51,3.51,0,0,0,0-2.26,2.56,2.56,0,0,0-.53-.88,2.44,2.44,0,0,0-.83-.58,3,3,0,0,0-2.21,0,2.44,2.44,0,0,0-.83.58,2.56,2.56,0,0,0-.53.88A3.3,3.3,0,0,0,106,444.7Z" transform="translate(-4.1 -0.71)" fill="#58595b"/><path d="M118.58,440.67h1.72l1.81,6h0l1.93-6h1.63l2,6h0l1.72-6h1.63l-2.6,8.06H127l-2.13-6h0l-1.95,6h-1.63Z" transform="translate(-4.1 -0.71)" fill="#58595b"/><path d="M132.49,441.65a4.27,4.27,0,0,1,1.5-.89,5.12,5.12,0,0,1,1.7-.3,4.66,4.66,0,0,1,1.52.22,3,3,0,0,1,1,.59,2.36,2.36,0,0,1,.6.86,2.69,2.69,0,0,1,.2,1v4.11q0,.42,0,.78c0,.24,0,.46.05.68h-1.36q-.05-.61-.05-1.22h0a2.92,2.92,0,0,1-1.21,1.1,3.81,3.81,0,0,1-1.61.32,3.69,3.69,0,0,1-1.07-.15,2.61,2.61,0,0,1-.89-.46,2.2,2.2,0,0,1-.6-.76,2.35,2.35,0,0,1-.22-1,2.32,2.32,0,0,1,.35-1.31,2.65,2.65,0,0,1,1-.86,4.61,4.61,0,0,1,1.41-.48,9.85,9.85,0,0,1,1.73-.14h1.12v-.34a1.69,1.69,0,0,0-.48-1.17,1.71,1.71,0,0,0-.6-.39,2.27,2.27,0,0,0-.85-.14,3.14,3.14,0,0,0-.77.08,3.43,3.43,0,0,0-.6.21,2.64,2.64,0,0,0-.49.3l-.43.32Zm4.32,3.2a10.6,10.6,0,0,0-1.11.06,4.37,4.37,0,0,0-1,.23,2,2,0,0,0-.77.48,1.08,1.08,0,0,0-.3.78,1.11,1.11,0,0,0,.47,1,2.29,2.29,0,0,0,1.27.31,2.46,2.46,0,0,0,1.07-.21,2,2,0,0,0,.71-.55,2.15,2.15,0,0,0,.39-.76,3,3,0,0,0,.12-.83v-.51Z" transform="translate(-4.1 -0.71)" fill="#58595b"/><path d="M140.33,440.67h1.77l2.39,6.29h0l2.29-6.29h1.63l-3.83,9.79a10.31,10.31,0,0,1-.42,1,2.87,2.87,0,0,1-.52.74,2.12,2.12,0,0,1-.74.48,2.9,2.9,0,0,1-1.06.17,5.64,5.64,0,0,1-.69,0,2.51,2.51,0,0,1-.67-.18l.19-1.39a2.38,2.38,0,0,0,.91.19,1.68,1.68,0,0,0,.6-.09,1.18,1.18,0,0,0,.42-.27,1.58,1.58,0,0,0,.3-.42c.08-.16.16-.34.24-.54l.5-1.28Z" transform="translate(-4.1 -0.71)" fill="#58595b"/><path d="M149.86,447.71a1.13,1.13,0,1,1,.33.79A1.08,1.08,0,0,1,149.86,447.71Zm1.9-2.45h-1.63v-8.57h1.63Z" transform="translate(-4.1 -0.71)" fill="#58595b"/><path d="M71.23,436.69h2.19l5.24,12h-3l-1-2.55H70l-1,2.55H66Zm1,3.5-1.46,3.74h2.94Z" transform="translate(-4.1 -0.71)" fill="#c88ad7"/><path d="M79.59,447.26a1.6,1.6,0,0,1,.12-.61,1.51,1.51,0,0,1,.83-.83,1.63,1.63,0,0,1,1.22,0,1.51,1.51,0,0,1,.83.83,1.63,1.63,0,0,1,0,1.22,1.51,1.51,0,0,1-.83.83,1.64,1.64,0,0,1-1.22,0,1.51,1.51,0,0,1-.83-.83A1.6,1.6,0,0,1,79.59,447.26Z" transform="translate(-4.1 -0.71)" fill="#c88ad7"/><g id="iPhone-7"><g id="Categories"><g id="Sex"><g id="sex-small-symbol"><path id="Sex-small-symbol-peach" d="M82.73,137.62c-.82-2.76-5.56-4.54-8.46-2-1.15,1.62-3.32,4.44-1,8.57a.94.94,0,0,1-.39,1.3c-.48.24-1-.2-1.24-.64-2.23-4.23-.93-7.07.64-9.68a1.85,1.85,0,0,0-.69-.67c-2.64-1.77-8-.92-8.94,4.9-1.12,6.75,7.68,10.39,11.7,10.78,2.51.24.18-2,4-4.26,4.73-2.84,5.13-5.65,4.35-8.26" transform="translate(-4.1 -0.71)" fill="#fff"/></g></g></g></g><path d="M335.93,469.15H63.35v-.26a24.89,24.89,0,0,1,0-49.48v-.16l272.59,0a24.89,24.89,0,0,1,0,49.69Zm-271.59-1H334.93V468l.48,0a23.89,23.89,0,0,0,0-47.74l-.48,0H64.35v.06l-.45,0a23.89,23.89,0,0,0,0,47.58l.45,0Z" transform="translate(-4.1 -0.71)" fill="#c88ad7"/><path d="M91.59,496.61h2.14l6.63,9.89h0v-9.89H102v12H100l-6.7-9.89h0v9.89H91.59Z" transform="translate(-4.1 -0.71)" fill="#58595b"/><path d="M104.34,504.62a4.1,4.1,0,0,1,.33-1.65,4.29,4.29,0,0,1,.91-1.34,4.33,4.33,0,0,1,6.09,0,4.3,4.3,0,0,1,.91,1.34,4.1,4.1,0,0,1,.33,1.65,4.19,4.19,0,0,1-1.24,3,4.31,4.31,0,0,1-1.36.9,4.43,4.43,0,0,1-3.37,0,4.3,4.3,0,0,1-1.36-.9,4.19,4.19,0,0,1-1.24-3Zm1.63,0a3.3,3.3,0,0,0,.19,1.13,2.54,2.54,0,0,0,.53.88,2.43,2.43,0,0,0,.83.58,3,3,0,0,0,2.21,0,2.43,2.43,0,0,0,.83-.58,2.55,2.55,0,0,0,.53-.88,3.51,3.51,0,0,0,0-2.26,2.56,2.56,0,0,0-.53-.88,2.44,2.44,0,0,0-.83-.58,3,3,0,0,0-2.21,0,2.44,2.44,0,0,0-.83.58,2.56,2.56,0,0,0-.53.88A3.3,3.3,0,0,0,106,504.62Z" transform="translate(-4.1 -0.71)" fill="#58595b"/><path d="M126.9,505.18h-8.5v-1.33h8.5Z" transform="translate(-4.1 -0.71)" fill="#58595b"/><path d="M133.17,496.61h1.63v12h-1.63Z" transform="translate(-4.1 -0.71)" fill="#58595b"/><path d="M138.7,500.79H137.3l1.17-4.18h1.63Z" transform="translate(-4.1 -0.71)" fill="#58595b"/><path d="M150.31,508.65h-1.53v-1.16h0a2.91,2.91,0,0,1-1.22,1,3.75,3.75,0,0,1-1.59.36,4.28,4.28,0,0,1-1.69-.32,3.74,3.74,0,0,1-1.29-.9,4.07,4.07,0,0,1-.82-1.34,4.67,4.67,0,0,1-.29-1.67,4.74,4.74,0,0,1,.29-1.67,4,4,0,0,1,.82-1.34,3.81,3.81,0,0,1,1.29-.89,4.28,4.28,0,0,1,1.69-.32,3.75,3.75,0,0,1,1.63.37,2.8,2.8,0,0,1,1.17,1h0v-5.95h1.53Zm-4.18-1.22a2.76,2.76,0,0,0,1.1-.21,2.43,2.43,0,0,0,.83-.58,2.55,2.55,0,0,0,.53-.88,3.51,3.51,0,0,0,0-2.26,2.56,2.56,0,0,0-.53-.88,2.44,2.44,0,0,0-.83-.58,3,3,0,0,0-2.21,0,2.44,2.44,0,0,0-.83.58,2.56,2.56,0,0,0-.53.88,3.51,3.51,0,0,0,0,2.26,2.54,2.54,0,0,0,.53.88,2.43,2.43,0,0,0,.83.58A2.77,2.77,0,0,0,146.13,507.42Z" transform="translate(-4.1 -0.71)" fill="#58595b"/><path d="M157.34,495.79h1.53v5.95h0a2.79,2.79,0,0,1,1.17-1,3.74,3.74,0,0,1,1.63-.37,4.28,4.28,0,0,1,1.69.32,3.81,3.81,0,0,1,1.29.89,4,4,0,0,1,.82,1.34,4.75,4.75,0,0,1,.29,1.67,4.68,4.68,0,0,1-.29,1.67,4.07,4.07,0,0,1-.82,1.34,3.74,3.74,0,0,1-1.29.9,4.28,4.28,0,0,1-1.69.32,3.75,3.75,0,0,1-1.59-.36,2.9,2.9,0,0,1-1.22-1h0v1.16h-1.53Zm4.18,11.63a2.76,2.76,0,0,0,1.1-.21,2.43,2.43,0,0,0,.83-.58,2.55,2.55,0,0,0,.53-.88,3.51,3.51,0,0,0,0-2.26,2.56,2.56,0,0,0-.53-.88,2.44,2.44,0,0,0-.83-.58,3,3,0,0,0-2.21,0,2.44,2.44,0,0,0-.83.58,2.56,2.56,0,0,0-.53.88,3.51,3.51,0,0,0,0,2.26,2.54,2.54,0,0,0,.53.88,2.43,2.43,0,0,0,.83.58A2.77,2.77,0,0,0,161.53,507.42Z" transform="translate(-4.1 -0.71)" fill="#58595b"/><path d="M168.89,505.18a2,2,0,0,0,.23,1,2.39,2.39,0,0,0,.6.74,2.8,2.8,0,0,0,.87.48,3.11,3.11,0,0,0,1,.17,2.28,2.28,0,0,0,1.24-.33,4,4,0,0,0,1-.88l1.16.88a4.25,4.25,0,0,1-3.57,1.65,4.45,4.45,0,0,1-1.73-.32,3.74,3.74,0,0,1-1.31-.89,4,4,0,0,1-.82-1.34,4.74,4.74,0,0,1-.29-1.67,4.39,4.39,0,0,1,.31-1.67,4.16,4.16,0,0,1,.87-1.34,4,4,0,0,1,1.32-.89,4.25,4.25,0,0,1,1.67-.32,4,4,0,0,1,1.81.37,3.57,3.57,0,0,1,1.22,1,3.87,3.87,0,0,1,.69,1.36,5.67,5.67,0,0,1,.21,1.54v.54Zm4.83-1.22a3.24,3.24,0,0,0-.16-.93,2.06,2.06,0,0,0-.43-.74,2,2,0,0,0-.72-.49,2.64,2.64,0,0,0-1-.18,2.46,2.46,0,0,0-1,.21,2.49,2.49,0,0,0-.79.55,2.55,2.55,0,0,0-.5.76,2.08,2.08,0,0,0-.18.82Z" transform="translate(-4.1 -0.71)" fill="#58595b"/><path d="M180.94,500.59h1.77l2.41,6.17,2.31-6.17h1.63l-3.16,8.06h-1.68Z" transform="translate(-4.1 -0.71)" fill="#58595b"/><path d="M191.57,505.18a2,2,0,0,0,.23,1,2.39,2.39,0,0,0,.6.74,2.8,2.8,0,0,0,.87.48,3.11,3.11,0,0,0,1,.17,2.28,2.28,0,0,0,1.24-.33,4,4,0,0,0,1-.88l1.16.88a4.25,4.25,0,0,1-3.57,1.65,4.45,4.45,0,0,1-1.73-.32,3.74,3.74,0,0,1-1.31-.89,4,4,0,0,1-.82-1.34,4.74,4.74,0,0,1-.29-1.67,4.39,4.39,0,0,1,.31-1.67,4.16,4.16,0,0,1,.87-1.34,4,4,0,0,1,1.32-.89,4.25,4.25,0,0,1,1.67-.32,4,4,0,0,1,1.81.37,3.57,3.57,0,0,1,1.22,1,3.87,3.87,0,0,1,.69,1.36,5.67,5.67,0,0,1,.21,1.54v.54Zm4.83-1.22a3.24,3.24,0,0,0-.16-.93,2.06,2.06,0,0,0-.43-.74,2,2,0,0,0-.72-.49,2.64,2.64,0,0,0-1-.18,2.46,2.46,0,0,0-1,.21,2.49,2.49,0,0,0-.79.55,2.55,2.55,0,0,0-.5.76,2.08,2.08,0,0,0-.18.82Z" transform="translate(-4.1 -0.71)" fill="#58595b"/><path d="M199.86,500.59h1.53v1.24h0a2.18,2.18,0,0,1,.41-.59,2.72,2.72,0,0,1,.57-.45,3,3,0,0,1,.69-.3,2.64,2.64,0,0,1,.75-.11,2.16,2.16,0,0,1,.68.1l-.07,1.65-.37-.08a2.11,2.11,0,0,0-.37,0,2.25,2.25,0,0,0-1.72.63,2.76,2.76,0,0,0-.59,2v4h-1.53Z" transform="translate(-4.1 -0.71)" fill="#58595b"/><path d="M205.2,500.59H207l2.39,6.29h0l2.29-6.29h1.63l-3.83,9.79a10.31,10.31,0,0,1-.42,1,2.87,2.87,0,0,1-.52.74,2.12,2.12,0,0,1-.74.48,2.9,2.9,0,0,1-1.06.17,5.65,5.65,0,0,1-.69,0,2.5,2.5,0,0,1-.67-.18l.19-1.39a2.38,2.38,0,0,0,.91.19,1.68,1.68,0,0,0,.6-.09,1.18,1.18,0,0,0,.42-.27,1.57,1.57,0,0,0,.3-.42c.08-.16.16-.34.24-.54l.5-1.28Z" transform="translate(-4.1 -0.71)" fill="#58595b"/><path d="M225.14,502.73a3.22,3.22,0,0,0-.89-.67,2.51,2.51,0,0,0-1.11-.23,2.47,2.47,0,0,0-1.1.23,2.25,2.25,0,0,0-.78.63,2.82,2.82,0,0,0-.48.92,3.58,3.58,0,0,0-.16,1.08,3,3,0,0,0,.19,1.06,2.66,2.66,0,0,0,.53.88,2.42,2.42,0,0,0,.82.59,2.6,2.6,0,0,0,1.07.21,2.45,2.45,0,0,0,1.1-.23,2.83,2.83,0,0,0,.85-.67l1.09,1.09a3.42,3.42,0,0,1-1.39,1,4.85,4.85,0,0,1-1.67.29,4.62,4.62,0,0,1-1.71-.31,3.94,3.94,0,0,1-1.33-.86,3.79,3.79,0,0,1-.87-1.33,4.62,4.62,0,0,1-.31-1.71,4.69,4.69,0,0,1,.31-1.72,3.84,3.84,0,0,1,2.18-2.22,4.56,4.56,0,0,1,1.73-.31,4.63,4.63,0,0,1,1.69.31,3.74,3.74,0,0,1,1.4,1Z" transform="translate(-4.1 -0.71)" fill="#58595b"/><path d="M234.71,508.65h-1.53V507.4h0a2.26,2.26,0,0,1-1,1,3.33,3.33,0,0,1-1.65.4,3.47,3.47,0,0,1-1.12-.18,2.51,2.51,0,0,1-.93-.55,2.65,2.65,0,0,1-.64-1,3.66,3.66,0,0,1-.24-1.39v-5.18h1.53v4.76a2.69,2.69,0,0,0,.15,1,1.76,1.76,0,0,0,.41.65,1.52,1.52,0,0,0,.59.36,2.15,2.15,0,0,0,.69.11,2.51,2.51,0,0,0,.88-.15,1.84,1.84,0,0,0,.71-.48,2.3,2.3,0,0,0,.48-.84,3.86,3.86,0,0,0,.17-1.21v-4.15h1.53Z" transform="translate(-4.1 -0.71)" fill="#58595b"/><path d="M237,500.59h1.53v1.24h0a2.18,2.18,0,0,1,.41-.59,2.72,2.72,0,0,1,.57-.45,3,3,0,0,1,.69-.3,2.64,2.64,0,0,1,.75-.11,2.16,2.16,0,0,1,.68.1l-.07,1.65-.37-.08a2.11,2.11,0,0,0-.37,0,2.25,2.25,0,0,0-1.72.63,2.76,2.76,0,0,0-.59,2v4H237Z" transform="translate(-4.1 -0.71)" fill="#58595b"/><path d="M243.08,497.7a1.13,1.13,0,1,1,.33.79A1.08,1.08,0,0,1,243.08,497.7Zm.36,2.89H245v8.06h-1.53Z" transform="translate(-4.1 -0.71)" fill="#58595b"/><path d="M247,504.62a4.11,4.11,0,0,1,.33-1.65,4.3,4.3,0,0,1,.91-1.34,4.33,4.33,0,0,1,6.09,0,4.3,4.3,0,0,1,.91,1.34,4.11,4.11,0,0,1,.33,1.65,4.18,4.18,0,0,1-1.24,3,4.31,4.31,0,0,1-1.36.9,4.43,4.43,0,0,1-3.37,0,4.31,4.31,0,0,1-1.36-.9,4.19,4.19,0,0,1-1.24-3Zm1.63,0a3.3,3.3,0,0,0,.19,1.13,2.55,2.55,0,0,0,.53.88,2.43,2.43,0,0,0,.83.58,3,3,0,0,0,2.21,0,2.44,2.44,0,0,0,.83-.58,2.55,2.55,0,0,0,.53-.88,3.52,3.52,0,0,0,0-2.26,2.56,2.56,0,0,0-.53-.88,2.45,2.45,0,0,0-.83-.58,3,3,0,0,0-2.21,0,2.44,2.44,0,0,0-.83.58,2.56,2.56,0,0,0-.53.88A3.3,3.3,0,0,0,248.64,504.62Z" transform="translate(-4.1 -0.71)" fill="#58595b"/><path d="M264.63,508.65H263.1V507.4h0a2.26,2.26,0,0,1-1,1,3.33,3.33,0,0,1-1.65.4,3.47,3.47,0,0,1-1.12-.18,2.51,2.51,0,0,1-.93-.55,2.65,2.65,0,0,1-.64-1,3.66,3.66,0,0,1-.24-1.39v-5.18H259v4.76a2.69,2.69,0,0,0,.15,1,1.76,1.76,0,0,0,.41.65,1.52,1.52,0,0,0,.59.36,2.15,2.15,0,0,0,.69.11,2.51,2.51,0,0,0,.88-.15,1.84,1.84,0,0,0,.71-.48,2.3,2.3,0,0,0,.48-.84,3.86,3.86,0,0,0,.17-1.21v-4.15h1.53Z" transform="translate(-4.1 -0.71)" fill="#58595b"/><path d="M271.23,502.61a2.35,2.35,0,0,0-.67-.57,1.93,1.93,0,0,0-1-.23,1.86,1.86,0,0,0-.94.23.73.73,0,0,0-.4.67.76.76,0,0,0,.23.58,1.81,1.81,0,0,0,.54.36,3.16,3.16,0,0,0,.67.2l.61.12a7.06,7.06,0,0,1,.93.29,2.58,2.58,0,0,1,.75.44,1.92,1.92,0,0,1,.49.66,2.28,2.28,0,0,1,.18,1,2.24,2.24,0,0,1-.29,1.17,2.45,2.45,0,0,1-.75.79,3.15,3.15,0,0,1-1,.44,5.26,5.26,0,0,1-1.18.14,4.68,4.68,0,0,1-1.76-.31,3.16,3.16,0,0,1-1.35-1.12l1.16-1a4.85,4.85,0,0,0,.83.66,2.07,2.07,0,0,0,1.12.29,3,3,0,0,0,.59-.06,1.83,1.83,0,0,0,.53-.19,1.16,1.16,0,0,0,.37-.32.74.74,0,0,0,.14-.45.78.78,0,0,0-.21-.56,1.54,1.54,0,0,0-.51-.35,3.73,3.73,0,0,0-.63-.2l-.59-.13q-.49-.12-.93-.27a2.86,2.86,0,0,1-.78-.41,1.87,1.87,0,0,1-.54-.65,2.07,2.07,0,0,1-.2-1,2.2,2.2,0,0,1,.26-1.1,2.33,2.33,0,0,1,.7-.77,3.19,3.19,0,0,1,1-.46,4.17,4.17,0,0,1,1.11-.15,4.09,4.09,0,0,1,1.56.31,2.48,2.48,0,0,1,1.19,1Z" transform="translate(-4.1 -0.71)" fill="#58595b"/><path d="M67.27,496.61h4.49a11.42,11.42,0,0,1,1.57.11,4.32,4.32,0,0,1,1.42.44,2.72,2.72,0,0,1,1,.93,2.84,2.84,0,0,1,.39,1.58,2.52,2.52,0,0,1-.57,1.69,3.13,3.13,0,0,1-1.5,1v0a3.44,3.44,0,0,1,1.08.33,2.89,2.89,0,0,1,.83.63,2.67,2.67,0,0,1,.54.89,3.12,3.12,0,0,1,.19,1.09,2.89,2.89,0,0,1-.41,1.59,3.2,3.2,0,0,1-1.05,1,4.6,4.6,0,0,1-1.45.56,7.79,7.79,0,0,1-1.61.17H67.27Zm2.65,4.81h1.92a2.72,2.72,0,0,0,.6-.07,1.67,1.67,0,0,0,.54-.22,1.15,1.15,0,0,0,.38-.41,1.22,1.22,0,0,0,.14-.61,1.11,1.11,0,0,0-.16-.62,1.12,1.12,0,0,0-.42-.38,2,2,0,0,0-.58-.2,3.44,3.44,0,0,0-.63-.06h-1.8Zm0,5H72.3a3,3,0,0,0,.62-.07,1.65,1.65,0,0,0,.57-.24,1.34,1.34,0,0,0,.42-.44,1.27,1.27,0,0,0,.16-.66,1.06,1.06,0,0,0-.21-.69,1.35,1.35,0,0,0-.54-.4,2.71,2.71,0,0,0-.7-.19,5.16,5.16,0,0,0-.7-.05h-2Z" transform="translate(-4.1 -0.71)" fill="#c88ad7"/><path d="M78,507.18a1.6,1.6,0,0,1,.12-.61,1.51,1.51,0,0,1,.83-.83,1.63,1.63,0,0,1,1.22,0,1.51,1.51,0,0,1,.83.83,1.63,1.63,0,0,1,0,1.22,1.51,1.51,0,0,1-.83.83,1.64,1.64,0,0,1-1.22,0,1.51,1.51,0,0,1-.83-.83A1.6,1.6,0,0,1,78,507.18Z" transform="translate(-4.1 -0.71)" fill="#c88ad7"/><path d="M335.93,529.06H63.35v-.26a24.89,24.89,0,0,1,0-49.48v-.16l272.59,0a24.89,24.89,0,0,1,0,49.69Zm-271.59-1H334.93V528l.48,0a23.89,23.89,0,0,0,0-47.74l-.48,0H64.35v.06l-.45,0a23.89,23.89,0,0,0,0,47.58l.45,0Z" transform="translate(-4.1 -0.71)" fill="#c88ad7"/><path d="M94.43,563.43l-4.56-6.9H92l3.28,5.29,3.38-5.29h2l-4.56,6.9v5.13H94.43Z" transform="translate(-4.1 -0.71)" fill="#58595b"/><path d="M100.87,565.1a2,2,0,0,0,.23,1,2.39,2.39,0,0,0,.6.74,2.8,2.8,0,0,0,.87.48,3.11,3.11,0,0,0,1,.17,2.28,2.28,0,0,0,1.24-.33,4,4,0,0,0,1-.88l1.16.88a4.25,4.25,0,0,1-3.57,1.65,4.45,4.45,0,0,1-1.73-.32,3.74,3.74,0,0,1-1.31-.89,4,4,0,0,1-.82-1.34,4.74,4.74,0,0,1-.29-1.67,4.39,4.39,0,0,1,.31-1.67,4.16,4.16,0,0,1,.87-1.34,4,4,0,0,1,1.32-.89,4.25,4.25,0,0,1,1.67-.32,4,4,0,0,1,1.81.37,3.57,3.57,0,0,1,1.22,1,3.87,3.87,0,0,1,.69,1.36,5.67,5.67,0,0,1,.21,1.54v.54Zm4.83-1.22a3.24,3.24,0,0,0-.16-.93,2.06,2.06,0,0,0-.43-.74,2,2,0,0,0-.72-.49,2.64,2.64,0,0,0-1-.18,2.46,2.46,0,0,0-1,.21,2.49,2.49,0,0,0-.79.55,2.55,2.55,0,0,0-.5.76,2.08,2.08,0,0,0-.18.82Z" transform="translate(-4.1 -0.71)" fill="#58595b"/><path d="M113.45,562.53a2.35,2.35,0,0,0-.67-.57,1.93,1.93,0,0,0-1-.23,1.86,1.86,0,0,0-.94.23.73.73,0,0,0-.4.67.76.76,0,0,0,.23.58,1.81,1.81,0,0,0,.54.36,3.15,3.15,0,0,0,.67.2l.61.12a7.08,7.08,0,0,1,.93.29,2.58,2.58,0,0,1,.75.44,1.92,1.92,0,0,1,.49.66,2.28,2.28,0,0,1,.18,1,2.24,2.24,0,0,1-.29,1.17,2.44,2.44,0,0,1-.75.79,3.15,3.15,0,0,1-1,.44,5.26,5.26,0,0,1-1.18.14,4.68,4.68,0,0,1-1.76-.31,3.17,3.17,0,0,1-1.35-1.12l1.16-1a4.83,4.83,0,0,0,.83.66,2.07,2.07,0,0,0,1.12.29,3,3,0,0,0,.59-.06,1.83,1.83,0,0,0,.53-.19,1.15,1.15,0,0,0,.37-.32.74.74,0,0,0,.14-.45.78.78,0,0,0-.21-.56,1.54,1.54,0,0,0-.51-.35,3.72,3.72,0,0,0-.63-.2l-.59-.13q-.49-.12-.93-.27a2.86,2.86,0,0,1-.78-.41,1.87,1.87,0,0,1-.54-.65,2.08,2.08,0,0,1-.2-1,2.2,2.2,0,0,1,.26-1.1,2.34,2.34,0,0,1,.7-.77,3.18,3.18,0,0,1,1-.46,4.17,4.17,0,0,1,1.11-.15,4.09,4.09,0,0,1,1.56.31,2.48,2.48,0,0,1,1.19,1Z" transform="translate(-4.1 -0.71)" fill="#58595b"/><path d="M128.79,565.1h-8.5v-1.33h8.5Z" transform="translate(-4.1 -0.71)" fill="#58595b"/><path d="M135.06,556.53h1.63v12h-1.63Z" transform="translate(-4.1 -0.71)" fill="#58595b"/><path d="M143.15,560.51h1.72l1.81,6h0l1.93-6h1.63l2,6h0l1.72-6h1.63l-2.6,8.06h-1.55l-2.13-6h0l-1.95,6H145.8Z" transform="translate(-4.1 -0.71)" fill="#58595b"/><path d="M156.63,564.53a4.1,4.1,0,0,1,.33-1.65,4.29,4.29,0,0,1,.91-1.34,4.33,4.33,0,0,1,6.09,0,4.3,4.3,0,0,1,.91,1.34,4.1,4.1,0,0,1,.33,1.65,4.19,4.19,0,0,1-1.24,3,4.31,4.31,0,0,1-1.36.9,4.43,4.43,0,0,1-3.37,0,4.3,4.3,0,0,1-1.36-.9,4.19,4.19,0,0,1-1.24-3Zm1.63,0a3.3,3.3,0,0,0,.19,1.13,2.54,2.54,0,0,0,.53.88,2.43,2.43,0,0,0,.83.58,3,3,0,0,0,2.21,0,2.43,2.43,0,0,0,.83-.58,2.55,2.55,0,0,0,.53-.88,3.51,3.51,0,0,0,0-2.26,2.56,2.56,0,0,0-.53-.88,2.44,2.44,0,0,0-.83-.58,3,3,0,0,0-2.21,0,2.44,2.44,0,0,0-.83.58,2.56,2.56,0,0,0-.53.88A3.3,3.3,0,0,0,158.26,564.53Z" transform="translate(-4.1 -0.71)" fill="#58595b"/><path d="M174.26,568.56h-1.53v-1.24h0a2.26,2.26,0,0,1-1,1,3.33,3.33,0,0,1-1.65.4,3.47,3.47,0,0,1-1.12-.18A2.51,2.51,0,0,1,168,568a2.66,2.66,0,0,1-.64-1,3.67,3.67,0,0,1-.24-1.39v-5.18h1.53v4.76a2.68,2.68,0,0,0,.15,1,1.75,1.75,0,0,0,.41.65,1.53,1.53,0,0,0,.59.36,2.15,2.15,0,0,0,.69.11,2.51,2.51,0,0,0,.88-.15,1.84,1.84,0,0,0,.71-.48,2.29,2.29,0,0,0,.48-.84,3.84,3.84,0,0,0,.17-1.21v-4.15h1.53Z" transform="translate(-4.1 -0.71)" fill="#58595b"/><path d="M176.69,555.71h1.53v12.85h-1.53Z" transform="translate(-4.1 -0.71)" fill="#58595b"/><path d="M188.73,568.56H187.2v-1.16h0a2.91,2.91,0,0,1-1.22,1,3.75,3.75,0,0,1-1.59.36,4.28,4.28,0,0,1-1.69-.32,3.74,3.74,0,0,1-1.29-.9,4.07,4.07,0,0,1-.82-1.34,4.67,4.67,0,0,1-.29-1.67,4.74,4.74,0,0,1,.29-1.67,4,4,0,0,1,.82-1.34,3.81,3.81,0,0,1,1.29-.89,4.28,4.28,0,0,1,1.69-.32,3.75,3.75,0,0,1,1.63.37,2.8,2.8,0,0,1,1.17,1h0v-5.95h1.53Zm-4.18-1.22a2.76,2.76,0,0,0,1.1-.21,2.43,2.43,0,0,0,.83-.58,2.55,2.55,0,0,0,.53-.88,3.51,3.51,0,0,0,0-2.26,2.56,2.56,0,0,0-.53-.88,2.44,2.44,0,0,0-.83-.58,3,3,0,0,0-2.21,0,2.44,2.44,0,0,0-.83.58,2.56,2.56,0,0,0-.53.88,3.51,3.51,0,0,0,0,2.26,2.54,2.54,0,0,0,.53.88,2.43,2.43,0,0,0,.83.58A2.77,2.77,0,0,0,184.54,567.34Z" transform="translate(-4.1 -0.71)" fill="#58595b"/><path d="M196.36,561.83h-1.73v-1.33h1.73v-1.8a3.86,3.86,0,0,1,.62-2.41,2.56,2.56,0,0,1,2.13-.79l.54,0a3.16,3.16,0,0,1,.6.1l-.17,1.36a2.25,2.25,0,0,0-.43-.12,2.71,2.71,0,0,0-.44,0,1.53,1.53,0,0,0-.68.13,1,1,0,0,0-.4.37,1.44,1.44,0,0,0-.19.57,6,6,0,0,0,0,.76v1.85h1.82v1.33h-1.84v6.73h-1.53Z" transform="translate(-4.1 -0.71)" fill="#58595b"/><path d="M201.19,557.62a1.13,1.13,0,1,1,.33.79A1.08,1.08,0,0,1,201.19,557.62Zm.36,2.89h1.53v8.06h-1.53Z" transform="translate(-4.1 -0.71)" fill="#58595b"/><path d="M205.51,560.51H207v1.24h0a2.25,2.25,0,0,1,1-1,3.31,3.31,0,0,1,1.65-.4,3.52,3.52,0,0,1,1.11.18,2.52,2.52,0,0,1,.94.55,2.68,2.68,0,0,1,.64,1,3.68,3.68,0,0,1,.24,1.39v5.18h-1.53V563.8a2.7,2.7,0,0,0-.15-1,1.75,1.75,0,0,0-.41-.65,1.54,1.54,0,0,0-.59-.36,2.18,2.18,0,0,0-.69-.11,2.49,2.49,0,0,0-.88.15,1.83,1.83,0,0,0-.71.48,2.28,2.28,0,0,0-.48.84,3.84,3.84,0,0,0-.17,1.21v4.15h-1.53Z" transform="translate(-4.1 -0.71)" fill="#58595b"/><path d="M223,568.56H221.5v-1.16h0a2.91,2.91,0,0,1-1.21,1,3.76,3.76,0,0,1-1.59.36,4.27,4.27,0,0,1-1.69-.32,3.73,3.73,0,0,1-1.29-.9,4.06,4.06,0,0,1-.82-1.34,4.66,4.66,0,0,1-.29-1.67,4.73,4.73,0,0,1,.29-1.67,4,4,0,0,1,.82-1.34,3.8,3.8,0,0,1,1.29-.89,4.27,4.27,0,0,1,1.69-.32,3.74,3.74,0,0,1,1.63.37,2.79,2.79,0,0,1,1.17,1h0v-5.95H223Zm-4.18-1.22a2.77,2.77,0,0,0,1.11-.21,2.44,2.44,0,0,0,.83-.58,2.55,2.55,0,0,0,.53-.88,3.52,3.52,0,0,0,0-2.26,2.56,2.56,0,0,0-.53-.88,2.45,2.45,0,0,0-.83-.58,3,3,0,0,0-2.21,0,2.44,2.44,0,0,0-.83.58,2.56,2.56,0,0,0-.53.88,3.52,3.52,0,0,0,0,2.26,2.55,2.55,0,0,0,.53.88,2.43,2.43,0,0,0,.83.58A2.76,2.76,0,0,0,218.85,567.34Z" transform="translate(-4.1 -0.71)" fill="#58595b"/><path d="M229.83,557.62a1.13,1.13,0,1,1,.33.79A1.08,1.08,0,0,1,229.83,557.62Zm.36,2.89h1.53v8.06h-1.53Z" transform="translate(-4.1 -0.71)" fill="#58595b"/><path d="M238.47,561.83h-2.19v3.66q0,.34,0,.67a1.76,1.76,0,0,0,.13.59,1,1,0,0,0,.34.42,1.16,1.16,0,0,0,.67.16,3.21,3.21,0,0,0,.56-.05,1.61,1.61,0,0,0,.53-.19v1.39a2,2,0,0,1-.71.21,5.41,5.41,0,0,1-.67.06,3.07,3.07,0,0,1-1.37-.25,1.68,1.68,0,0,1-.71-.64,2.07,2.07,0,0,1-.27-.88c0-.32,0-.65,0-1v-4.2H233v-1.33h1.77v-2.26h1.53v2.26h2.19Z" transform="translate(-4.1 -0.71)" fill="#58595b"/><path d="M244.2,560.51H246l2.41,6.17,2.31-6.17h1.63l-3.16,8.06h-1.68Z" transform="translate(-4.1 -0.71)" fill="#58595b"/><path d="M254.82,565.1a2,2,0,0,0,.23,1,2.4,2.4,0,0,0,.6.74,2.8,2.8,0,0,0,.87.48,3.11,3.11,0,0,0,1,.17,2.28,2.28,0,0,0,1.24-.33,4,4,0,0,0,1-.88l1.16.88a4.25,4.25,0,0,1-3.57,1.65,4.45,4.45,0,0,1-1.73-.32,3.75,3.75,0,0,1-1.31-.89,4,4,0,0,1-.82-1.34,4.75,4.75,0,0,1-.29-1.67,4.39,4.39,0,0,1,.31-1.67,4.17,4.17,0,0,1,.87-1.34,4,4,0,0,1,1.32-.89,4.25,4.25,0,0,1,1.67-.32,4,4,0,0,1,1.81.37,3.57,3.57,0,0,1,1.22,1,3.89,3.89,0,0,1,.69,1.36,5.67,5.67,0,0,1,.21,1.54v.54Zm4.83-1.22a3.26,3.26,0,0,0-.16-.93,2.07,2.07,0,0,0-.43-.74,2,2,0,0,0-.72-.49,2.64,2.64,0,0,0-1-.18,2.46,2.46,0,0,0-1,.21,2.5,2.5,0,0,0-.79.55,2.56,2.56,0,0,0-.5.76,2.08,2.08,0,0,0-.18.82Z" transform="translate(-4.1 -0.71)" fill="#58595b"/><path d="M263.12,560.51h1.53v1.24h0a2.18,2.18,0,0,1,.41-.59,2.7,2.7,0,0,1,.57-.45,3,3,0,0,1,.69-.3,2.64,2.64,0,0,1,.75-.11,2.16,2.16,0,0,1,.68.1l-.07,1.65-.37-.08a2.11,2.11,0,0,0-.37,0,2.26,2.26,0,0,0-1.72.63,2.76,2.76,0,0,0-.59,2v4h-1.53Z" transform="translate(-4.1 -0.71)" fill="#58595b"/><path d="M268.46,560.51h1.77l2.39,6.29h0l2.29-6.29h1.63l-3.83,9.79a10.32,10.32,0,0,1-.42,1,2.87,2.87,0,0,1-.52.74,2.12,2.12,0,0,1-.74.48,2.89,2.89,0,0,1-1.06.17,5.64,5.64,0,0,1-.69,0,2.52,2.52,0,0,1-.67-.18l.19-1.39a2.38,2.38,0,0,0,.91.19,1.68,1.68,0,0,0,.6-.09,1.19,1.19,0,0,0,.42-.27,1.59,1.59,0,0,0,.3-.42c.08-.16.16-.34.24-.54l.5-1.28Z" transform="translate(-4.1 -0.71)" fill="#58595b"/><path d="M282.24,564.53a4.11,4.11,0,0,1,.33-1.65,4.3,4.3,0,0,1,.91-1.34,4.33,4.33,0,0,1,6.09,0,4.3,4.3,0,0,1,.91,1.34,4.11,4.11,0,0,1,.33,1.65,4.18,4.18,0,0,1-1.24,3,4.31,4.31,0,0,1-1.36.9,4.43,4.43,0,0,1-3.37,0,4.31,4.31,0,0,1-1.36-.9,4.19,4.19,0,0,1-1.24-3Zm1.63,0a3.3,3.3,0,0,0,.19,1.13,2.55,2.55,0,0,0,.53.88,2.43,2.43,0,0,0,.83.58,3,3,0,0,0,2.21,0,2.44,2.44,0,0,0,.83-.58,2.55,2.55,0,0,0,.53-.88,3.52,3.52,0,0,0,0-2.26,2.56,2.56,0,0,0-.53-.88,2.45,2.45,0,0,0-.83-.58,3,3,0,0,0-2.21,0,2.44,2.44,0,0,0-.83.58,2.56,2.56,0,0,0-.53.88A3.3,3.3,0,0,0,283.88,564.53Z" transform="translate(-4.1 -0.71)" fill="#58595b"/><path d="M300.81,568.56h-1.53v-1.16h0a2.91,2.91,0,0,1-1.21,1,3.76,3.76,0,0,1-1.59.36,4.27,4.27,0,0,1-1.69-.32,3.73,3.73,0,0,1-1.29-.9,4.06,4.06,0,0,1-.82-1.34,4.66,4.66,0,0,1-.29-1.67,4.73,4.73,0,0,1,.29-1.67,4,4,0,0,1,.82-1.34,3.8,3.8,0,0,1,1.29-.89,4.27,4.27,0,0,1,1.69-.32,3.74,3.74,0,0,1,1.63.37,2.79,2.79,0,0,1,1.17,1h0v-5.95h1.53Zm-4.18-1.22a2.77,2.77,0,0,0,1.11-.21,2.44,2.44,0,0,0,.83-.58,2.55,2.55,0,0,0,.53-.88,3.52,3.52,0,0,0,0-2.26,2.56,2.56,0,0,0-.53-.88,2.45,2.45,0,0,0-.83-.58,3,3,0,0,0-2.21,0,2.44,2.44,0,0,0-.83.58,2.56,2.56,0,0,0-.53.88,3.52,3.52,0,0,0,0,2.26,2.55,2.55,0,0,0,.53.88,2.43,2.43,0,0,0,.83.58A2.76,2.76,0,0,0,296.63,567.34Z" transform="translate(-4.1 -0.71)" fill="#58595b"/><path d="M311.19,568.56h-1.53v-1.16h0a2.91,2.91,0,0,1-1.21,1,3.76,3.76,0,0,1-1.59.36,4.27,4.27,0,0,1-1.69-.32,3.73,3.73,0,0,1-1.29-.9,4.06,4.06,0,0,1-.82-1.34,4.66,4.66,0,0,1-.29-1.67,4.73,4.73,0,0,1,.29-1.67,4,4,0,0,1,.82-1.34,3.8,3.8,0,0,1,1.29-.89,4.27,4.27,0,0,1,1.69-.32,3.74,3.74,0,0,1,1.63.37,2.79,2.79,0,0,1,1.17,1h0v-5.95h1.53ZM307,567.34a2.77,2.77,0,0,0,1.11-.21,2.44,2.44,0,0,0,.83-.58,2.55,2.55,0,0,0,.53-.88,3.52,3.52,0,0,0,0-2.26,2.56,2.56,0,0,0-.53-.88,2.45,2.45,0,0,0-.83-.58,3,3,0,0,0-2.21,0,2.44,2.44,0,0,0-.83.58,2.56,2.56,0,0,0-.53.88,3.52,3.52,0,0,0,0,2.26,2.55,2.55,0,0,0,.53.88,2.43,2.43,0,0,0,.83.58A2.76,2.76,0,0,0,307,567.34Z" transform="translate(-4.1 -0.71)" fill="#58595b"/><path d="M75.14,559.66a2.6,2.6,0,0,0-1-.73,3.2,3.2,0,0,0-1.32-.25,3.29,3.29,0,0,0-2.49,1.1,3.77,3.77,0,0,0-.73,1.23,4.7,4.7,0,0,0,0,3.1,3.86,3.86,0,0,0,.72,1.22,3.29,3.29,0,0,0,1.08.81,3.13,3.13,0,0,0,1.33.29,3,3,0,0,0,1.44-.34,2.88,2.88,0,0,0,1-1l2.21,1.65a4.6,4.6,0,0,1-1.94,1.58,6,6,0,0,1-2.41.51,7.43,7.43,0,0,1-2.6-.44,6,6,0,0,1-2.06-1.27,5.75,5.75,0,0,1-1.35-2,7.32,7.32,0,0,1,0-5.24,5.75,5.75,0,0,1,1.35-2,6,6,0,0,1,2.06-1.27,7.43,7.43,0,0,1,2.6-.44,6.35,6.35,0,0,1,1.06.09,5.7,5.7,0,0,1,1.09.3,4.84,4.84,0,0,1,1,.54,4.13,4.13,0,0,1,.88.83Z" transform="translate(-4.1 -0.71)" fill="#c88ad7"/><path d="M78.64,567.1a1.6,1.6,0,0,1,.12-.61,1.51,1.51,0,0,1,.83-.83,1.63,1.63,0,0,1,1.22,0,1.51,1.51,0,0,1,.83.83,1.63,1.63,0,0,1,0,1.22,1.51,1.51,0,0,1-.83.83,1.64,1.64,0,0,1-1.22,0,1.51,1.51,0,0,1-.83-.83A1.6,1.6,0,0,1,78.64,567.1Z" transform="translate(-4.1 -0.71)" fill="#c88ad7"/><path d="M335.93,589H63.35v-.26a24.89,24.89,0,0,1,0-49.48v-.16l272.59,0a24.89,24.89,0,0,1,0,49.69ZM64.35,588H334.93v-.11l.48,0a23.89,23.89,0,0,0,0-47.74l-.48,0H64.35v.06l-.45,0a23.89,23.89,0,0,0,0,47.58l.45,0Z" transform="translate(-4.1 -0.71)" fill="#c88ad7"/><path d="M94.43,623.35l-4.56-6.9H92l3.28,5.29,3.38-5.29h2l-4.56,6.9v5.13H94.43Z" transform="translate(-4.1 -0.71)" fill="#58595b"/><path d="M100.87,625a2,2,0,0,0,.23,1,2.39,2.39,0,0,0,.6.74,2.8,2.8,0,0,0,.87.48,3.11,3.11,0,0,0,1,.17,2.28,2.28,0,0,0,1.24-.33,4,4,0,0,0,1-.88L107,627a4.25,4.25,0,0,1-3.57,1.65,4.45,4.45,0,0,1-1.73-.32,3.74,3.74,0,0,1-1.31-.89,4,4,0,0,1-.82-1.34,4.74,4.74,0,0,1-.29-1.67,4.39,4.39,0,0,1,.31-1.67,4.16,4.16,0,0,1,.87-1.34,4,4,0,0,1,1.32-.89,4.25,4.25,0,0,1,1.67-.32,4,4,0,0,1,1.81.37,3.57,3.57,0,0,1,1.22,1,3.87,3.87,0,0,1,.69,1.36,5.67,5.67,0,0,1,.21,1.54V625Zm4.83-1.22a3.24,3.24,0,0,0-.16-.93,2.06,2.06,0,0,0-.43-.74,2,2,0,0,0-.72-.49,2.64,2.64,0,0,0-1-.18,2.46,2.46,0,0,0-1,.21,2.49,2.49,0,0,0-.79.55,2.55,2.55,0,0,0-.5.76,2.08,2.08,0,0,0-.18.82Z" transform="translate(-4.1 -0.71)" fill="#58595b"/><path d="M113.45,622.45a2.35,2.35,0,0,0-.67-.57,1.93,1.93,0,0,0-1-.23,1.86,1.86,0,0,0-.94.23.73.73,0,0,0-.4.67.76.76,0,0,0,.23.58,1.81,1.81,0,0,0,.54.36,3.15,3.15,0,0,0,.67.2l.61.12a7.08,7.08,0,0,1,.93.29,2.58,2.58,0,0,1,.75.44,1.92,1.92,0,0,1,.49.66,2.28,2.28,0,0,1,.18,1,2.24,2.24,0,0,1-.29,1.17,2.44,2.44,0,0,1-.75.79,3.15,3.15,0,0,1-1,.44,5.26,5.26,0,0,1-1.18.14,4.68,4.68,0,0,1-1.76-.31,3.17,3.17,0,0,1-1.35-1.12l1.16-1a4.83,4.83,0,0,0,.83.66,2.07,2.07,0,0,0,1.12.29,3,3,0,0,0,.59-.06,1.83,1.83,0,0,0,.53-.19,1.15,1.15,0,0,0,.37-.32.74.74,0,0,0,.14-.45.78.78,0,0,0-.21-.56,1.54,1.54,0,0,0-.51-.35,3.72,3.72,0,0,0-.63-.2l-.59-.13q-.49-.12-.93-.27a2.86,2.86,0,0,1-.78-.41,1.87,1.87,0,0,1-.54-.65,2.08,2.08,0,0,1-.2-1,2.2,2.2,0,0,1,.26-1.1,2.34,2.34,0,0,1,.7-.77,3.18,3.18,0,0,1,1-.46,4.17,4.17,0,0,1,1.11-.15,4.09,4.09,0,0,1,1.56.31,2.48,2.48,0,0,1,1.19,1Z" transform="translate(-4.1 -0.71)" fill="#58595b"/><path d="M128.79,625h-8.5v-1.33h8.5Z" transform="translate(-4.1 -0.71)" fill="#58595b"/><path d="M135.06,616.45h1.63v12h-1.63Z" transform="translate(-4.1 -0.71)" fill="#58595b"/><path d="M148.44,621.75h-2.19v3.66q0,.34,0,.67a1.76,1.76,0,0,0,.13.59,1,1,0,0,0,.34.42,1.16,1.16,0,0,0,.67.16,3.22,3.22,0,0,0,.56-.05,1.6,1.6,0,0,0,.53-.19v1.39a2,2,0,0,1-.71.21,5.41,5.41,0,0,1-.67.06,3.07,3.07,0,0,1-1.37-.25,1.68,1.68,0,0,1-.71-.64,2.07,2.07,0,0,1-.27-.88c0-.32,0-.65,0-1v-4.2h-1.77v-1.33h1.77v-2.26h1.53v2.26h2.19Z" transform="translate(-4.1 -0.71)" fill="#58595b"/><path d="M150.41,615.63h1.53v6h0a2.25,2.25,0,0,1,1-1,3.32,3.32,0,0,1,1.65-.4,3.52,3.52,0,0,1,1.11.18,2.52,2.52,0,0,1,.94.55,2.68,2.68,0,0,1,.64,1,3.67,3.67,0,0,1,.24,1.39v5.18H156v-4.76a2.69,2.69,0,0,0-.15-1,1.75,1.75,0,0,0-.41-.65,1.54,1.54,0,0,0-.59-.36,2.18,2.18,0,0,0-.69-.11,2.49,2.49,0,0,0-.88.15,1.83,1.83,0,0,0-.71.48,2.28,2.28,0,0,0-.48.84,3.84,3.84,0,0,0-.17,1.21v4.15h-1.53Z" transform="translate(-4.1 -0.71)" fill="#58595b"/><path d="M159.62,617.53a1.13,1.13,0,1,1,.33.79A1.08,1.08,0,0,1,159.62,617.53Zm.36,2.89h1.53v8.06H160Z" transform="translate(-4.1 -0.71)" fill="#58595b"/><path d="M163.94,620.42h1.53v1.24h0a2.25,2.25,0,0,1,1-1,3.32,3.32,0,0,1,1.65-.4,3.52,3.52,0,0,1,1.11.18,2.52,2.52,0,0,1,.94.55,2.68,2.68,0,0,1,.64,1,3.67,3.67,0,0,1,.24,1.39v5.18h-1.53v-4.76a2.69,2.69,0,0,0-.15-1,1.75,1.75,0,0,0-.41-.65,1.54,1.54,0,0,0-.59-.36,2.18,2.18,0,0,0-.69-.11,2.49,2.49,0,0,0-.88.15,1.83,1.83,0,0,0-.71.48,2.28,2.28,0,0,0-.48.84,3.84,3.84,0,0,0-.17,1.21v4.15h-1.53Z" transform="translate(-4.1 -0.71)" fill="#58595b"/><path d="M173.39,615.63h1.53v8.3l3.47-3.49h2.13l-3.76,3.66,4.08,4.39h-2.18l-3.74-4.18v4.18h-1.53Z" transform="translate(-4.1 -0.71)" fill="#58595b"/><path d="M186.7,617.53a1.13,1.13,0,1,1,.33.79A1.08,1.08,0,0,1,186.7,617.53Zm.36,2.89h1.53v8.06h-1.53Z" transform="translate(-4.1 -0.71)" fill="#58595b"/><path d="M195.34,621.75h-2.19v3.66q0,.34,0,.67a1.76,1.76,0,0,0,.13.59,1,1,0,0,0,.34.42,1.16,1.16,0,0,0,.67.16,3.22,3.22,0,0,0,.56-.05,1.6,1.6,0,0,0,.53-.19v1.39a2,2,0,0,1-.71.21,5.41,5.41,0,0,1-.67.06,3.07,3.07,0,0,1-1.37-.25,1.68,1.68,0,0,1-.71-.64,2.07,2.07,0,0,1-.27-.88c0-.32,0-.65,0-1v-4.2h-1.77v-1.33h1.77v-2.26h1.53v2.26h2.19Z" transform="translate(-4.1 -0.71)" fill="#58595b"/><path d="M201.07,620.42h1.72l1.81,6h0l1.93-6h1.63l2,6h0l1.72-6h1.63l-2.6,8.06h-1.55l-2.13-6h0l-1.95,6h-1.63Z" transform="translate(-4.1 -0.71)" fill="#58595b"/><path d="M214.55,624.45a4.11,4.11,0,0,1,.33-1.65,4.3,4.3,0,0,1,.91-1.34,4.33,4.33,0,0,1,6.09,0,4.3,4.3,0,0,1,.91,1.34,4.11,4.11,0,0,1,.33,1.65,4.18,4.18,0,0,1-1.24,3,4.31,4.31,0,0,1-1.36.9,4.43,4.43,0,0,1-3.37,0,4.31,4.31,0,0,1-1.36-.9,4.19,4.19,0,0,1-1.24-3Zm1.63,0a3.3,3.3,0,0,0,.19,1.13,2.55,2.55,0,0,0,.53.88,2.43,2.43,0,0,0,.83.58,3,3,0,0,0,2.21,0,2.44,2.44,0,0,0,.83-.58,2.55,2.55,0,0,0,.53-.88,3.52,3.52,0,0,0,0-2.26,2.56,2.56,0,0,0-.53-.88,2.45,2.45,0,0,0-.83-.58,3,3,0,0,0-2.21,0,2.44,2.44,0,0,0-.83.58,2.56,2.56,0,0,0-.53.88A3.3,3.3,0,0,0,216.18,624.45Z" transform="translate(-4.1 -0.71)" fill="#58595b"/><path d="M232.18,628.48h-1.53v-1.24h0a2.26,2.26,0,0,1-1,1,3.33,3.33,0,0,1-1.65.4,3.47,3.47,0,0,1-1.12-.18,2.51,2.51,0,0,1-.93-.55,2.65,2.65,0,0,1-.64-1,3.66,3.66,0,0,1-.24-1.39v-5.18h1.53v4.76a2.69,2.69,0,0,0,.15,1,1.76,1.76,0,0,0,.41.65,1.52,1.52,0,0,0,.59.36,2.15,2.15,0,0,0,.69.11,2.51,2.51,0,0,0,.88-.15,1.84,1.84,0,0,0,.71-.48,2.3,2.3,0,0,0,.48-.84,3.86,3.86,0,0,0,.17-1.21v-4.15h1.53Z" transform="translate(-4.1 -0.71)" fill="#58595b"/><path d="M234.61,615.63h1.53v12.85h-1.53Z" transform="translate(-4.1 -0.71)" fill="#58595b"/><path d="M246.65,628.48h-1.53v-1.16h0a2.91,2.91,0,0,1-1.21,1,3.76,3.76,0,0,1-1.59.36,4.27,4.27,0,0,1-1.69-.32,3.73,3.73,0,0,1-1.29-.9,4.06,4.06,0,0,1-.82-1.34,4.66,4.66,0,0,1-.29-1.67,4.73,4.73,0,0,1,.29-1.67,4,4,0,0,1,.82-1.34,3.8,3.8,0,0,1,1.29-.89,4.27,4.27,0,0,1,1.69-.32,3.74,3.74,0,0,1,1.63.37,2.79,2.79,0,0,1,1.17,1h0v-5.95h1.53Zm-4.18-1.22a2.77,2.77,0,0,0,1.11-.21,2.44,2.44,0,0,0,.83-.58,2.55,2.55,0,0,0,.53-.88,3.52,3.52,0,0,0,0-2.26,2.56,2.56,0,0,0-.53-.88,2.45,2.45,0,0,0-.83-.58,3,3,0,0,0-2.21,0,2.44,2.44,0,0,0-.83.58,2.56,2.56,0,0,0-.53.88,3.52,3.52,0,0,0,0,2.26,2.55,2.55,0,0,0,.53.88,2.43,2.43,0,0,0,.83.58A2.76,2.76,0,0,0,242.46,627.26Z" transform="translate(-4.1 -0.71)" fill="#58595b"/><path d="M253.68,615.63h1.53v5.95h0a2.8,2.8,0,0,1,1.17-1,3.74,3.74,0,0,1,1.63-.37,4.27,4.27,0,0,1,1.69.32,3.8,3.8,0,0,1,1.29.89,4,4,0,0,1,.83,1.34,4.75,4.75,0,0,1,.29,1.67,4.68,4.68,0,0,1-.29,1.67,4.08,4.08,0,0,1-.83,1.34,3.73,3.73,0,0,1-1.29.9,4.27,4.27,0,0,1-1.69.32,3.75,3.75,0,0,1-1.59-.36,2.91,2.91,0,0,1-1.22-1h0v1.16h-1.53Zm4.18,11.63A2.76,2.76,0,0,0,259,627a2.43,2.43,0,0,0,.83-.58,2.55,2.55,0,0,0,.53-.88,3.5,3.5,0,0,0,0-2.26,2.56,2.56,0,0,0-.53-.88,2.44,2.44,0,0,0-.83-.58,3,3,0,0,0-2.21,0,2.45,2.45,0,0,0-.83.58,2.55,2.55,0,0,0-.53.88,3.5,3.5,0,0,0,0,2.26,2.53,2.53,0,0,0,.53.88,2.44,2.44,0,0,0,.83.58A2.77,2.77,0,0,0,257.87,627.26Z" transform="translate(-4.1 -0.71)" fill="#58595b"/><path d="M265.23,625a2,2,0,0,0,.23,1,2.4,2.4,0,0,0,.6.74,2.8,2.8,0,0,0,.87.48,3.11,3.11,0,0,0,1,.17,2.28,2.28,0,0,0,1.24-.33,4,4,0,0,0,1-.88l1.16.88a4.25,4.25,0,0,1-3.57,1.65,4.45,4.45,0,0,1-1.73-.32,3.75,3.75,0,0,1-1.31-.89,4,4,0,0,1-.82-1.34,4.75,4.75,0,0,1-.29-1.67,4.39,4.39,0,0,1,.31-1.67,4.17,4.17,0,0,1,.87-1.34,4,4,0,0,1,1.32-.89,4.25,4.25,0,0,1,1.67-.32,4,4,0,0,1,1.81.37,3.57,3.57,0,0,1,1.22,1,3.89,3.89,0,0,1,.69,1.36,5.67,5.67,0,0,1,.21,1.54V625Zm4.83-1.22a3.26,3.26,0,0,0-.16-.93,2.07,2.07,0,0,0-.43-.74,2,2,0,0,0-.72-.49,2.64,2.64,0,0,0-1-.18,2.46,2.46,0,0,0-1,.21,2.5,2.5,0,0,0-.79.55,2.56,2.56,0,0,0-.5.76,2.08,2.08,0,0,0-.18.82Z" transform="translate(-4.1 -0.71)" fill="#58595b"/><path d="M278.25,615.63h1.53v6h0a2.25,2.25,0,0,1,1-1,3.31,3.31,0,0,1,1.65-.4,3.52,3.52,0,0,1,1.11.18,2.52,2.52,0,0,1,.94.55,2.68,2.68,0,0,1,.64,1,3.68,3.68,0,0,1,.24,1.39v5.18h-1.53v-4.76a2.7,2.7,0,0,0-.15-1,1.75,1.75,0,0,0-.41-.65,1.54,1.54,0,0,0-.59-.36,2.18,2.18,0,0,0-.69-.11,2.49,2.49,0,0,0-.88.15,1.83,1.83,0,0,0-.71.48,2.28,2.28,0,0,0-.48.84,3.84,3.84,0,0,0-.17,1.21v4.15h-1.53Z" transform="translate(-4.1 -0.71)" fill="#58595b"/><path d="M287.31,624.45a4.11,4.11,0,0,1,.33-1.65,4.3,4.3,0,0,1,.91-1.34,4.33,4.33,0,0,1,6.09,0,4.3,4.3,0,0,1,.91,1.34,4.11,4.11,0,0,1,.33,1.65,4.18,4.18,0,0,1-1.24,3,4.31,4.31,0,0,1-1.36.9,4.43,4.43,0,0,1-3.37,0,4.31,4.31,0,0,1-1.36-.9,4.19,4.19,0,0,1-1.24-3Zm1.63,0a3.3,3.3,0,0,0,.19,1.13,2.55,2.55,0,0,0,.53.88,2.43,2.43,0,0,0,.83.58,3,3,0,0,0,2.21,0,2.44,2.44,0,0,0,.83-.58,2.55,2.55,0,0,0,.53-.88,3.52,3.52,0,0,0,0-2.26,2.56,2.56,0,0,0-.53-.88,2.45,2.45,0,0,0-.83-.58,3,3,0,0,0-2.21,0,2.44,2.44,0,0,0-.83.58,2.56,2.56,0,0,0-.53.88A3.3,3.3,0,0,0,288.94,624.45Z" transform="translate(-4.1 -0.71)" fill="#58595b"/><path d="M302.12,621.75h-2.19v3.66q0,.34,0,.67a1.76,1.76,0,0,0,.13.59,1,1,0,0,0,.34.42,1.16,1.16,0,0,0,.67.16,3.21,3.21,0,0,0,.56-.05,1.61,1.61,0,0,0,.53-.19v1.39a2,2,0,0,1-.71.21,5.41,5.41,0,0,1-.67.06,3.07,3.07,0,0,1-1.37-.25,1.68,1.68,0,0,1-.71-.64,2.07,2.07,0,0,1-.27-.88c0-.32,0-.65,0-1v-4.2h-1.77v-1.33h1.77v-2.26h1.53v2.26h2.19Z" transform="translate(-4.1 -0.71)" fill="#58595b"/><path d="M67.27,616.45h4a11.38,11.38,0,0,1,2.75.32,6.28,6.28,0,0,1,2.27,1,5.13,5.13,0,0,1,1.54,1.88,6.3,6.3,0,0,1,.57,2.8,5.73,5.73,0,0,1-.55,2.58,5.55,5.55,0,0,1-1.49,1.87,6.59,6.59,0,0,1-2.16,1.15,8.38,8.38,0,0,1-2.57.39H67.27ZM69.92,626h1.38a7.39,7.39,0,0,0,1.71-.19,3.66,3.66,0,0,0,1.37-.62,3,3,0,0,0,.91-1.14,4,4,0,0,0,.33-1.73,3.36,3.36,0,0,0-.33-1.54,3.08,3.08,0,0,0-.89-1.08,3.93,3.93,0,0,0-1.32-.64,5.89,5.89,0,0,0-1.59-.21H69.92Z" transform="translate(-4.1 -0.71)" fill="#c88ad7"/><path d="M79.9,627a1.6,1.6,0,0,1,.12-.61,1.51,1.51,0,0,1,.83-.83,1.63,1.63,0,0,1,1.22,0,1.51,1.51,0,0,1,.83.83,1.63,1.63,0,0,1,0,1.22,1.51,1.51,0,0,1-.83.83,1.64,1.64,0,0,1-1.22,0,1.51,1.51,0,0,1-.83-.83A1.6,1.6,0,0,1,79.9,627Z" transform="translate(-4.1 -0.71)" fill="#c88ad7"/><path d="M335.93,648.9H63.35v-.26a24.89,24.89,0,0,1,0-49.48V599l272.59,0a24.89,24.89,0,0,1,0,49.69Zm-271.59-1H334.93v-.11l.48,0a23.89,23.89,0,0,0,0-47.74l-.48,0H64.35v.06l-.45,0a23.89,23.89,0,0,0,0,47.58l.45,0Z" transform="translate(-4.1 -0.71)" fill="#c88ad7"/></g><g id="Sidebar"><rect x="335.9" y="105.62" width="30.03" height="302.39" fill="#2a1d22"/><path d="M360.53,346.12a1.56,1.56,0,0,1,1,.19,1.69,1.69,0,0,1,0,2.14,1.56,1.56,0,0,1-1,.19h-6.79v1.74a1.62,1.62,0,0,1-.18,1,1.07,1.07,0,0,1-.94.38,1.09,1.09,0,0,1-1-.38,1.63,1.63,0,0,1-.18-1v-6a1.63,1.63,0,0,1,.18-1,1.09,1.09,0,0,1,1-.38,1.07,1.07,0,0,1,.94.38,1.62,1.62,0,0,1,.18,1v1.74Z" transform="translate(-4.1 -0.71)" fill="#fff"/><path d="M359.45,336.57v3.63l1.3.48c.8.3,1.17.62,1.17,1.52s-.29,1.1-.74,1.1a1.67,1.67,0,0,1-.66-.18l-8-3.33c-.75-.32-1.18-.64-1.18-1.54s.43-1.18,1.18-1.49l8-3.2a1.65,1.65,0,0,1,.59-.14c.5,0,.77.38.77,1.18s-.32,1.15-1.17,1.47Zm-2,2.9v-2.18l-2.9,1.09Z" transform="translate(-4.1 -0.71)" fill="#fff"/><path d="M358.34,328.72c0,.3,0,.56,0,.56h2.21a1.56,1.56,0,0,1,1,.19,1.19,1.19,0,0,1,.38,1,1.23,1.23,0,0,1-.38,1.06,1.56,1.56,0,0,1-1,.19H353c-.54,0-1.07,0-1.38-.82a6.36,6.36,0,0,1-.26-2,6,6,0,0,1,.74-3.19,3,3,0,0,1,2.71-1.44C357.2,324.3,358.34,326.27,358.34,328.72Zm-2,.56a3.2,3.2,0,0,0,0-.48c0-1-.37-2-1.47-2s-1.46.77-1.46,1.86c0,.29,0,.58,0,.58Z" transform="translate(-4.1 -0.71)" fill="#fff"/><path d="M360.53,313.87a1.56,1.56,0,0,1,1,.19,1.69,1.69,0,0,1,0,2.14,1.56,1.56,0,0,1-1,.19h-6.79v1.74a1.62,1.62,0,0,1-.18,1,1.07,1.07,0,0,1-.94.38,1.09,1.09,0,0,1-1-.38,1.63,1.63,0,0,1-.18-1v-6a1.63,1.63,0,0,1,.18-1,1.09,1.09,0,0,1,1-.38,1.07,1.07,0,0,1,.94.38,1.62,1.62,0,0,1,.18,1v1.74Z" transform="translate(-4.1 -0.71)" fill="#fff"/><path d="M351.23,304.76a5.16,5.16,0,0,1,5.38-5.47,5.22,5.22,0,0,1,5.43,5.52,5.16,5.16,0,0,1-5.38,5.47A5.22,5.22,0,0,1,351.23,304.76Zm8.64,0c0-1.79-1.18-2.93-3.23-2.93s-3.25,1.15-3.25,2.95,1.18,2.93,3.23,2.93S359.88,306.57,359.88,304.78Z" transform="translate(-4.1 -0.71)" fill="#fff"/><path d="M360.53,290.88a1.67,1.67,0,0,1,1,.19,1.56,1.56,0,0,1,0,2,1.68,1.68,0,0,1-1,.18H353a1.19,1.19,0,0,1-1.41-.94,7.21,7.21,0,0,1-.22-2,6.34,6.34,0,0,1,.48-2.69,2.85,2.85,0,0,1,2.74-1.67,3.09,3.09,0,0,1,2.88,1.71l3.19-2.37c.59-.45,1.28-.19,1.28,1a1.82,1.82,0,0,1-1.06,1.73l-1.92,1.28c-.4.27-.93.56-.93.56v1Zm-4.5,0s0-.21,0-.45c0-1.28-.45-1.9-1.34-1.9s-1.25.72-1.25,1.65a5.32,5.32,0,0,0,0,.7Z" transform="translate(-4.1 -0.71)" fill="#fff"/><path d="M355.32,280.84V279.1a1.73,1.73,0,0,1,.16-1,1.27,1.27,0,0,1,1.82,0,1.73,1.73,0,0,1,.16,1v1.74h2.23v-2.67a1.74,1.74,0,0,1,.16-1,1.28,1.28,0,0,1,1.82,0,1.74,1.74,0,0,1,.16,1v3.91c0,.86-.34,1.18-1.18,1.18h-8c-.87,0-1.18-.32-1.18-1.18v-3.59a1.74,1.74,0,0,1,.16-1,1.27,1.27,0,0,1,1.82,0,1.74,1.74,0,0,1,.16,1v2.35Z" transform="translate(-4.1 -0.71)" fill="#fff"/><path d="M352.61,268.41c-.74-.27-1.23-.51-1.23-1.6,0-.82.27-1.2.78-1.2a2.08,2.08,0,0,1,.75.19l7.75,3.3c.85.35,1.26.59,1.26,1.58s-.48,1.31-1.25,1.63l-7.73,3.15a1.89,1.89,0,0,1-.75.21c-.56,0-.82-.43-.82-1.23,0-1,.4-1.3,1.25-1.62l6-2.21Z" transform="translate(-4.1 -0.71)" fill="#fff"/><path d="M355.32,261.47v-1.74a1.73,1.73,0,0,1,.16-1,1.27,1.27,0,0,1,1.82,0,1.73,1.73,0,0,1,.16,1v1.74h2.23v-2.67a1.74,1.74,0,0,1,.16-1,1.28,1.28,0,0,1,1.82,0,1.74,1.74,0,0,1,.16,1v3.91c0,.86-.34,1.18-1.18,1.18h-8c-.87,0-1.18-.32-1.18-1.18v-3.59a1.74,1.74,0,0,1,.16-1,1.27,1.27,0,0,1,1.82,0,1.74,1.74,0,0,1,.16,1v2.35Z" transform="translate(-4.1 -0.71)" fill="#fff"/><path d="M359.45,249.63v3.63l1.3.48c.8.3,1.17.62,1.17,1.52s-.29,1.1-.74,1.1a1.67,1.67,0,0,1-.66-.18l-8-3.33c-.75-.32-1.18-.64-1.18-1.54s.43-1.18,1.18-1.49l8-3.2a1.65,1.65,0,0,1,.59-.14c.5,0,.77.38.77,1.18s-.32,1.15-1.17,1.47Zm-2,2.9v-2.18l-2.9,1.09Z" transform="translate(-4.1 -0.71)" fill="#fff"/><path d="M359.57,239.69a1.63,1.63,0,0,1,.18-1,1.09,1.09,0,0,1,1-.38,1.07,1.07,0,0,1,.94.38,1.63,1.63,0,0,1,.18,1v3.94c0,.88-.34,1.18-1.18,1.18h-7.89a1.59,1.59,0,0,1-1-.19,1.75,1.75,0,0,1,0-2.15,1.59,1.59,0,0,1,1-.19h6.82Z" transform="translate(-4.1 -0.71)" fill="#fff"/><path d="M359.45,226.92v3.63l1.3.48c.8.3,1.17.62,1.17,1.52s-.29,1.1-.74,1.1a1.67,1.67,0,0,1-.66-.18l-8-3.33c-.75-.32-1.18-.64-1.18-1.54s.43-1.18,1.18-1.49l8-3.2a1.65,1.65,0,0,1,.59-.14c.5,0,.77.38.77,1.18s-.32,1.15-1.17,1.47Zm-2,2.9v-2.18l-2.9,1.09Z" transform="translate(-4.1 -0.71)" fill="#fff"/><path d="M360.53,219.66a1.54,1.54,0,0,1,1,.19,1.2,1.2,0,0,1,.38,1,1.22,1.22,0,0,1-.38,1,1.56,1.56,0,0,1-1,.19h-8.18c-.61,0-1-.43-1-1.33a1.86,1.86,0,0,1,.94-1.7l5.41-4.13h-5a1.54,1.54,0,0,1-1-.19,1.2,1.2,0,0,1-.38-1,1.22,1.22,0,0,1,.38-1,1.54,1.54,0,0,1,1-.19H361c.67,0,1,.43,1,1.17a1.8,1.8,0,0,1-.91,1.57l-5.65,4.42Z" transform="translate(-4.1 -0.71)" fill="#fff"/><path d="M356.13,205.29a3.08,3.08,0,0,1,2.69-1.58c2,0,3.17,1.7,3.17,3.73a5,5,0,0,1-.48,2.18c-.26.51-.59.93-1.15.93s-1.22-.38-1.22-1,.74-1.14.74-2.11c0-.7-.37-1.18-.94-1.18s-1,.58-1.34,1.28c-.62,1.22-1.38,2.88-3.26,2.88s-3-1.6-3-3.58c0-1.41.61-2.91,1.55-2.91A1.19,1.19,0,0,1,354,205c0,.58-.59,1.09-.59,1.9,0,.62.34,1,.77,1C355,207.87,355.38,206.43,356.13,205.29Z" transform="translate(-4.1 -0.71)" fill="#fff"/><path d="M360.58,197.18c.88.29,1.34.59,1.34,1.65s-.46,1.28-1.42,1.54l-7.64,2.08a2.46,2.46,0,0,1-.66.11c-.48,0-.83-.27-.83-1.26s.34-1.26,1.18-1.46l5.86-1.33-5.55-1.73c-.67-.21-1.14-.4-1.14-1.41s.45-1.23,1.14-1.44l5.54-1.7-5.83-1.36c-.86-.19-1.2-.42-1.2-1.38s.29-1.26.8-1.26a2.56,2.56,0,0,1,.66.11l7.67,2.16c1,.27,1.42.5,1.42,1.57a1.53,1.53,0,0,1-1.31,1.71l-5.22,1.68Z" transform="translate(-4.1 -0.71)" fill="#fff"/><path d="M355.32,183.85v-1.74a1.73,1.73,0,0,1,.16-1,1.27,1.27,0,0,1,1.82,0,1.73,1.73,0,0,1,.16,1v1.74h2.23v-2.67a1.74,1.74,0,0,1,.16-1,1.28,1.28,0,0,1,1.82,0,1.74,1.74,0,0,1,.16,1v3.91c0,.86-.34,1.18-1.18,1.18h-8c-.87,0-1.18-.32-1.18-1.18V181.5a1.74,1.74,0,0,1,.16-1,1.27,1.27,0,0,1,1.82,0,1.74,1.74,0,0,1,.16,1v2.35Z" transform="translate(-4.1 -0.71)" fill="#fff"/><path d="M360.53,175.32a1.67,1.67,0,0,1,1,.19,1.56,1.56,0,0,1,0,2,1.68,1.68,0,0,1-1,.18H353a1.19,1.19,0,0,1-1.41-.94,7.21,7.21,0,0,1-.22-2,6.34,6.34,0,0,1,.48-2.69,2.85,2.85,0,0,1,2.74-1.67,3.09,3.09,0,0,1,2.88,1.71l3.19-2.37c.59-.45,1.28-.19,1.28,1a1.82,1.82,0,0,1-1.06,1.73l-1.92,1.28c-.4.27-.93.56-.93.56v1Zm-4.5,0s0-.21,0-.45c0-1.28-.45-1.9-1.34-1.9s-1.25.72-1.25,1.65a5.32,5.32,0,0,0,0,.7Z" transform="translate(-4.1 -0.71)" fill="#fff"/></g></svg>