<svg xmlns="http://www.w3.org/2000/svg" viewBox="0 0 392.3 800.29"><title>DT_Screen_Answer_English</title><g id="phone"><path d="M199.25,800H338c65.5,0,57-55,57-55V51c0-53-53-49.22-53-49.22H58.5S5.48-2,5.48,51V745s-8.48,55,57,55H199.25Z" transform="translate(-4.1 -0.71)" fill="#fff"/><path d="M338,801H62.5c-21.48,0-37.39-5.86-47.29-17.4-13.71-16-11-37-10.73-38.67V51c0-15.89,4.72-28.34,14-37C34.34-.76,57.59.71,58.57.78H342C342.91.71,366.15-.76,382,14c9.3,8.66,14,21.11,14,37V744.93c.25,1.68,3,22.68-10.73,38.67C375.38,795.14,359.47,801,338,801Zm-138.75-2H338c20.86,0,36.25-5.62,45.76-16.69,13.39-15.6,10.31-36.95,10.27-37.16V51c0-15.31-4.5-27.27-13.38-35.54C365.42,1.29,342.3,2.76,342.07,2.78H58.5C58.2,2.76,35,1.3,19.85,15.47,11,23.74,6.48,35.69,6.48,51V745.15c0,.21-3.12,21.56,10.27,37.16C26.25,793.38,41.65,799,62.5,799Z" transform="translate(-4.1 -0.71)"/><path d="M200.42,785.38a27.21,27.21,0,1,1,27.21-27.21A27.24,27.24,0,0,1,200.42,785.38Zm0-52.43a25.21,25.21,0,1,0,25.21,25.21A25.24,25.24,0,0,0,200.42,733Z" transform="translate(-4.1 -0.71)"/><path d="M200.42,791a32.83,32.83,0,1,1,32.83-32.83A32.87,32.87,0,0,1,200.42,791Zm0-63.67a30.83,30.83,0,1,0,30.83,30.83A30.87,30.87,0,0,0,200.42,727.33Z" transform="translate(-4.1 -0.71)"/><path d="M371,712.12H31.08V105.33H371Zm-337.94-2H369V107.33H33.08Z" transform="translate(-4.1 -0.71)"/><path d="M141.14,68.33A9.33,9.33,0,1,1,150.47,59,9.34,9.34,0,0,1,141.14,68.33Zm0-16.67A7.33,7.33,0,1,0,148.47,59,7.34,7.34,0,0,0,141.14,51.67Z" transform="translate(-4.1 -0.71)"/><path d="M201.25,39.54A7.54,7.54,0,1,1,208.79,32,7.55,7.55,0,0,1,201.25,39.54Zm0-13.08A5.54,5.54,0,1,0,206.79,32,5.55,5.55,0,0,0,201.25,26.46Z" transform="translate(-4.1 -0.71)"/><path d="M228.83,64.33H171.17a5.17,5.17,0,0,1,0-10.33h57.67a5.17,5.17,0,1,1,0,10.33ZM171.17,56a3.17,3.17,0,0,0,0,6.33h57.67a3.17,3.17,0,1,0,0-6.33Z" transform="translate(-4.1 -0.71)"/></g><g id="Answer"><rect x="27.98" y="105.62" width="337.94" height="302.39" fill="#c88ad7"/><path d="M91.59,436.69h2.14l6.63,9.89h0v-9.89H102v12H100l-6.7-9.89h0v9.89H91.59Z" transform="translate(-4.1 -0.71)" fill="#58595b"/><path d="M104.34,444.7a4.1,4.1,0,0,1,.33-1.65,4.29,4.29,0,0,1,.91-1.34,4.33,4.33,0,0,1,6.09,0,4.3,4.3,0,0,1,.91,1.34,4.1,4.1,0,0,1,.33,1.65,4.19,4.19,0,0,1-1.24,3,4.31,4.31,0,0,1-1.36.9,4.43,4.43,0,0,1-3.37,0,4.3,4.3,0,0,1-1.36-.9,4.19,4.19,0,0,1-1.24-3Zm1.63,0a3.3,3.3,0,0,0,.19,1.13,2.54,2.54,0,0,0,.53.88,2.43,2.43,0,0,0,.83.58,3,3,0,0,0,2.21,0,2.43,2.43,0,0,0,.83-.58,2.55,2.55,0,0,0,.53-.88,3.51,3.51,0,0,0,0-2.26,2.56,2.56,0,0,0-.53-.88,2.44,2.44,0,0,0-.83-.58,3,3,0,0,0-2.21,0,2.44,2.44,0,0,0-.83.58,2.56,2.56,0,0,0-.53.88A3.3,3.3,0,0,0,106,444.7Z" transform="translate(-4.1 -0.71)" fill="#58595b"/><path d="M118.58,440.67h1.72l1.81,6h0l1.93-6h1.63l2,6h0l1.72-6h1.63l-2.6,8.06H127l-2.13-6h0l-1.95,6h-1.63Z" transform="translate(-4.1 -0.71)" fill="#58595b"/><path d="M132.49,441.65a4.27,4.27,0,0,1,1.5-.89,5.12,5.12,0,0,1,1.7-.3,4.66,4.66,0,0,1,1.52.22,3,3,0,0,1,1,.59,2.36,2.36,0,0,1,.6.86,2.69,2.69,0,0,1,.2,1v4.11q0,.42,0,.78c0,.24,0,.46.05.68h-1.36q-.05-.61-.05-1.22h0a2.92,2.92,0,0,1-1.21,1.1,3.81,3.81,0,0,1-1.61.32,3.69,3.69,0,0,1-1.07-.15,2.61,2.61,0,0,1-.89-.46,2.2,2.2,0,0,1-.6-.76,2.35,2.35,0,0,1-.22-1,2.32,2.32,0,0,1,.35-1.31,2.65,2.65,0,0,1,1-.86,4.61,4.61,0,0,1,1.41-.48,9.85,9.85,0,0,1,1.73-.14h1.12v-.34a1.69,1.69,0,0,0-.48-1.17,1.71,1.71,0,0,0-.6-.39,2.27,2.27,0,0,0-.85-.14,3.14,3.14,0,0,0-.77.08,3.43,3.43,0,0,0-.6.21,2.64,2.64,0,0,0-.49.3l-.43.32Zm4.32,3.2a10.6,10.6,0,0,0-1.11.06,4.37,4.37,0,0,0-1,.23,2,2,0,0,0-.77.48,1.08,1.08,0,0,0-.3.78,1.11,1.11,0,0,0,.47,1,2.29,2.29,0,0,0,1.27.31,2.46,2.46,0,0,0,1.07-.21,2,2,0,0,0,.71-.55,2.15,2.15,0,0,0,.39-.76,3,3,0,0,0,.12-.83v-.51Z" transform="translate(-4.1 -0.71)" fill="#58595b"/><path d="M140.33,440.67h1.77l2.39,6.29h0l2.29-6.29h1.63l-3.83,9.79a10.31,10.31,0,0,1-.42,1,2.87,2.87,0,0,1-.52.74,2.12,2.12,0,0,1-.74.48,2.9,2.9,0,0,1-1.06.17,5.64,5.64,0,0,1-.69,0,2.51,2.51,0,0,1-.67-.18l.19-1.39a2.38,2.38,0,0,0,.91.19,1.68,1.68,0,0,0,.6-.09,1.18,1.18,0,0,0,.42-.27,1.58,1.58,0,0,0,.3-.42c.08-.16.16-.34.24-.54l.5-1.28Z" transform="translate(-4.1 -0.71)" fill="#58595b"/><path d="M149.86,447.71a1.13,1.13,0,1,1,.33.79A1.08,1.08,0,0,1,149.86,447.71Zm1.9-2.45h-1.63v-8.57h1.63Z" transform="translate(-4.1 -0.71)" fill="#58595b"/><path d="M71.23,436.69h2.19l5.24,12h-3l-1-2.55H70l-1,2.55H66Zm1,3.5-1.46,3.74h2.94Z" transform="translate(-4.1 -0.71)" fill="#c88ad7"/><path d="M79.59,447.26a1.6,1.6,0,0,1,.12-.61,1.51,1.51,0,0,1,.83-.83,1.63,1.63,0,0,1,1.22,0,1.51,1.51,0,0,1,.83.83,1.63,1.63,0,0,1,0,1.22,1.51,1.51,0,0,1-.83.83,1.64,1.64,0,0,1-1.22,0,1.51,1.51,0,0,1-.83-.83A1.6,1.6,0,0,1,79.59,447.26Z" transform="translate(-4.1 -0.71)" fill="#c88ad7"/><g id="iPhone-7"><g id="Categories"><g id="Sex"><g id="sex-small-symbol"><path id="Sex-small-symbol-peach" d="M82.73,137.62c-.82-2.76-5.56-4.54-8.46-2-1.15,1.62-3.32,4.44-1,8.57a.94.94,0,0,1-.39,1.3c-.48.24-1-.2-1.24-.64-2.23-4.23-.93-7.07.64-9.68a1.85,1.85,0,0,0-.69-.67c-2.64-1.77-8-.92-8.94,4.9-1.12,6.75,7.68,10.39,11.7,10.78,2.51.24.18-2,4-4.26,4.73-2.84,5.13-5.65,4.35-8.26" transform="translate(-4.1 -0.71)" fill="#fff"/></g></g></g></g><path d="M335.93,469.15H63.35v-.26a24.89,24.89,0,0,1,0-49.48v-.16l272.59,0a24.89,24.89,0,0,1,0,49.69Zm-271.59-1H334.93V468l.48,0a23.89,23.89,0,0,0,0-47.74l-.48,0H64.35v.06l-.45,0a23.89,23.89,0,0,0,0,47.58l.45,0Z" transform="translate(-4.1 -0.71)" fill="#c88ad7"/><path d="M91.59,496.61h2.14l6.63,9.89h0v-9.89H102v12H100l-6.7-9.89h0v9.89H91.59Z" transform="translate(-4.1 -0.71)" fill="#58595b"/><path d="M104.34,504.62a4.1,4.1,0,0,1,.33-1.65,4.29,4.29,0,0,1,.91-1.34,4.33,4.33,0,0,1,6.09,0,4.3,4.3,0,0,1,.91,1.34,4.1,4.1,0,0,1,.33,1.65,4.19,4.19,0,0,1-1.24,3,4.31,4.31,0,0,1-1.36.9,4.43,4.43,0,0,1-3.37,0,4.3,4.3,0,0,1-1.36-.9,4.19,4.19,0,0,1-1.24-3Zm1.63,0a3.3,3.3,0,0,0,.19,1.13,2.54,2.54,0,0,0,.53.88,2.43,2.43,0,0,0,.83.58,3,3,0,0,0,2.21,0,2.43,2.43,0,0,0,.83-.58,2.55,2.55,0,0,0,.53-.88,3.51,3.51,0,0,0,0-2.26,2.56,2.56,0,0,0-.53-.88,2.44,2.44,0,0,0-.83-.58,3,3,0,0,0-2.21,0,2.44,2.44,0,0,0-.83.58,2.56,2.56,0,0,0-.53.88A3.3,3.3,0,0,0,106,504.62Z" transform="translate(-4.1 -0.71)" fill="#58595b"/><path d="M126.9,505.18h-8.5v-1.33h8.5Z" transform="translate(-4.1 -0.71)" fill="#58595b"/><path d="M133.17,496.61h1.63v12h-1.63Z" transform="translate(-4.1 -0.71)" fill="#58595b"/><path d="M138.7,500.79H137.3l1.17-4.18h1.63Z" transform="translate(-4.1 -0.71)" fill="#58595b"/><path d="M150.31,508.65h-1.53v-1.16h0a2.91,2.91,0,0,1-1.22,1,3.75,3.75,0,0,1-1.59.36,4.28,4.28,0,0,1-1.69-.32,3.74,3.74,0,0,1-1.29-.9,4.07,4.07,0,0,1-.82-1.34,4.67,4.67,0,0,1-.29-1.67,4.74,4.74,0,0,1,.29-1.67,4,4,0,0,1,.82-1.34,3.81,3.81,0,0,1,1.29-.89,4.28,4.28,0,0,1,1.69-.32,3.75,3.75,0,0,1,1.63.37,2.8,2.8,0,0,1,1.17,1h0v-5.95h1.53Zm-4.18-1.22a2.76,2.76,0,0,0,1.1-.21,2.43,2.43,0,0,0,.83-.58,2.55,2.55,0,0,0,.53-.88,3.51,3.51,0,0,0,0-2.26,2.56,2.56,0,0,0-.53-.88,2.44,2.44,0,0,0-.83-.58,3,3,0,0,0-2.21,0,2.44,2.44,0,0,0-.83.58,2.56,2.56,0,0,0-.53.88,3.51,3.51,0,0,0,0,2.26,2.54,2.54,0,0,0,.53.88,2.43,2.43,0,0,0,.83.58A2.77,2.77,0,0,0,146.13,507.42Z" transform="translate(-4.1 -0.71)" fill="#58595b"/><path d="M157.34,495.79h1.53v5.95h0a2.79,2.79,0,0,1,1.17-1,3.74,3.74,0,0,1,1.63-.37,4.28,4.28,0,0,1,1.69.32,3.81,3.81,0,0,1,1.29.89,4,4,0,0,1,.82,1.34,4.75,4.75,0,0,1,.29,1.67,4.68,4.68,0,0,1-.29,1.67,4.07,4.07,0,0,1-.82,1.34,3.74,3.74,0,0,1-1.29.9,4.28,4.28,0,0,1-1.69.32,3.75,3.75,0,0,1-1.59-.36,2.9,2.9,0,0,1-1.22-1h0v1.16h-1.53Zm4.18,11.63a2.76,2.76,0,0,0,1.1-.21,2.43,2.43,0,0,0,.83-.58,2.55,2.55,0,0,0,.53-.88,3.51,3.51,0,0,0,0-2.26,2.56,2.56,0,0,0-.53-.88,2.44,2.44,0,0,0-.83-.58,3,3,0,0,0-2.21,0,2.44,2.44,0,0,0-.83.58,2.56,2.56,0,0,0-.53.88,3.51,3.51,0,0,0,0,2.26,2.54,2.54,0,0,0,.53.88,2.43,2.43,0,0,0,.83.58A2.77,2.77,0,0,0,161.53,507.42Z" transform="translate(-4.1 -0.71)" fill="#58595b"/><path d="M168.89,505.18a2,2,0,0,0,.23,1,2.39,2.39,0,0,0,.6.74,2.8,2.8,0,0,0,.87.48,3.11,3.11,0,0,0,1,.17,2.28,2.28,0,0,0,1.24-.33,4,4,0,0,0,1-.88l1.16.88a4.25,4.25,0,0,1-3.57,1.65,4.45,4.45,0,0,1-1.73-.32,3.74,3.74,0,0,1-1.31-.89,4,4,0,0,1-.82-1.34,4.74,4.74,0,0,1-.29-1.67,4.39,4.39,0,0,1,.31-1.67,4.16,4.16,0,0,1,.87-1.34,4,4,0,0,1,1.32-.89,4.25,4.25,0,0,1,1.67-.32,4,4,0,0,1,1.81.37,3.57,3.57,0,0,1,1.22,1,3.87,3.87,0,0,1,.69,1.36,5.67,5.67,0,0,1,.21,1.54v.54Zm4.83-1.22a3.24,3.24,0,0,0-.16-.93,2.06,2.06,0,0,0-.43-.74,2,2,0,0,0-.72-.49,2.64,2.64,0,0,0-1-.18,2.46,2.46,0,0,0-1,.21,2.49,2.49,0,0,0-.79.55,2.55,2.55,0,0,0-.5.76,2.08,2.08,0,0,0-.18.82Z" transform="translate(-4.1 -0.71)" fill="#58595b"/><path d="M180.94,500.59h1.77l2.41,6.17,2.31-6.17h1.63l-3.16,8.06h-1.68Z" transform="translate(-4.1 -0.71)" fill="#58595b"/><path d="M191.57,505.18a2,2,0,0,0,.23,1,2.39,2.39,0,0,0,.6.74,2.8,2.8,0,0,0,.87.48,3.11,3.11,0,0,0,1,.17,2.28,2.28,0,0,0,1.24-.33,4,4,0,0,0,1-.88l1.16.88a4.25,4.25,0,0,1-3.57,1.65,4.45,4.45,0,0,1-1.73-.32,3.74,3.74,0,0,1-1.31-.89,4,4,0,0,1-.82-1.34,4.74,4.74,0,0,1-.29-1.67,4.39,4.39,0,0,1,.31-1.67,4.16,4.16,0,0,1,.87-1.34,4,4,0,0,1,1.32-.89,4.25,4.25,0,0,1,1.67-.32,4,4,0,0,1,1.81.37,3.57,3.57,0,0,1,1.22,1,3.87,3.87,0,0,1,.69,1.36,5.67,5.67,0,0,1,.21,1.54v.54Zm4.83-1.22a3.24,3.24,0,0,0-.16-.93,2.06,2.06,0,0,0-.43-.74,2,2,0,0,0-.72-.49,2.64,2.64,0,0,0-1-.18,2.46,2.46,0,0,0-1,.21,2.49,2.49,0,0,0-.79.55,2.55,2.55,0,0,0-.5.76,2.08,2.08,0,0,0-.18.82Z" transform="translate(-4.1 -0.71)" fill="#58595b"/><path d="M199.86,500.59h1.53v1.24h0a2.18,2.18,0,0,1,.41-.59,2.72,2.72,0,0,1,.57-.45,3,3,0,0,1,.69-.3,2.64,2.64,0,0,1,.75-.11,2.16,2.16,0,0,1,.68.1l-.07,1.65-.37-.08a2.11,2.11,0,0,0-.37,0,2.25,2.25,0,0,0-1.72.63,2.76,2.76,0,0,0-.59,2v4h-1.53Z" transform="translate(-4.1 -0.71)" fill="#58595b"/><path d="M205.2,500.59H207l2.39,6.29h0l2.29-6.29h1.63l-3.83,9.79a10.31,10.31,0,0,1-.42,1,2.87,2.87,0,0,1-.52.74,2.12,2.12,0,0,1-.74.48,2.9,2.9,0,0,1-1.06.17,5.65,5.65,0,0,1-.69,0,2.5,2.5,0,0,1-.67-.18l.19-1.39a2.38,2.38,0,0,0,.91.19,1.68,1.68,0,0,0,.6-.09,1.18,1.18,0,0,0,.42-.27,1.57,1.57,0,0,0,.3-.42c.08-.16.16-.34.24-.54l.5-1.28Z" transform="translate(-4.1 -0.71)" fill="#58595b"/><path d="M225.14,502.73a3.22,3.22,0,0,0-.89-.67,2.51,2.51,0,0,0-1.11-.23,2.47,2.47,0,0,0-1.1.23,2.25,2.25,0,0,0-.78.63,2.82,2.82,0,0,0-.48.92,3.58,3.58,0,0,0-.16,1.08,3,3,0,0,0,.19,1.06,2.66,2.66,0,0,0,.53.88,2.42,2.42,0,0,0,.82.59,2.6,2.6,0,0,0,1.07.21,2.45,2.45,0,0,0,1.1-.23,2.83,2.83,0,0,0,.85-.67l1.09,1.09a3.42,3.42,0,0,1-1.39,1,4.85,4.85,0,0,1-1.67.29,4.62,4.62,0,0,1-1.71-.31,3.94,3.94,0,0,1-1.33-.86,3.79,3.79,0,0,1-.87-1.33,4.62,4.62,0,0,1-.31-1.71,4.69,4.69,0,0,1,.31-1.72,3.84,3.84,0,0,1,2.18-2.22,4.56,4.56,0,0,1,1.73-.31,4.63,4.63,0,0,1,1.69.31,3.74,3.74,0,0,1,1.4,1Z" transform="translate(-4.1 -0.71)" fill="#58595b"/><path d="M234.71,508.65h-1.53V507.4h0a2.26,2.26,0,0,1-1,1,3.33,3.33,0,0,1-1.65.4,3.47,3.47,0,0,1-1.12-.18,2.51,2.51,0,0,1-.93-.55,2.65,2.65,0,0,1-.64-1,3.66,3.66,0,0,1-.24-1.39v-5.18h1.53v4.76a2.69,2.69,0,0,0,.15,1,1.76,1.76,0,0,0,.41.65,1.52,1.52,0,0,0,.59.36,2.15,2.15,0,0,0,.69.11,2.51,2.51,0,0,0,.88-.15,1.84,1.84,0,0,0,.71-.48,2.3,2.3,0,0,0,.48-.84,3.86,3.86,0,0,0,.17-1.21v-4.15h1.53Z" transform="translate(-4.1 -0.71)" fill="#58595b"/><path d="M237,500.59h1.53v1.24h0a2.18,2.18,0,0,1,.41-.59,2.72,2.72,0,0,1,.57-.45,3,3,0,0,1,.69-.3,2.64,2.64,0,0,1,.75-.11,2.16,2.16,0,0,1,.68.1l-.07,1.65-.37-.08a2.11,2.11,0,0,0-.37,0,2.25,2.25,0,0,0-1.72.63,2.76,2.76,0,0,0-.59,2v4H237Z" transform="translate(-4.1 -0.71)" fill="#58595b"/><path d="M243.08,497.7a1.13,1.13,0,1,1,.33.79A1.08,1.08,0,0,1,243.08,497.7Zm.36,2.89H245v8.06h-1.53Z" transform="translate(-4.1 -0.71)" fill="#58595b"/><path d="M247,504.62a4.11,4.11,0,0,1,.33-1.65,4.3,4.3,0,0,1,.91-1.34,4.33,4.33,0,0,1,6.09,0,4.3,4.3,0,0,1,.91,1.34,4.11,4.11,0,0,1,.33,1.65,4.18,4.18,0,0,1-1.24,3,4.31,4.31,0,0,1-1.36.9,4.43,4.43,0,0,1-3.37,0,4.31,4.31,0,0,1-1.36-.9,4.19,4.19,0,0,1-1.24-3Zm1.63,0a3.3,3.3,0,0,0,.19,1.13,2.55,2.55,0,0,0,.53.88,2.43,2.43,0,0,0,.83.58,3,3,0,0,0,2.21,0,2.44,2.44,0,0,0,.83-.58,2.55,2.55,0,0,0,.53-.88,3.52,3.52,0,0,0,0-2.26,2.56,2.56,0,0,0-.53-.88,2.45,2.45,0,0,0-.83-.58,3,3,0,0,0-2.21,0,2.44,2.44,0,0,0-.83.58,2.56,2.56,0,0,0-.53.88A3.3,3.3,0,0,0,248.64,504.62Z" transform="translate(-4.1 -0.71)" fill="#58595b"/><path d="M264.63,508.65H263.1V507.4h0a2.26,2.26,0,0,1-1,1,3.33,3.33,0,0,1-1.65.4,3.47,3.47,0,0,1-1.12-.18,2.51,2.51,0,0,1-.93-.55,2.65,2.65,0,0,1-.64-1,3.66,3.66,0,0,1-.24-1.39v-5.18H259v4.76a2.69,2.69,0,0,0,.15,1,1.76,1.76,0,0,0,.41.65,1.52,1.52,0,0,0,.59.36,2.15,2.15,0,0,0,.69.11,2.51,2.51,0,0,0,.88-.15,1.84,1.84,0,0,0,.71-.48,2.3,2.3,0,0,0,.48-.84,3.86,3.86,0,0,0,.17-1.21v-4.15h1.53Z" transform="translate(-4.1 -0.71)" fill="#58595b"/><path d="M271.23,502.61a2.35,2.35,0,0,0-.67-.57,1.93,1.93,0,0,0-1-.23,1.86,1.86,0,0,0-.94.23.73.73,0,0,0-.4.67.76.76,0,0,0,.23.58,1.81,1.81,0,0,0,.54.36,3.16,3.16,0,0,0,.67.2l.61.12a7.06,7.06,0,0,1,.93.29,2.58,2.58,0,0,1,.75.44,1.92,1.92,0,0,1,.49.66,2.28,2.28,0,0,1,.18,1,2.24,2.24,0,0,1-.29,1.17,2.45,2.45,0,0,1-.75.79,3.15,3.15,0,0,1-1,.44,5.26,5.26,0,0,1-1.18.14,4.68,4.68,0,0,1-1.76-.31,3.16,3.16,0,0,1-1.35-1.12l1.16-1a4.85,4.85,0,0,0,.83.66,2.07,2.07,0,0,0,1.12.29,3,3,0,0,0,.59-.06,1.83,1.83,0,0,0,.53-.19,1.16,1.16,0,0,0,.37-.32.74.74,0,0,0,.14-.45.78.78,0,0,0-.21-.56,1.54,1.54,0,0,0-.51-.35,3.73,3.73,0,0,0-.63-.2l-.59-.13q-.49-.12-.93-.27a2.86,2.86,0,0,1-.78-.41,1.87,1.87,0,0,1-.54-.65,2.07,2.07,0,0,1-.2-1,2.2,2.2,0,0,1,.26-1.1,2.33,2.33,0,0,1,.7-.77,3.19,3.19,0,0,1,1-.46,4.17,4.17,0,0,1,1.11-.15,4.09,4.09,0,0,1,1.56.31,2.48,2.48,0,0,1,1.19,1Z" transform="translate(-4.1 -0.71)" fill="#58595b"/><path d="M67.27,496.61h4.49a11.42,11.42,0,0,1,1.57.11,4.32,4.32,0,0,1,1.42.44,2.72,2.72,0,0,1,1,.93,2.84,2.84,0,0,1,.39,1.58,2.52,2.52,0,0,1-.57,1.69,3.13,3.13,0,0,1-1.5,1v0a3.44,3.44,0,0,1,1.08.33,2.89,2.89,0,0,1,.83.63,2.67,2.67,0,0,1,.54.89,3.12,3.12,0,0,1,.19,1.09,2.89,2.89,0,0,1-.41,1.59,3.2,3.2,0,0,1-1.05,1,4.6,4.6,0,0,1-1.45.56,7.79,7.79,0,0,1-1.61.17H67.27Zm2.65,4.81h1.92a2.72,2.72,0,0,0,.6-.07,1.67,1.67,0,0,0,.54-.22,1.15,1.15,0,0,0,.38-.41,1.22,1.22,0,0,0,.14-.61,1.11,1.11,0,0,0-.16-.62,1.12,1.12,0,0,0-.42-.38,2,2,0,0,0-.58-.2,3.44,3.44,0,0,0-.63-.06h-1.8Zm0,5H72.3a3,3,0,0,0,.62-.07,1.65,1.65,0,0,0,.57-.24,1.34,1.34,0,0,0,.42-.44,1.27,1.27,0,0,0,.16-.66,1.06,1.06,0,0,0-.21-.69,1.35,1.35,0,0,0-.54-.4,2.71,2.71,0,0,0-.7-.19,5.16,5.16,0,0,0-.7-.05h-2Z" transform="translate(-4.1 -0.71)" fill="#c88ad7"/><path d="M78,507.18a1.6,1.6,0,0,1,.12-.61,1.51,1.51,0,0,1,.83-.83,1.63,1.63,0,0,1,1.22,0,1.51,1.51,0,0,1,.83.83,1.63,1.63,0,0,1,0,1.22,1.51,1.51,0,0,1-.83.83,1.64,1.64,0,0,1-1.22,0,1.51,1.51,0,0,1-.83-.83A1.6,1.6,0,0,1,78,507.18Z" transform="translate(-4.1 -0.71)" fill="#c88ad7"/><path d="M335.93,529.06H63.35v-.26a24.89,24.89,0,0,1,0-49.48v-.16l272.59,0a24.89,24.89,0,0,1,0,49.69Zm-271.59-1H334.93V528l.48,0a23.89,23.89,0,0,0,0-47.74l-.48,0H64.35v.06l-.45,0a23.89,23.89,0,0,0,0,47.58l.45,0Z" transform="translate(-4.1 -0.71)" fill="#c88ad7"/><path d="M358.83,564a24.39,24.39,0,0,0-23.4-24.37v0H63.85v.11a24.39,24.39,0,0,0,0,48.58v.21H335.43v-.13A24.39,24.39,0,0,0,358.83,564Z" transform="translate(-4.1 -0.71)" fill="#c88ad7"/><path d="M335.93,589H63.35v-.26a24.89,24.89,0,0,1,0-49.48v-.16l272.59,0a24.89,24.89,0,0,1,0,49.69ZM64.35,588H334.93v-.11l.48,0a23.89,23.89,0,0,0,0-47.74l-.48,0H64.35v.06l-.45,0a23.89,23.89,0,0,0,0,47.58l.45,0Z" transform="translate(-4.1 -0.71)" fill="#c88ad7"/><path d="M94.43,623.35l-4.56-6.9H92l3.28,5.29,3.38-5.29h2l-4.56,6.9v5.13H94.43Z" transform="translate(-4.1 -0.71)" fill="#58595b"/><path d="M100.87,625a2,2,0,0,0,.23,1,2.39,2.39,0,0,0,.6.74,2.8,2.8,0,0,0,.87.48,3.11,3.11,0,0,0,1,.17,2.28,2.28,0,0,0,1.24-.33,4,4,0,0,0,1-.88L107,627a4.25,4.25,0,0,1-3.57,1.65,4.45,4.45,0,0,1-1.73-.32,3.74,3.74,0,0,1-1.31-.89,4,4,0,0,1-.82-1.34,4.74,4.74,0,0,1-.29-1.67,4.39,4.39,0,0,1,.31-1.67,4.16,4.16,0,0,1,.87-1.34,4,4,0,0,1,1.32-.89,4.25,4.25,0,0,1,1.67-.32,4,4,0,0,1,1.81.37,3.57,3.57,0,0,1,1.22,1,3.87,3.87,0,0,1,.69,1.36,5.67,5.67,0,0,1,.21,1.54V625Zm4.83-1.22a3.24,3.24,0,0,0-.16-.93,2.06,2.06,0,0,0-.43-.74,2,2,0,0,0-.72-.49,2.64,2.64,0,0,0-1-.18,2.46,2.46,0,0,0-1,.21,2.49,2.49,0,0,0-.79.55,2.55,2.55,0,0,0-.5.76,2.08,2.08,0,0,0-.18.82Z" transform="translate(-4.1 -0.71)" fill="#58595b"/><path d="M113.45,622.45a2.35,2.35,0,0,0-.67-.57,1.93,1.93,0,0,0-1-.23,1.86,1.86,0,0,0-.94.23.73.73,0,0,0-.4.67.76.76,0,0,0,.23.58,1.81,1.81,0,0,0,.54.36,3.15,3.15,0,0,0,.67.2l.61.12a7.08,7.08,0,0,1,.93.29,2.58,2.58,0,0,1,.75.44,1.92,1.92,0,0,1,.49.66,2.28,2.28,0,0,1,.18,1,2.24,2.24,0,0,1-.29,1.17,2.44,2.44,0,0,1-.75.79,3.15,3.15,0,0,1-1,.44,5.26,5.26,0,0,1-1.18.14,4.68,4.68,0,0,1-1.76-.31,3.17,3.17,0,0,1-1.35-1.12l1.16-1a4.83,4.83,0,0,0,.83.66,2.07,2.07,0,0,0,1.12.29,3,3,0,0,0,.59-.06,1.83,1.83,0,0,0,.53-.19,1.15,1.15,0,0,0,.37-.32.74.74,0,0,0,.14-.45.78.78,0,0,0-.21-.56,1.54,1.54,0,0,0-.51-.35,3.72,3.72,0,0,0-.63-.2l-.59-.13q-.49-.12-.93-.27a2.86,2.86,0,0,1-.78-.41,1.87,1.87,0,0,1-.54-.65,2.08,2.08,0,0,1-.2-1,2.2,2.2,0,0,1,.26-1.1,2.34,2.34,0,0,1,.7-.77,3.18,3.18,0,0,1,1-.46,4.17,4.17,0,0,1,1.11-.15,4.09,4.09,0,0,1,1.56.31,2.48,2.48,0,0,1,1.19,1Z" transform="translate(-4.1 -0.71)" fill="#58595b"/><path d="M128.79,625h-8.5v-1.33h8.5Z" transform="translate(-4.1 -0.71)" fill="#58595b"/><path d="M135.06,616.45h1.63v12h-1.63Z" transform="translate(-4.1 -0.71)" fill="#58595b"/><path d="M148.44,621.75h-2.19v3.66q0,.34,0,.67a1.76,1.76,0,0,0,.13.59,1,1,0,0,0,.34.42,1.16,1.16,0,0,0,.67.16,3.22,3.22,0,0,0,.56-.05,1.6,1.6,0,0,0,.53-.19v1.39a2,2,0,0,1-.71.21,5.41,5.41,0,0,1-.67.06,3.07,3.07,0,0,1-1.37-.25,1.68,1.68,0,0,1-.71-.64,2.07,2.07,0,0,1-.27-.88c0-.32,0-.65,0-1v-4.2h-1.77v-1.33h1.77v-2.26h1.53v2.26h2.19Z" transform="translate(-4.1 -0.71)" fill="#58595b"/><path d="M150.41,615.63h1.53v6h0a2.25,2.25,0,0,1,1-1,3.32,3.32,0,0,1,1.65-.4,3.52,3.52,0,0,1,1.11.18,2.52,2.52,0,0,1,.94.55,2.68,2.68,0,0,1,.64,1,3.67,3.67,0,0,1,.24,1.39v5.18H156v-4.76a2.69,2.69,0,0,0-.15-1,1.75,1.75,0,0,0-.41-.65,1.54,1.54,0,0,0-.59-.36,2.18,2.18,0,0,0-.69-.11,2.49,2.49,0,0,0-.88.15,1.83,1.83,0,0,0-.71.48,2.28,2.28,0,0,0-.48.84,3.84,3.84,0,0,0-.17,1.21v4.15h-1.53Z" transform="translate(-4.1 -0.71)" fill="#58595b"/><path d="M159.62,617.53a1.13,1.13,0,1,1,.33.79A1.08,1.08,0,0,1,159.62,617.53Zm.36,2.89h1.53v8.06H160Z" transform="translate(-4.1 -0.71)" fill="#58595b"/><path d="M163.94,620.42h1.53v1.24h0a2.25,2.25,0,0,1,1-1,3.32,3.32,0,0,1,1.65-.4,3.52,3.52,0,0,1,1.11.18,2.52,2.52,0,0,1,.94.55,2.68,2.68,0,0,1,.64,1,3.67,3.67,0,0,1,.24,1.39v5.18h-1.53v-4.76a2.69,2.69,0,0,0-.15-1,1.75,1.75,0,0,0-.41-.65,1.54,1.54,0,0,0-.59-.36,2.18,2.18,0,0,0-.69-.11,2.49,2.49,0,0,0-.88.15,1.83,1.83,0,0,0-.71.48,2.28,2.28,0,0,0-.48.84,3.84,3.84,0,0,0-.17,1.21v4.15h-1.53Z" transform="translate(-4.1 -0.71)" fill="#58595b"/><path d="M173.39,615.63h1.53v8.3l3.47-3.49h2.13l-3.76,3.66,4.08,4.39h-2.18l-3.74-4.18v4.18h-1.53Z" transform="translate(-4.1 -0.71)" fill="#58595b"/><path d="M186.7,617.53a1.13,1.13,0,1,1,.33.79A1.08,1.08,0,0,1,186.7,617.53Zm.36,2.89h1.53v8.06h-1.53Z" transform="translate(-4.1 -0.71)" fill="#58595b"/><path d="M195.34,621.75h-2.19v3.66q0,.34,0,.67a1.76,1.76,0,0,0,.13.59,1,1,0,0,0,.34.42,1.16,1.16,0,0,0,.67.16,3.22,3.22,0,0,0,.56-.05,1.6,1.6,0,0,0,.53-.19v1.39a2,2,0,0,1-.71.21,5.41,5.41,0,0,1-.67.06,3.07,3.07,0,0,1-1.37-.25,1.68,1.68,0,0,1-.71-.64,2.07,2.07,0,0,1-.27-.88c0-.32,0-.65,0-1v-4.2h-1.77v-1.33h1.77v-2.26h1.53v2.26h2.19Z" transform="translate(-4.1 -0.71)" fill="#58595b"/><path d="M201.07,620.42h1.72l1.81,6h0l1.93-6h1.63l2,6h0l1.72-6h1.63l-2.6,8.06h-1.55l-2.13-6h0l-1.95,6h-1.63Z" transform="translate(-4.1 -0.71)" fill="#58595b"/><path d="M214.55,624.45a4.11,4.11,0,0,1,.33-1.65,4.3,4.3,0,0,1,.91-1.34,4.33,4.33,0,0,1,6.09,0,4.3,4.3,0,0,1,.91,1.34,4.11,4.11,0,0,1,.33,1.65,4.18,4.18,0,0,1-1.24,3,4.31,4.31,0,0,1-1.36.9,4.43,4.43,0,0,1-3.37,0,4.31,4.31,0,0,1-1.36-.9,4.19,4.19,0,0,1-1.24-3Zm1.63,0a3.3,3.3,0,0,0,.19,1.13,2.55,2.55,0,0,0,.53.88,2.43,2.43,0,0,0,.83.58,3,3,0,0,0,2.21,0,2.44,2.44,0,0,0,.83-.58,2.55,2.55,0,0,0,.53-.88,3.52,3.52,0,0,0,0-2.26,2.56,2.56,0,0,0-.53-.88,2.45,2.45,0,0,0-.83-.58,3,3,0,0,0-2.21,0,2.44,2.44,0,0,0-.83.58,2.56,2.56,0,0,0-.53.88A3.3,3.3,0,0,0,216.18,624.45Z" transform="translate(-4.1 -0.71)" fill="#58595b"/><path d="M232.18,628.48h-1.53v-1.24h0a2.26,2.26,0,0,1-1,1,3.33,3.33,0,0,1-1.65.4,3.47,3.47,0,0,1-1.12-.18,2.51,2.51,0,0,1-.93-.55,2.65,2.65,0,0,1-.64-1,3.66,3.66,0,0,1-.24-1.39v-5.18h1.53v4.76a2.69,2.69,0,0,0,.15,1,1.76,1.76,0,0,0,.41.65,1.52,1.52,0,0,0,.59.36,2.15,2.15,0,0,0,.69.11,2.51,2.51,0,0,0,.88-.15,1.84,1.84,0,0,0,.71-.48,2.3,2.3,0,0,0,.48-.84,3.86,3.86,0,0,0,.17-1.21v-4.15h1.53Z" transform="translate(-4.1 -0.71)" fill="#58595b"/><path d="M234.61,615.63h1.53v12.85h-1.53Z" transform="translate(-4.1 -0.71)" fill="#58595b"/><path d="M246.65,628.48h-1.53v-1.16h0a2.91,2.91,0,0,1-1.21,1,3.76,3.76,0,0,1-1.59.36,4.27,4.27,0,0,1-1.69-.32,3.73,3.73,0,0,1-1.29-.9,4.06,4.06,0,0,1-.82-1.34,4.66,4.66,0,0,1-.29-1.67,4.73,4.73,0,0,1,.29-1.67,4,4,0,0,1,.82-1.34,3.8,3.8,0,0,1,1.29-.89,4.27,4.27,0,0,1,1.69-.32,3.74,3.74,0,0,1,1.63.37,2.79,2.79,0,0,1,1.17,1h0v-5.95h1.53Zm-4.18-1.22a2.77,2.77,0,0,0,1.11-.21,2.44,2.44,0,0,0,.83-.58,2.55,2.55,0,0,0,.53-.88,3.52,3.52,0,0,0,0-2.26,2.56,2.56,0,0,0-.53-.88,2.45,2.45,0,0,0-.83-.58,3,3,0,0,0-2.21,0,2.44,2.44,0,0,0-.83.58,2.56,2.56,0,0,0-.53.88,3.52,3.52,0,0,0,0,2.26,2.55,2.55,0,0,0,.53.88,2.43,2.43,0,0,0,.83.58A2.76,2.76,0,0,0,242.46,627.26Z" transform="translate(-4.1 -0.71)" fill="#58595b"/><path d="M253.68,615.63h1.53v5.95h0a2.8,2.8,0,0,1,1.17-1,3.74,3.74,0,0,1,1.63-.37,4.27,4.27,0,0,1,1.69.32,3.8,3.8,0,0,1,1.29.89,4,4,0,0,1,.83,1.34,4.75,4.75,0,0,1,.29,1.67,4.68,4.68,0,0,1-.29,1.67,4.08,4.08,0,0,1-.83,1.34,3.73,3.73,0,0,1-1.29.9,4.27,4.27,0,0,1-1.69.32,3.75,3.75,0,0,1-1.59-.36,2.91,2.91,0,0,1-1.22-1h0v1.16h-1.53Zm4.18,11.63A2.76,2.76,0,0,0,259,627a2.43,2.43,0,0,0,.83-.58,2.55,2.55,0,0,0,.53-.88,3.5,3.5,0,0,0,0-2.26,2.56,2.56,0,0,0-.53-.88,2.44,2.44,0,0,0-.83-.58,3,3,0,0,0-2.21,0,2.45,2.45,0,0,0-.83.58,2.55,2.55,0,0,0-.53.88,3.5,3.5,0,0,0,0,2.26,2.53,2.53,0,0,0,.53.88,2.44,2.44,0,0,0,.83.58A2.77,2.77,0,0,0,257.87,627.26Z" transform="translate(-4.1 -0.71)" fill="#58595b"/><path d="M265.23,625a2,2,0,0,0,.23,1,2.4,2.4,0,0,0,.6.74,2.8,2.8,0,0,0,.87.48,3.11,3.11,0,0,0,1,.17,2.28,2.28,0,0,0,1.24-.33,4,4,0,0,0,1-.88l1.16.88a4.25,4.25,0,0,1-3.57,1.65,4.45,4.45,0,0,1-1.73-.32,3.75,3.75,0,0,1-1.31-.89,4,4,0,0,1-.82-1.34,4.75,4.75,0,0,1-.29-1.67,4.39,4.39,0,0,1,.31-1.67,4.17,4.17,0,0,1,.87-1.34,4,4,0,0,1,1.32-.89,4.25,4.25,0,0,1,1.67-.32,4,4,0,0,1,1.81.37,3.57,3.57,0,0,1,1.22,1,3.89,3.89,0,0,1,.69,1.36,5.67,5.67,0,0,1,.21,1.54V625Zm4.83-1.22a3.26,3.26,0,0,0-.16-.93,2.07,2.07,0,0,0-.43-.74,2,2,0,0,0-.72-.49,2.64,2.64,0,0,0-1-.18,2.46,2.46,0,0,0-1,.21,2.5,2.5,0,0,0-.79.55,2.56,2.56,0,0,0-.5.76,2.08,2.08,0,0,0-.18.82Z" transform="translate(-4.1 -0.71)" fill="#58595b"/><path d="M278.25,615.63h1.53v6h0a2.25,2.25,0,0,1,1-1,3.31,3.31,0,0,1,1.65-.4,3.52,3.52,0,0,1,1.11.18,2.52,2.52,0,0,1,.94.55,2.68,2.68,0,0,1,.64,1,3.68,3.68,0,0,1,.24,1.39v5.18h-1.53v-4.76a2.7,2.7,0,0,0-.15-1,1.75,1.75,0,0,0-.41-.65,1.54,1.54,0,0,0-.59-.36,2.18,2.18,0,0,0-.69-.11,2.49,2.49,0,0,0-.88.15,1.83,1.83,0,0,0-.71.48,2.28,2.28,0,0,0-.48.84,3.84,3.84,0,0,0-.17,1.21v4.15h-1.53Z" transform="translate(-4.1 -0.71)" fill="#58595b"/><path d="M287.31,624.45a4.11,4.11,0,0,1,.33-1.65,4.3,4.3,0,0,1,.91-1.34,4.33,4.33,0,0,1,6.09,0,4.3,4.3,0,0,1,.91,1.34,4.11,4.11,0,0,1,.33,1.65,4.18,4.18,0,0,1-1.24,3,4.31,4.31,0,0,1-1.36.9,4.43,4.43,0,0,1-3.37,0,4.31,4.31,0,0,1-1.36-.9,4.19,4.19,0,0,1-1.24-3Zm1.63,0a3.3,3.3,0,0,0,.19,1.13,2.55,2.55,0,0,0,.53.88,2.43,2.43,0,0,0,.83.58,3,3,0,0,0,2.21,0,2.44,2.44,0,0,0,.83-.58,2.55,2.55,0,0,0,.53-.88,3.52,3.52,0,0,0,0-2.26,2.56,2.56,0,0,0-.53-.88,2.45,2.45,0,0,0-.83-.58,3,3,0,0,0-2.21,0,2.44,2.44,0,0,0-.83.58,2.56,2.56,0,0,0-.53.88A3.3,3.3,0,0,0,288.94,624.45Z" transform="translate(-4.1 -0.71)" fill="#58595b"/><path d="M302.12,621.75h-2.19v3.66q0,.34,0,.67a1.76,1.76,0,0,0,.13.59,1,1,0,0,0,.34.42,1.16,1.16,0,0,0,.67.16,3.21,3.21,0,0,0,.56-.05,1.61,1.61,0,0,0,.53-.19v1.39a2,2,0,0,1-.71.21,5.41,5.41,0,0,1-.67.06,3.07,3.07,0,0,1-1.37-.25,1.68,1.68,0,0,1-.71-.64,2.07,2.07,0,0,1-.27-.88c0-.32,0-.65,0-1v-4.2h-1.77v-1.33h1.77v-2.26h1.53v2.26h2.19Z" transform="translate(-4.1 -0.71)" fill="#58595b"/><path d="M67.27,616.45h4a11.38,11.38,0,0,1,2.75.32,6.28,6.28,0,0,1,2.27,1,5.13,5.13,0,0,1,1.54,1.88,6.3,6.3,0,0,1,.57,2.8,5.73,5.73,0,0,1-.55,2.58,5.55,5.55,0,0,1-1.49,1.87,6.59,6.59,0,0,1-2.16,1.15,8.38,8.38,0,0,1-2.57.39H67.27ZM69.92,626h1.38a7.39,7.39,0,0,0,1.71-.19,3.66,3.66,0,0,0,1.37-.62,3,3,0,0,0,.91-1.14,4,4,0,0,0,.33-1.73,3.36,3.36,0,0,0-.33-1.54,3.08,3.08,0,0,0-.89-1.08,3.93,3.93,0,0,0-1.32-.64,5.89,5.89,0,0,0-1.59-.21H69.92Z" transform="translate(-4.1 -0.71)" fill="#c88ad7"/><path d="M79.9,627a1.6,1.6,0,0,1,.12-.61,1.51,1.51,0,0,1,.83-.83,1.63,1.63,0,0,1,1.22,0,1.51,1.51,0,0,1,.83.83,1.63,1.63,0,0,1,0,1.22,1.51,1.51,0,0,1-.83.83,1.64,1.64,0,0,1-1.22,0,1.51,1.51,0,0,1-.83-.83A1.6,1.6,0,0,1,79.9,627Z" transform="translate(-4.1 -0.71)" fill="#c88ad7"/><path d="M335.93,648.9H63.35v-.26a24.89,24.89,0,0,1,0-49.48V599l272.59,0a24.89,24.89,0,0,1,0,49.69Zm-271.59-1H334.93v-.11l.48,0a23.89,23.89,0,0,0,0-47.74l-.48,0H64.35v.06l-.45,0a23.89,23.89,0,0,0,0,47.58l.45,0Z" transform="translate(-4.1 -0.71)" fill="#c88ad7"/><path d="M75.14,559.66a2.6,2.6,0,0,0-1-.73,3.2,3.2,0,0,0-1.32-.25,3.29,3.29,0,0,0-2.49,1.1,3.77,3.77,0,0,0-.73,1.23,4.7,4.7,0,0,0,0,3.1,3.86,3.86,0,0,0,.72,1.22,3.29,3.29,0,0,0,1.08.81,3.13,3.13,0,0,0,1.33.29,3,3,0,0,0,1.44-.34,2.88,2.88,0,0,0,1-1l2.21,1.65a4.6,4.6,0,0,1-1.94,1.58,6,6,0,0,1-2.41.51,7.43,7.43,0,0,1-2.6-.44,6,6,0,0,1-2.06-1.27,5.75,5.75,0,0,1-1.35-2,7.32,7.32,0,0,1,0-5.24,5.75,5.75,0,0,1,1.35-2,6,6,0,0,1,2.06-1.27,7.43,7.43,0,0,1,2.6-.44,6.35,6.35,0,0,1,1.06.09,5.7,5.7,0,0,1,1.09.3,4.84,4.84,0,0,1,1,.54,4.13,4.13,0,0,1,.88.83Z" transform="translate(-4.1 -0.71)" fill="#fff"/><path d="M78.64,567.1a1.6,1.6,0,0,1,.12-.61,1.51,1.51,0,0,1,.83-.83,1.63,1.63,0,0,1,1.22,0,1.51,1.51,0,0,1,.83.83,1.63,1.63,0,0,1,0,1.22,1.51,1.51,0,0,1-.83.83,1.64,1.64,0,0,1-1.22,0,1.51,1.51,0,0,1-.83-.83A1.6,1.6,0,0,1,78.64,567.1Z" transform="translate(-4.1 -0.71)" fill="#fff"/><path d="M94.43,563.43l-4.56-6.9H92l3.28,5.29,3.38-5.29h2l-4.56,6.9v5.13H94.43Z" transform="translate(-4.1 -0.71)" fill="#fff"/><path d="M100.87,565.1a2,2,0,0,0,.23,1,2.39,2.39,0,0,0,.6.74,2.8,2.8,0,0,0,.87.48,3.11,3.11,0,0,0,1,.17,2.28,2.28,0,0,0,1.24-.33,4,4,0,0,0,1-.88l1.16.88a4.25,4.25,0,0,1-3.57,1.65,4.45,4.45,0,0,1-1.73-.32,3.74,3.74,0,0,1-1.31-.89,4,4,0,0,1-.82-1.34,4.74,4.74,0,0,1-.29-1.67,4.39,4.39,0,0,1,.31-1.67,4.16,4.16,0,0,1,.87-1.34,4,4,0,0,1,1.32-.89,4.25,4.25,0,0,1,1.67-.32,4,4,0,0,1,1.81.37,3.57,3.57,0,0,1,1.22,1,3.87,3.87,0,0,1,.69,1.36,5.67,5.67,0,0,1,.21,1.54v.54Zm4.83-1.22a3.24,3.24,0,0,0-.16-.93,2.06,2.06,0,0,0-.43-.74,2,2,0,0,0-.72-.49,2.64,2.64,0,0,0-1-.18,2.46,2.46,0,0,0-1,.21,2.49,2.49,0,0,0-.79.55,2.55,2.55,0,0,0-.5.76,2.08,2.08,0,0,0-.18.82Z" transform="translate(-4.1 -0.71)" fill="#fff"/><path d="M113.45,562.53a2.35,2.35,0,0,0-.67-.57,1.93,1.93,0,0,0-1-.23,1.86,1.86,0,0,0-.94.23.73.73,0,0,0-.4.67.76.76,0,0,0,.23.58,1.81,1.81,0,0,0,.54.36,3.15,3.15,0,0,0,.67.2l.61.12a7.08,7.08,0,0,1,.93.29,2.58,2.58,0,0,1,.75.44,1.92,1.92,0,0,1,.49.66,2.28,2.28,0,0,1,.18,1,2.24,2.24,0,0,1-.29,1.17,2.44,2.44,0,0,1-.75.79,3.15,3.15,0,0,1-1,.44,5.26,5.26,0,0,1-1.18.14,4.68,4.68,0,0,1-1.76-.31,3.17,3.17,0,0,1-1.35-1.12l1.16-1a4.83,4.83,0,0,0,.83.66,2.07,2.07,0,0,0,1.12.29,3,3,0,0,0,.59-.06,1.83,1.83,0,0,0,.53-.19,1.15,1.15,0,0,0,.37-.32.74.74,0,0,0,.14-.45.78.78,0,0,0-.21-.56,1.54,1.54,0,0,0-.51-.35,3.72,3.72,0,0,0-.63-.2l-.59-.13q-.49-.12-.93-.27a2.86,2.86,0,0,1-.78-.41,1.87,1.87,0,0,1-.54-.65,2.08,2.08,0,0,1-.2-1,2.2,2.2,0,0,1,.26-1.1,2.34,2.34,0,0,1,.7-.77,3.18,3.18,0,0,1,1-.46,4.17,4.17,0,0,1,1.11-.15,4.09,4.09,0,0,1,1.56.31,2.48,2.48,0,0,1,1.19,1Z" transform="translate(-4.1 -0.71)" fill="#fff"/><path d="M128.79,565.1h-8.5v-1.33h8.5Z" transform="translate(-4.1 -0.71)" fill="#fff"/><path d="M135.06,556.53h1.63v12h-1.63Z" transform="translate(-4.1 -0.71)" fill="#fff"/><path d="M143.15,560.51h1.72l1.81,6h0l1.93-6h1.63l2,6h0l1.72-6h1.63l-2.6,8.06h-1.55l-2.13-6h0l-1.95,6H145.8Z" transform="translate(-4.1 -0.71)" fill="#fff"/><path d="M156.63,564.53a4.1,4.1,0,0,1,.33-1.65,4.29,4.29,0,0,1,.91-1.34,4.33,4.33,0,0,1,6.09,0,4.3,4.3,0,0,1,.91,1.34,4.1,4.1,0,0,1,.33,1.65,4.19,4.19,0,0,1-1.24,3,4.31,4.31,0,0,1-1.36.9,4.43,4.43,0,0,1-3.37,0,4.3,4.3,0,0,1-1.36-.9,4.19,4.19,0,0,1-1.24-3Zm1.63,0a3.3,3.3,0,0,0,.19,1.13,2.54,2.54,0,0,0,.53.88,2.43,2.43,0,0,0,.83.58,3,3,0,0,0,2.21,0,2.43,2.43,0,0,0,.83-.58,2.55,2.55,0,0,0,.53-.88,3.51,3.51,0,0,0,0-2.26,2.56,2.56,0,0,0-.53-.88,2.44,2.44,0,0,0-.83-.58,3,3,0,0,0-2.21,0,2.44,2.44,0,0,0-.83.58,2.56,2.56,0,0,0-.53.88A3.3,3.3,0,0,0,158.26,564.53Z" transform="translate(-4.1 -0.71)" fill="#fff"/><path d="M174.26,568.56h-1.53v-1.24h0a2.26,2.26,0,0,1-1,1,3.33,3.33,0,0,1-1.65.4,3.47,3.47,0,0,1-1.12-.18A2.51,2.51,0,0,1,168,568a2.66,2.66,0,0,1-.64-1,3.67,3.67,0,0,1-.24-1.39v-5.18h1.53v4.76a2.68,2.68,0,0,0,.15,1,1.75,1.75,0,0,0,.41.65,1.53,1.53,0,0,0,.59.36,2.15,2.15,0,0,0,.69.11,2.51,2.51,0,0,0,.88-.15,1.84,1.84,0,0,0,.71-.48,2.29,2.29,0,0,0,.48-.84,3.84,3.84,0,0,0,.17-1.21v-4.15h1.53Z" transform="translate(-4.1 -0.71)" fill="#fff"/><path d="M176.69,555.71h1.53v12.85h-1.53Z" transform="translate(-4.1 -0.71)" fill="#fff"/><path d="M188.73,568.56H187.2v-1.16h0a2.91,2.91,0,0,1-1.22,1,3.75,3.75,0,0,1-1.59.36,4.28,4.28,0,0,1-1.69-.32,3.74,3.74,0,0,1-1.29-.9,4.07,4.07,0,0,1-.82-1.34,4.67,4.67,0,0,1-.29-1.67,4.74,4.74,0,0,1,.29-1.67,4,4,0,0,1,.82-1.34,3.81,3.81,0,0,1,1.29-.89,4.28,4.28,0,0,1,1.69-.32,3.75,3.75,0,0,1,1.63.37,2.8,2.8,0,0,1,1.17,1h0v-5.95h1.53Zm-4.18-1.22a2.76,2.76,0,0,0,1.1-.21,2.43,2.43,0,0,0,.83-.58,2.55,2.55,0,0,0,.53-.88,3.51,3.51,0,0,0,0-2.26,2.56,2.56,0,0,0-.53-.88,2.44,2.44,0,0,0-.83-.58,3,3,0,0,0-2.21,0,2.44,2.44,0,0,0-.83.58,2.56,2.56,0,0,0-.53.88,3.51,3.51,0,0,0,0,2.26,2.54,2.54,0,0,0,.53.88,2.43,2.43,0,0,0,.83.58A2.77,2.77,0,0,0,184.54,567.34Z" transform="translate(-4.1 -0.71)" fill="#fff"/><path d="M196.36,561.83h-1.73v-1.33h1.73v-1.8a3.86,3.86,0,0,1,.62-2.41,2.56,2.56,0,0,1,2.13-.79l.54,0a3.16,3.16,0,0,1,.6.1l-.17,1.36a2.25,2.25,0,0,0-.43-.12,2.71,2.71,0,0,0-.44,0,1.53,1.53,0,0,0-.68.13,1,1,0,0,0-.4.37,1.44,1.44,0,0,0-.19.57,6,6,0,0,0,0,.76v1.85h1.82v1.33h-1.84v6.73h-1.53Z" transform="translate(-4.1 -0.71)" fill="#fff"/><path d="M201.19,557.62a1.13,1.13,0,1,1,.33.79A1.08,1.08,0,0,1,201.19,557.62Zm.36,2.89h1.53v8.06h-1.53Z" transform="translate(-4.1 -0.71)" fill="#fff"/><path d="M205.51,560.51H207v1.24h0a2.25,2.25,0,0,1,1-1,3.31,3.31,0,0,1,1.65-.4,3.52,3.52,0,0,1,1.11.18,2.52,2.52,0,0,1,.94.55,2.68,2.68,0,0,1,.64,1,3.68,3.68,0,0,1,.24,1.39v5.18h-1.53V563.8a2.7,2.7,0,0,0-.15-1,1.75,1.75,0,0,0-.41-.65,1.54,1.54,0,0,0-.59-.36,2.18,2.18,0,0,0-.69-.11,2.49,2.49,0,0,0-.88.15,1.83,1.83,0,0,0-.71.48,2.28,2.28,0,0,0-.48.84,3.84,3.84,0,0,0-.17,1.21v4.15h-1.53Z" transform="translate(-4.1 -0.71)" fill="#fff"/><path d="M223,568.56H221.5v-1.16h0a2.91,2.91,0,0,1-1.21,1,3.76,3.76,0,0,1-1.59.36,4.27,4.27,0,0,1-1.69-.32,3.73,3.73,0,0,1-1.29-.9,4.06,4.06,0,0,1-.82-1.34,4.66,4.66,0,0,1-.29-1.67,4.73,4.73,0,0,1,.29-1.67,4,4,0,0,1,.82-1.34,3.8,3.8,0,0,1,1.29-.89,4.27,4.27,0,0,1,1.69-.32,3.74,3.74,0,0,1,1.63.37,2.79,2.79,0,0,1,1.17,1h0v-5.95H223Zm-4.18-1.22a2.77,2.77,0,0,0,1.11-.21,2.44,2.44,0,0,0,.83-.58,2.55,2.55,0,0,0,.53-.88,3.52,3.52,0,0,0,0-2.26,2.56,2.56,0,0,0-.53-.88,2.45,2.45,0,0,0-.83-.58,3,3,0,0,0-2.21,0,2.44,2.44,0,0,0-.83.58,2.56,2.56,0,0,0-.53.88,3.52,3.52,0,0,0,0,2.26,2.55,2.55,0,0,0,.53.88,2.43,2.43,0,0,0,.83.58A2.76,2.76,0,0,0,218.85,567.34Z" transform="translate(-4.1 -0.71)" fill="#fff"/><path d="M229.83,557.62a1.13,1.13,0,1,1,.33.79A1.08,1.08,0,0,1,229.83,557.62Zm.36,2.89h1.53v8.06h-1.53Z" transform="translate(-4.1 -0.71)" fill="#fff"/><path d="M238.47,561.83h-2.19v3.66q0,.34,0,.67a1.76,1.76,0,0,0,.13.59,1,1,0,0,0,.34.42,1.16,1.16,0,0,0,.67.16,3.21,3.21,0,0,0,.56-.05,1.61,1.61,0,0,0,.53-.19v1.39a2,2,0,0,1-.71.21,5.41,5.41,0,0,1-.67.06,3.07,3.07,0,0,1-1.37-.25,1.68,1.68,0,0,1-.71-.64,2.07,2.07,0,0,1-.27-.88c0-.32,0-.65,0-1v-4.2H233v-1.33h1.77v-2.26h1.53v2.26h2.19Z" transform="translate(-4.1 -0.71)" fill="#fff"/><path d="M244.2,560.51H246l2.41,6.17,2.31-6.17h1.63l-3.16,8.06h-1.68Z" transform="translate(-4.1 -0.71)" fill="#fff"/><path d="M254.82,565.1a2,2,0,0,0,.23,1,2.4,2.4,0,0,0,.6.74,2.8,2.8,0,0,0,.87.48,3.11,3.11,0,0,0,1,.17,2.28,2.28,0,0,0,1.24-.33,4,4,0,0,0,1-.88l1.16.88a4.25,4.25,0,0,1-3.57,1.65,4.45,4.45,0,0,1-1.73-.32,3.75,3.75,0,0,1-1.31-.89,4,4,0,0,1-.82-1.34,4.75,4.75,0,0,1-.29-1.67,4.39,4.39,0,0,1,.31-1.67,4.17,4.17,0,0,1,.87-1.34,4,4,0,0,1,1.32-.89,4.25,4.25,0,0,1,1.67-.32,4,4,0,0,1,1.81.37,3.57,3.57,0,0,1,1.22,1,3.89,3.89,0,0,1,.69,1.36,5.67,5.67,0,0,1,.21,1.54v.54Zm4.83-1.22a3.26,3.26,0,0,0-.16-.93,2.07,2.07,0,0,0-.43-.74,2,2,0,0,0-.72-.49,2.64,2.64,0,0,0-1-.18,2.46,2.46,0,0,0-1,.21,2.5,2.5,0,0,0-.79.55,2.56,2.56,0,0,0-.5.76,2.08,2.08,0,0,0-.18.82Z" transform="translate(-4.1 -0.71)" fill="#fff"/><path d="M263.12,560.51h1.53v1.24h0a2.18,2.18,0,0,1,.41-.59,2.7,2.7,0,0,1,.57-.45,3,3,0,0,1,.69-.3,2.64,2.64,0,0,1,.75-.11,2.16,2.16,0,0,1,.68.1l-.07,1.65-.37-.08a2.11,2.11,0,0,0-.37,0,2.26,2.26,0,0,0-1.72.63,2.76,2.76,0,0,0-.59,2v4h-1.53Z" transform="translate(-4.1 -0.71)" fill="#fff"/><path d="M268.46,560.51h1.77l2.39,6.29h0l2.29-6.29h1.63l-3.83,9.79a10.32,10.32,0,0,1-.42,1,2.87,2.87,0,0,1-.52.74,2.12,2.12,0,0,1-.74.48,2.89,2.89,0,0,1-1.06.17,5.64,5.64,0,0,1-.69,0,2.52,2.52,0,0,1-.67-.18l.19-1.39a2.38,2.38,0,0,0,.91.19,1.68,1.68,0,0,0,.6-.09,1.19,1.19,0,0,0,.42-.27,1.59,1.59,0,0,0,.3-.42c.08-.16.16-.34.24-.54l.5-1.28Z" transform="translate(-4.1 -0.71)" fill="#fff"/><path d="M282.24,564.53a4.11,4.11,0,0,1,.33-1.65,4.3,4.3,0,0,1,.91-1.34,4.33,4.33,0,0,1,6.09,0,4.3,4.3,0,0,1,.91,1.34,4.11,4.11,0,0,1,.33,1.65,4.18,4.18,0,0,1-1.24,3,4.31,4.31,0,0,1-1.36.9,4.43,4.43,0,0,1-3.37,0,4.31,4.31,0,0,1-1.36-.9,4.19,4.19,0,0,1-1.24-3Zm1.63,0a3.3,3.3,0,0,0,.19,1.13,2.55,2.55,0,0,0,.53.88,2.43,2.43,0,0,0,.83.58,3,3,0,0,0,2.21,0,2.44,2.44,0,0,0,.83-.58,2.55,2.55,0,0,0,.53-.88,3.52,3.52,0,0,0,0-2.26,2.56,2.56,0,0,0-.53-.88,2.45,2.45,0,0,0-.83-.58,3,3,0,0,0-2.21,0,2.44,2.44,0,0,0-.83.58,2.56,2.56,0,0,0-.53.88A3.3,3.3,0,0,0,283.88,564.53Z" transform="translate(-4.1 -0.71)" fill="#fff"/><path d="M300.81,568.56h-1.53v-1.16h0a2.91,2.91,0,0,1-1.21,1,3.76,3.76,0,0,1-1.59.36,4.27,4.27,0,0,1-1.69-.32,3.73,3.73,0,0,1-1.29-.9,4.06,4.06,0,0,1-.82-1.34,4.66,4.66,0,0,1-.29-1.67,4.73,4.73,0,0,1,.29-1.67,4,4,0,0,1,.82-1.34,3.8,3.8,0,0,1,1.29-.89,4.27,4.27,0,0,1,1.69-.32,3.74,3.74,0,0,1,1.63.37,2.79,2.79,0,0,1,1.17,1h0v-5.95h1.53Zm-4.18-1.22a2.77,2.77,0,0,0,1.11-.21,2.44,2.44,0,0,0,.83-.58,2.55,2.55,0,0,0,.53-.88,3.52,3.52,0,0,0,0-2.26,2.56,2.56,0,0,0-.53-.88,2.45,2.45,0,0,0-.83-.58,3,3,0,0,0-2.21,0,2.44,2.44,0,0,0-.83.58,2.56,2.56,0,0,0-.53.88,3.52,3.52,0,0,0,0,2.26,2.55,2.55,0,0,0,.53.88,2.43,2.43,0,0,0,.83.58A2.76,2.76,0,0,0,296.63,567.34Z" transform="translate(-4.1 -0.71)" fill="#fff"/><path d="M311.19,568.56h-1.53v-1.16h0a2.91,2.91,0,0,1-1.21,1,3.76,3.76,0,0,1-1.59.36,4.27,4.27,0,0,1-1.69-.32,3.73,3.73,0,0,1-1.29-.9,4.06,4.06,0,0,1-.82-1.34,4.66,4.66,0,0,1-.29-1.67,4.73,4.73,0,0,1,.29-1.67,4,4,0,0,1,.82-1.34,3.8,3.8,0,0,1,1.29-.89,4.27,4.27,0,0,1,1.69-.32,3.74,3.74,0,0,1,1.63.37,2.79,2.79,0,0,1,1.17,1h0v-5.95h1.53ZM307,567.34a2.77,2.77,0,0,0,1.11-.21,2.44,2.44,0,0,0,.83-.58,2.55,2.55,0,0,0,.53-.88,3.52,3.52,0,0,0,0-2.26,2.56,2.56,0,0,0-.53-.88,2.45,2.45,0,0,0-.83-.58,3,3,0,0,0-2.21,0,2.44,2.44,0,0,0-.83.58,2.56,2.56,0,0,0-.53.88,3.52,3.52,0,0,0,0,2.26,2.55,2.55,0,0,0,.53.88,2.43,2.43,0,0,0,.83.58A2.76,2.76,0,0,0,307,567.34Z" transform="translate(-4.1 -0.71)" fill="#fff"/><path d="M217.12,309.24A51.84,51.84,0,0,0,237,305.32c7.85-3.14,12.83-6.81,18.32-6.81,10.73,0,16.49,12.83,16.49,20.68,0,6.54-4.19,12-11.78,16.75-12,7.33-29.84,10.73-45.29,10.73-47.9,0-85.6-32.2-85.6-88,0-58.64,41.36-87.69,86.38-87.69C232,171,249.32,175,260,181.5c8.12,5,11.78,10.47,11.78,17,0,8.11-5.5,20.94-16.49,20.94-5.76,0-11.26-3.4-19.63-6.81A54,54,0,0,0,215,208.46c-23,0-44,14.92-44,49.47C171,293.54,193,309.24,217.12,309.24Z" transform="translate(-4.1 -0.71)" fill="#fff"/></g></svg>