<svg id="Layer_2" data-name="Layer 2" xmlns="http://www.w3.org/2000/svg" xmlns:xlink="http://www.w3.org/1999/xlink" viewBox="0 0 392.25 800.28"><defs><mask id="mask" x="293.07" y="603.58" width="48.57" height="48.56" maskUnits="userSpaceOnUse"><g transform="translate(-3.12 -0.72)"><g id="mask-2"><polygon id="path-1" points="344.76 652.86 344.76 604.3 296.19 604.3 296.19 652.86 344.76 652.86" fill="#fff"/></g></g></mask></defs><title>DT_Screen_Menu_English</title><path d="M198.25,800H337c65.5,0,57-55,57-55V51c0-53-53-49.22-53-49.22H57.5S4.48-2,4.48,51V745s-8.48,55,57,55H198.25Z" transform="translate(-3.12 -0.72)" fill="#fff" stroke="#000" stroke-miterlimit="10" stroke-width="2"/><rect x="27.96" y="107.61" width="169.17" height="201.08" fill="#f68f82"/><rect x="196.74" y="107.61" width="169.17" height="201.08" fill="#c88ad7"/><rect x="27.96" y="308.21" width="169.17" height="201.08" fill="#2b1d22"/><rect x="196.74" y="308.21" width="169.17" height="201.08" fill="#4662af"/><rect x="27.96" y="509.32" width="169.17" height="201.08" fill="#66c2a1"/><rect x="196.74" y="509.32" width="169.17" height="201.08" fill="#f03f32"/><g id="iPhone-7"><g id="Categories"><g id="Love"><g id="love-large-symbol"><g id="Love-large-Symbol-heart"><path id="Fill-74" d="M156.09,151.2c-.5-2.4-1.81-4.82-3.48-4.47l-.14,0h0l-.2.08c-3.6,1.45-7.4,2.75-8.76,1.78s-1.19-4.38-.95-8.82h0c0-.48-.16-1.37-1.67-2.07a9.54,9.54,0,0,0-3.23-.74c-2.45-.17-5.13.43-5.24,2.14a1.54,1.54,0,0,0,.11.68.94.94,0,0,0,0,.23,33,33,0,0,1,.6,7.81,20.4,20.4,0,0,0-13.77-6.5V137.1a.84.84,0,0,0,0-.17,1.48,1.48,0,0,0,0-.23c0-1.21-1.4-2.09-3.32-2.09s-3.32.88-3.32,2.09a1.48,1.48,0,0,0,0,.23.91.91,0,0,0,0,.17v4.69q-.73.16-1.43.36l-1.44-4.21a.91.91,0,0,0-.18-.31,1.28,1.28,0,0,0,0-.14,1.9,1.9,0,0,0-1.69-1.19,5.4,5.4,0,0,0-4,1.34,1.9,1.9,0,0,0-.65,2,1.5,1.5,0,0,0,.29.49l1.68,4.92a18,18,0,0,0-5.83,6.08c-3.39-2.83-8.17-4.17-14.22-4h0c-2.52,0-3.83,4.34-3.83,8.6s1.33,8.6,3.87,8.6l.21,0v0c2.26.23,3.1,1.55,3.41,3.73-3,.4-11.71,2.59-16.2,14.47-4.31,11.4,1.06,26.43,2.82,31.36.88,2.47,4,10.59,6.64,11.57a1.83,1.83,0,0,0,.52.11c7.55,13.82,19.15,28.75,32.05,28.75s18.5-12.67,19.41-14.93c5.74-3.13,9.67-9.13,11.36-17.38a46,46,0,0,0,.85-11.36c5-5.59,8.62-20.12,5.67-28.47-1.9-5.38-6.25-9.06-11.15-11.37a13.75,13.75,0,0,0-.39-5.08c.26-.4.5-.8.74-1.2,1.88-3.11,3.82-6.33,13.54-7.83h0c.47-.1,1.3-.51,1.56-2.17a9.58,9.58,0,0,0-.16-3.31m-1.79,3.61a7.83,7.83,0,0,1-1.3-6.19,7.81,7.81,0,0,1,1.3,6.19m-16.8-16a6.14,6.14,0,0,1,3.11.88,7.8,7.8,0,0,1-6.31-.43,6.17,6.17,0,0,1,3.2-.45M116,136.43a3,3,0,0,1,1.34.27,3.44,3.44,0,0,1-2.69,0,3,3,0,0,1,1.34-.27m-9.67,1.86a3.1,3.1,0,0,1,1.38-.17,3.07,3.07,0,0,1-1.21.69,3.12,3.12,0,0,1-1.38.17,3.07,3.07,0,0,1,1.21-.69m.44,7.86a.91.91,0,0,0,.37-1.06l-1.47-4.29a5.43,5.43,0,0,0,2.84-1l1.29,3.77a.91.91,0,0,0,.86.62.92.92,0,0,0,.29,0,20.26,20.26,0,0,1,2.79-.71.91.91,0,0,0,.75-.89v-4a5.41,5.41,0,0,0,3,0v3.63a.91.91,0,0,0,.87.91c6.11.26,11.6,3.06,14.41,7.34a13.56,13.56,0,0,1-.86,2.95,11.16,11.16,0,0,1-6.73,6.5c-.84-2.38-3.79-4-6.9-3.56-3.62.46-7.38,3.73-7.09,11.5v9.72c-.34.67-2.45,1.65-5.77,1.8l-.08-12.73c0-6.16-1.57-10.93-4.62-14.25a16.37,16.37,0,0,1,6-6.24m16.66,14.28a38.63,38.63,0,0,1-8.52.57h-.54a5.49,5.49,0,0,1,4.15-2.84c2.18-.28,4.3.75,4.9,2.28m-40.33-4.7c0-4.21,1.32-6.78,2-6.78s2,2.57,2,6.78-1.33,6.78-2,6.78-2-2.57-2-6.78m4.24,7.21c1.1-1.62,1.67-4.42,1.67-7.21a14.84,14.84,0,0,0-1.4-6.77c4.86.19,8.64,1.57,11.28,4.11,3.08,3,4.64,7.54,4.64,13.58l.13,20.26c-.47.4-2.71,1.08-6.42,1.08s-6-.68-6.42-1.08l-.06-14.62v-.17c0-3.69,0-7.8-3.43-9.17m-5.09,57.91a10.82,10.82,0,0,1,.33,2.87c-.9-.39-3.2-4.08-5.48-10.45-1.71-4.78-6.9-19.33-2.83-30.11s12-12.92,14.65-13.3c0,.69,0,1.44,0,2.24L89,187.05c0,2.62,6.86,2.75,8.24,2.75s8.24-.13,8.24-2.76l0-5.85a17.43,17.43,0,0,0,3.81-.57c.76,1,2.43,4.12,0,9.18-2.1,4.29-8,3-8.21,2.92a.91.91,0,0,0-1.12.9c0,1.44-.41,5.52-2.62,7.06-3.79,2.66-9.62-.39-9.68-.42a.91.91,0,0,0-1.21,1.27c1.44,2.4,1.91,4.63,1.41,6.64A8.14,8.14,0,0,1,83.7,213c-2.63,1.55-1.95,5.17-1.44,7.81M114,252.48c-11.8-.47-22.67-14.68-29.86-27.85.48-1,.2-2.45-.11-4.11-.44-2.34-.95-5,.58-5.9a10,10,0,0,0,4.94-6,9.46,9.46,0,0,0-.51-5.79c2.4.8,6.23,1.48,9.27-.65,2.58-1.81,3.2-5.61,3.35-7.49,2.81.35,7.27-.15,9.19-4.08,2.63-5.37,1.22-9,.15-10.63,1.26-.63,2.07-1.49,2.07-2.58a.89.89,0,0,0-.06-.28v-6.86a13.6,13.6,0,0,0,5.86.39,89.45,89.45,0,0,1,3,12,.9.9,0,0,0,.13.68c.46,2.55.88,5.42,1.21,8.57a.77.77,0,0,0-.13.09,71.31,71.31,0,0,0-6.88,8.22l-10.09,3a.91.91,0,0,0,.52,1.75l8-2.36c-5.74,9-10,21.43-7.22,38.63a.91.91,0,0,0,.9.77h.15a.91.91,0,0,0,.75-1,55.19,55.19,0,0,1,.39-22.12l4.17,7.41a.91.91,0,0,0,.79.46.9.9,0,0,0,.45-.12.91.91,0,0,0,.35-1.24l-5-8.94-.05-.06c2.09-7,6.09-14.39,13.17-22A120.6,120.6,0,0,1,114,252.48m36.17-69.7c2.76,7.82-.84,22-5.54,26.91a.91.91,0,0,0-.25.71c0,.2,1.64,20.68-11.52,27.54a.92.92,0,0,0-.44.51,26.8,26.8,0,0,1-4.15,7.1c-3.43,4.2-7.55,6.51-12.27,6.89A122.7,122.7,0,0,0,124.18,185c2.91,2.53,6.51,7.42,8.86,14.34l-4,6.58a.91.91,0,0,0,1.55,1l3.21-5.22a50.93,50.93,0,0,1,1.05,21.72.91.91,0,0,0,.76,1h.14a.91.91,0,0,0,.9-.77,51.91,51.91,0,0,0-1.65-24.2.9.9,0,0,0-.2-.6,44,44,0,0,0-2-5l7,1.61.2,0a.91.91,0,0,0,.2-1.8l-8.47-1.94h0c-2.61-4.7-5.63-7.9-7.91-9.4a93.26,93.26,0,0,0-3-11.94c1-.15,2.08-.33,3.24-.58,3-.64,8.59-.34,14.1,1.78,4.31,1.65,9.9,4.93,12.1,11.16M139,170c-.72-.29-1.45-.55-2.18-.78a9.51,9.51,0,0,0,2-1.62A11.35,11.35,0,0,1,139,170m.55-6.46c-1.24,2.06-2.33,3.84-5.46,4.94a26.09,26.09,0,0,0-10.48-.47c-8.4,1.76-10.28.42-10.57.12v-.36a15.05,15.05,0,0,1,.56-5h2.73c6.61,0,13.74-.51,17.28-8.68,1.86-4.3,1.4-9.88,1-12.7a10.28,10.28,0,0,0,2.7.54l.78,0a8.71,8.71,0,0,0,2.55-.35c-.18,4.39,0,7.2,1.8,8.48a4.06,4.06,0,0,0,2.43.68,19.23,19.23,0,0,0,6.16-1.51,10,10,0,0,0,.2,2.93,9.6,9.6,0,0,0,1.14,3c-8.85,1.77-10.95,5.24-12.81,8.33" transform="translate(-3.12 -0.72)" fill="#fff"/></g></g></g></g></g><g id="iPhone-7-2" data-name="iPhone-7"><g id="Categories-2" data-name="Categories"><g id="Sex"><g id="sex-large-symbol"><g id="Sex-large-symbol-cactus"><path id="Fill-114" d="M281.85,175.6a.9.9,0,1,0,1.54-.94l-2.89-4.71a.9.9,0,1,0-1.54.94Z" transform="translate(-3.12 -0.72)" fill="#fff"/><path id="Fill-116" d="M278.93,206.7a.9.9,0,0,0,.3-1.24l-2.89-4.71a.9.9,0,1,0-1.54.94l2.89,4.71a.9.9,0,0,0,1.24.3" transform="translate(-3.12 -0.72)" fill="#fff"/><path id="Fill-118" d="M292.76,204.23a.9.9,0,0,0-1,.84l-.4,5.51a.9.9,0,0,0,.84,1h.06a.9.9,0,0,0,.9-.84l.4-5.51a.9.9,0,0,0-.84-1" transform="translate(-3.12 -0.72)" fill="#fff"/><path id="Fill-120" d="M290,188.17a.9.9,0,0,0-1.17.51l-2,5.15a.9.9,0,1,0,1.68.65l2-5.15a.9.9,0,0,0-.51-1.17" transform="translate(-3.12 -0.72)" fill="#fff"/><path id="Fill-122" d="M284,224.25l-4.74-2.85a.9.9,0,0,0-.93,1.55l4.74,2.85a.89.89,0,0,0,.46.13.9.9,0,0,0,.47-1.68" transform="translate(-3.12 -0.72)" fill="#fff"/><path id="Fill-124" d="M288,165h.15a.9.9,0,0,0,.89-.76l1-6.35a.9.9,0,0,0-1.78-.29l-1,6.35a.9.9,0,0,0,.75,1" transform="translate(-3.12 -0.72)" fill="#fff"/><path id="Fill-126" d="M311.4,176.37a.9.9,0,0,0-1.75.42l1.15,4.82a.9.9,0,0,0,.88.69l.21,0a.9.9,0,0,0,.67-1.09Z" transform="translate(-3.12 -0.72)" fill="#fff"/><path id="Fill-128" d="M308.83,193.09l-3.25,3.85A.9.9,0,1,0,307,198.1l3.25-3.85a.9.9,0,0,0-1.38-1.16" transform="translate(-3.12 -0.72)" fill="#fff"/><path id="Fill-130" d="M324.54,185.11a.9.9,0,0,0-1.25.25L322,187.22V175.5l2.19-1.71a.9.9,0,0,0-1.11-1.42l-1.08.84v-3.16c0-3.9-2.24-8-6.43-9l.22-2.37a.9.9,0,0,0-1.8-.17l-.22,2.33h-.11c-4.91,0-8.34,3.78-8.34,9.2v18a2.44,2.44,0,1,1-4.88,0V177l2.32-1.4a.9.9,0,0,0-.93-1.54l-1.38.84V163.22a15.08,15.08,0,0,0-.54-4l2.44-2.69a.9.9,0,1,0-1.34-1.21l-1.76,1.94a15.21,15.21,0,0,0-12.49-9.19,32.5,32.5,0,0,0,4.55-4.18c2.91-3.3,2.81-9,2.81-9.22a.9.9,0,0,0-.9-.88,8.44,8.44,0,0,0-5.95,3,9.79,9.79,0,0,0-4-6.84.9.9,0,0,0-1.18.19,14.58,14.58,0,0,0-3,8.39,12.56,12.56,0,0,0-6.74-3.62.92.92,0,0,0-.76.25.9.9,0,0,0-.27.75c.84,7.1,4.75,11.12,9,12.91a15.23,15.23,0,0,0-7.36,5.54l-1.28-1.28a.9.9,0,1,0-1.28,1.28l1.56,1.56a15.08,15.08,0,0,0-1.83,7.22v13.4l-1.64-.31a.9.9,0,1,0-.34,1.77l2,.38v16.47a3,3,0,1,1-5.95,0,.74.74,0,0,1,0-.58v-4.26l1.84-.69a.9.9,0,0,0-.64-1.69l-1.2.45v-1.69a7.66,7.66,0,0,0-10.63-7.07l-.69-2a.9.9,0,0,0-1.71.58l.81,2.38a7.65,7.65,0,0,0-3.11,6.15V195l-1.06-.81a.9.9,0,1,0-1.1,1.43l2.15,1.64v1.58a15.75,15.75,0,0,0,5.18,12l-1.65,1.77a.9.9,0,0,0,1.32,1.23l1.78-1.91a18.83,18.83,0,0,0,10.62,2.83,4.53,4.53,0,0,1,3.4,1.07,2.39,2.39,0,0,1,.64,1.66.62.62,0,0,0,0,.07s0,0,0,.06v6.55c-10.73,1.1-18.49,4.36-18.78,7.9,0,0,0,0,0,.07s0,.09,0,.13a3.27,3.27,0,0,0,.21,1.14l5,24.9a.9.9,0,0,0,.34.54c7.47,5.66,20.36,6.85,29.86,6.85,12.33,0,21.91-2.37,28.48-7a.9.9,0,0,0,.36-.57l4.59-24.8a3.23,3.23,0,0,0,.17-1c0-3.86-8.47-7.3-19.84-8.14v-3.32l1.79-1.51a.9.9,0,1,0-1.16-1.38l-.63.53v-8a.78.78,0,0,0,0-.12,3.11,3.11,0,0,1,.71-2.23c.75-.82,2.08-1.18,4-1.07a18.67,18.67,0,0,0,10.65-3l1.23,1.11a.9.9,0,0,0,1.21-1.34l-1-.89A13.74,13.74,0,0,0,322,192.61v-2.15l2.75-4.09a.9.9,0,0,0-.25-1.25Zm-51.21-48a10.35,10.35,0,0,1,6.53,6,.9.9,0,0,0,1.69-.64A12.05,12.05,0,0,1,283,132.11c1.19,1.1,3.41,3.88,2.33,8.74a.9.9,0,0,0,1.75.44c1.15-4.05,3.84-5.19,5.27-5.51-.1,1.65-.54,4.95-2.33,7a33.66,33.66,0,0,1-6.22,5.31c-4.33-.75-9.12-4-10.43-11Zm40.52,120.34c-6.25,4.32-15.38,6.51-27.13,6.51-12.83,0-22.92-2.23-28.5-6.28l-4.3-21.46c5.54,3.94,19.06,6.39,31.9,6.39s26.47-2.47,32-6.44Zm4.66-25.16-.11.59c-1.3,3.35-14,7.92-32.58,7.92s-31.09-4.5-32.55-7.84l-.14-.67c.09-1.89,6.13-5.1,17-6.25v6c0,3.31,7.64,5,15.18,5s15.18-1.73,15.18-5v-6c11.13.84,17.95,4.15,18,6.28Zm-2.59-30.56-1.72-1.56a.9.9,0,1,0-1.21,1.34l1.41,1.28a18.5,18.5,0,0,1-9.18,2.47c-2.44-.14-4.28.42-5.41,1.67a5,5,0,0,0-1.14,3.79V220l-1.79,1.51A.9.9,0,0,0,298,222.9l.63-.53V232c0,1.1-4.72,3.23-13.37,3.23s-13.37-2.13-13.37-3.23V217.65h0a4.21,4.21,0,0,0-1.09-3,6.17,6.17,0,0,0-4.75-1.67,18.1,18.1,0,0,1-9.31-2.43l.68-.73a.9.9,0,1,0-1.32-1.23l-.84.9c-2.75-2.24-4.65-5.67-4.65-10.64v-.21l1.16.88a.9.9,0,0,0,1.1-1.43l-2.25-1.72v-9.92a5.84,5.84,0,0,1,1.92-4.33l.64,1.89a.9.9,0,0,0,1.71-.58l-.79-2.33a5.85,5.85,0,0,1,8.24,5.35v2.38l-3,1.14a.9.9,0,1,0,.64,1.69l2.38-.9v3.58a.75.75,0,0,1,0,.58,4.77,4.77,0,0,0,9.53.24.9.9,0,0,0,0-.12V178.81l1.64.32.17,0a.9.9,0,0,0,.17-1.79l-2-.38V163.22a13.27,13.27,0,0,1,1.37-5.87l1.63,1.64a.9.9,0,0,0,1.28-1.28l-2-2a13.36,13.36,0,0,1,23.68,3.08l-1.19,1.32a.9.9,0,0,0,1.34,1.21l.4-.45a13.32,13.32,0,0,1,.22,2.32V176l-2.32,1.4a.9.9,0,0,0,.93,1.54l1.38-.84v10a.77.77,0,0,0,0,.08,4.23,4.23,0,0,0,8.46,0,.77.77,0,0,0,0-.08v-18c0-3.4,1.7-7.36,6.48-7.39l-.21,2.27a.9.9,0,0,0,.81,1h.08a.9.9,0,0,0,.9-.82l.21-2.21c3.46,1,4.79,4.68,4.79,7.16v4.56L318,176.33a.9.9,0,0,0,1.11,1.42l1.08-.84v13l-.53.79a.89.89,0,0,0,.53,1.37v.54a11.17,11.17,0,0,1-4.31,9.1Z" transform="translate(-3.12 -0.72)" fill="#fff"/></g></g></g></g></g><g id="iPhone-7-3" data-name="iPhone-7"><g id="Categories-3" data-name="Categories"><g id="Life-_-death" data-name="Life-&amp;-death"><g id="death-large-symbol"><g id="Death-large-symbol-skull"><path id="Fill-2" d="M127.32,360.59a10.43,10.43,0,0,1-1.36,1.86c17.55,5,30.38,20.45,30.38,38.68,0,9.33-3.63,18.52-10.51,26.56-5.39,6.3-6.94,9.61-6.94,14.75v8.27a4.18,4.18,0,0,1-8.37,0v-6.26a1.08,1.08,0,1,0-2.16,0v6.26a4.19,4.19,0,0,1-8.37,0v-4.25a1.08,1.08,0,1,0-2.16,0v4.25a4.19,4.19,0,0,1-8.37,0v-4.25a1.08,1.08,0,1,0-2.16,0v4.25a4.18,4.18,0,0,1-8.37,0v-6.26a1.08,1.08,0,1,0-2.16,0v6.26a4.19,4.19,0,0,1-8.37,0v-8.27c0-5.63-3.12-10-6.89-14.69-7-8.75-10.56-17.7-10.56-26.62,0-21.94,18.57-39.84,41.61-40.39v19.14a1.08,1.08,0,1,0,2.16,0V366.35c-.58,0-.94-.06-1-.06a1.08,1.08,0,0,1-1-1.06,20.93,20.93,0,0,1,2-8.82V336.08a1.08,1.08,0,1,0-2.16,0v9.54c-1.3-2.17-3.74-5.47-7.27-6.86-5.36-2.12-11.88.68-12.15.8a1.09,1.09,0,0,0-.61,1.3c.09.31,2.23,7.56,8,9.86a10.93,10.93,0,0,0,4,.73,18.66,18.66,0,0,0,8-2.06v9.19c-24.23.55-43.77,19.42-43.77,42.56,0,9.42,3.71,18.83,11,28,3.51,4.38,6.41,8.41,6.41,13.33v8.27a6.35,6.35,0,0,0,11.61,3.51,6.36,6.36,0,0,0,10.53,0,6.36,6.36,0,0,0,10.53,0,6.36,6.36,0,0,0,10.53,0A6.35,6.35,0,0,0,141,450.7v-8.27c0-4.57,1.38-7.44,6.42-13.34,7.22-8.44,11-18.11,11-28,0-19-13.11-35-31.17-40.54m-26-11.9c-3.68-1.46-5.67-5.61-6.4-7.49,1.86-.64,6.12-1.78,9.56-.42s5.77,5.11,6.71,6.85c-1.84.87-6.18,2.53-9.87,1.06" transform="translate(-3.12 -0.72)" fill="#fff"/><path id="Fill-4" d="M93.69,400a6.73,6.73,0,1,0,6.69,6.73A6.72,6.72,0,0,0,93.69,400m0,11.28a4.56,4.56,0,1,1,4.53-4.56,4.55,4.55,0,0,1-4.53,4.56" transform="translate(-3.12 -0.72)" fill="#fff"/><path id="Fill-6" d="M113.64,420.62c-1.78,0-5.8,4.3-7.39,7.38-1.51,2.92-1,4.69-.33,5.66a3.93,3.93,0,0,0,3.27,1.92h0c1.84,0,3.47-1.42,4.44-2.48.94,1.05,2.53,2.46,4.36,2.53h.14a4,4,0,0,0,3.2-1.73c.71-.9,1.28-2.58-.09-5.43-1.52-3.18-5.79-7.86-7.6-7.86m6,11.94c-.74.93-1.35.92-1.57.91-1.43-.05-3.07-2-3.54-2.7a1.08,1.08,0,0,0-.89-.47h0a1.07,1.07,0,0,0-.88.46c-.48.69-2.16,2.66-3.57,2.66-.24,0-.8,0-1.51-1a2.54,2.54,0,0,1,0-2.28,17.72,17.72,0,0,1,6-7.31c1.17.58,5.14,4.54,6.1,7.7a2.21,2.21,0,0,1-.1,2" transform="translate(-3.12 -0.72)" fill="#fff"/><path id="Fill-8" d="M135.14,413.37a6.73,6.73,0,1,0-6.69-6.73,6.72,6.72,0,0,0,6.69,6.73m0-11.28a4.56,4.56,0,1,1-4.53,4.56,4.55,4.55,0,0,1,4.53-4.56" transform="translate(-3.12 -0.72)" fill="#fff"/><path id="Fill-10" d="M125.56,397a5.52,5.52,0,0,0-.68,0,5.41,5.41,0,0,0-3.29,9.68,5.51,5.51,0,0,0-.51.45,5.44,5.44,0,0,0,0,7.65,5.34,5.34,0,0,0,4.48,1.53,5.37,5.37,0,0,0,9.58,4,5.42,5.42,0,0,0,.45.52,5.36,5.36,0,0,0,7.61,0,5.44,5.44,0,0,0,1.52-4.5,5.38,5.38,0,0,0,6.07-5.37,5.44,5.44,0,0,0-2.09-4.27,5.3,5.3,0,0,0,.51-.46,5.44,5.44,0,0,0,0-7.65,5.38,5.38,0,0,0-4.48-1.53,5.6,5.6,0,0,0,0-.69,5.37,5.37,0,0,0-9.63-3.31,5.36,5.36,0,0,0-8.06-.52,5.44,5.44,0,0,0-1.52,4.5m2.64,2.67a1.09,1.09,0,0,0,.1-1.41,3.23,3.23,0,0,1,4.86-4.22,3.21,3.21,0,0,1,.9,1.82,1.08,1.08,0,0,0,2.13,0,3.22,3.22,0,1,1,5.77,2.4,1.09,1.09,0,0,0,.1,1.41,1.07,1.07,0,0,0,1.41.1,3.23,3.23,0,0,1,4.2,4.89,3.19,3.19,0,0,1-1.81.91,1.08,1.08,0,0,0,0,2.15,3.24,3.24,0,0,1-.47,6.44,3.18,3.18,0,0,1-1.92-.64,1.07,1.07,0,0,0-1.41.1A1.09,1.09,0,0,0,142,415a3.27,3.27,0,0,1-.3,4.22,3.22,3.22,0,0,1-5.46-1.82,1.08,1.08,0,0,0-2.13,0,3.22,3.22,0,1,1-5.77-2.4,1.09,1.09,0,0,0-.1-1.41,1.07,1.07,0,0,0-1.41-.1,3.22,3.22,0,0,1-4.2-.31,3.26,3.26,0,0,1,0-4.58,3.2,3.2,0,0,1,1.81-.91,1.08,1.08,0,0,0,0-2.15,3.24,3.24,0,0,1,.47-6.44,3.17,3.17,0,0,1,1.92.64,1.08,1.08,0,0,0,1.41-.1" transform="translate(-3.12 -0.72)" fill="#fff"/><path id="Fill-12" d="M109.33,411a5.44,5.44,0,0,0-2.09-4.27,5.4,5.4,0,0,0-4-9.64,5.37,5.37,0,0,0-9.58-4,5.43,5.43,0,0,0-.45-.52,5.37,5.37,0,0,0-7.61,0,5.45,5.45,0,0,0-1.52,4.5,5.5,5.5,0,0,0-.68,0,5.41,5.41,0,0,0-3.29,9.68,5.08,5.08,0,0,0-.51.45,5.4,5.4,0,0,0,4.48,9.18,5.37,5.37,0,0,0,9.58,4,5.44,5.44,0,0,0,.45.52,5.36,5.36,0,0,0,7.61,0,5.44,5.44,0,0,0,1.52-4.5,5.33,5.33,0,0,0,.68,0,5.4,5.4,0,0,0,5.38-5.41m-7.3,2.6a1.07,1.07,0,0,0-1.41.1,1.09,1.09,0,0,0-.1,1.42,3.23,3.23,0,0,1-4.86,4.22,3.2,3.2,0,0,1-.91-1.82,1.08,1.08,0,0,0-1.07-.93h0a1.08,1.08,0,0,0-1.07.93,3.22,3.22,0,1,1-5.77-2.4,1.09,1.09,0,0,0-.1-1.41,1.07,1.07,0,0,0-1.41-.1,3.23,3.23,0,0,1-4.2-4.89,3.18,3.18,0,0,1,1.81-.91,1.08,1.08,0,0,0,0-2.15,3.24,3.24,0,0,1,.47-6.44,3.18,3.18,0,0,1,1.92.64,1.08,1.08,0,0,0,1.51-1.52,3.27,3.27,0,0,1,.31-4.22A3.22,3.22,0,0,1,92.62,396a1.08,1.08,0,0,0,2.13,0,3.22,3.22,0,1,1,5.77,2.4,1.09,1.09,0,0,0,.1,1.41,1.08,1.08,0,0,0,1.41.1,3.22,3.22,0,0,1,4.2.31,3.25,3.25,0,0,1,0,4.58,3.19,3.19,0,0,1-1.81.91,1.08,1.08,0,0,0,0,2.15,3.24,3.24,0,0,1-.47,6.44,3.18,3.18,0,0,1-1.92-.64" transform="translate(-3.12 -0.72)" fill="#fff"/><path id="Fill-14" d="M112.75,365.23a1.08,1.08,0,0,0,1,1.06c.06,0,.43,0,1,.06h.61c2.51,0,7.35-.47,10.51-3.76l.12-.14a10.47,10.47,0,0,0,1.36-1.86c2.57-4.44,1.84-10.11,1.81-10.38a1.09,1.09,0,0,0-1.09-.94c-.3,0-7.39.19-11.38,4.35a11.63,11.63,0,0,0-1.94,2.78,20.93,20.93,0,0,0-2,8.82m5.46-10.09c2.56-2.67,6.9-3.41,8.86-3.62.08,1.8,0,5.63-1.91,8.48a6.78,6.78,0,0,1-1.71,1.82c-2.76,2.17-6.66,2.4-8.51,2.37a21.49,21.49,0,0,1,.5-3.4,16.36,16.36,0,0,1,.64-2.14,10.39,10.39,0,0,1,2.12-3.5" transform="translate(-3.12 -0.72)" fill="#fff"/></g></g></g></g></g><g id="iPhone-7-4" data-name="iPhone-7"><g id="Categories-4" data-name="Categories"><g id="Personality"><g id="personality-large-symbol"><g id="Personality-large-symbol-Freud"><path id="Fill-40" d="M265.06,390.69a4.64,4.64,0,1,0-4.64-4.64,4.64,4.64,0,0,0,4.64,4.64m0-7.42a2.78,2.78,0,1,1-2.78,2.78,2.78,2.78,0,0,1,2.78-2.78" transform="translate(-3.12 -0.72)" fill="#fff"/><path id="Fill-42" d="M301.6,390.69A4.64,4.64,0,1,0,297,386a4.64,4.64,0,0,0,4.64,4.64m0-7.42a2.78,2.78,0,1,1-2.78,2.78,2.78,2.78,0,0,1,2.78-2.78" transform="translate(-3.12 -0.72)" fill="#fff"/><path id="Fill-44" d="M248.75,379.5a6.06,6.06,0,0,1,4.86,2.43A13,13,0,1,0,278.49,384c2.62-1.24,6.37-2.2,9.77-.06a13,13,0,1,0,24.91-1.92,6.09,6.09,0,0,1,4.95-2.56.93.93,0,0,0,0-1.86,7.86,7.86,0,0,0-5.83,2.56,13,13,0,0,0-23.49,2c-3.09-1.73-6.89-1.71-10.83.08a13,13,0,0,0-23.47-2.13,7.84,7.84,0,0,0-5.75-2.48.93.93,0,1,0,0,1.86m52.25-4a11.18,11.18,0,1,1-11.18,11.18A11.19,11.19,0,0,1,301,375.52m-35.27,0a11.18,11.18,0,1,1-11.18,11.18,11.19,11.19,0,0,1,11.18-11.18" transform="translate(-3.12 -0.72)" fill="#fff"/><path id="Fill-46" d="M329.24,373.9a4.08,4.08,0,0,0-2.64-1.7l-.59-.11a4.07,4.07,0,0,0-2.6.41c-1.17-21.9-18.31-38.73-40-38.73a41.15,41.15,0,0,0-40.86,36.81,4.07,4.07,0,0,0-1.36-.06l-.59.08a4.11,4.11,0,0,0-3.5,4.63l1.51,10.91a4.12,4.12,0,0,0,4.06,3.54l.34,0,.24,4.94c-2,.26-3.87,2-3.87,5.15,0,.13.44,13,1.54,21.12,1.15,8.43,2.83,17.73,8.22,21.47a24.14,24.14,0,0,0,8.62,3.94c.43,2.23,2.19,9.13,7.82,10.4a12,12,0,0,0,9.5-1.55c1.39,2,5.13,6.87,9,6.87,5.28,0,8.19-4.82,9.29-7.17a8.46,8.46,0,0,0,8.85,1.17c4.48-1.92,5.8-7.14,6.16-9.31,1.43.06,4.19-.31,7.54-3,4.4-3.56,7.12-9.34,8.55-18.19a227.5,227.5,0,0,0,2.36-24.71,5.35,5.35,0,0,0-1.33-3.77,4.16,4.16,0,0,0-3.06-1.31h-.22l.28-4.71.08,0,.59.11a4.11,4.11,0,0,0,4.76-3.31L329.91,377a4.07,4.07,0,0,0-.67-3.07m-45.83-38.26c21.27,0,38,17,38.22,38.67a4,4,0,0,0-.39,1.1l-1.94,10.84a4.07,4.07,0,0,0,.67,3.07,4.12,4.12,0,0,0,.75.8l-.37,6.12a4.92,4.92,0,0,0-2.5,4.53c0,7.84-4.48,13.1-11.15,13.1h0c-2-4.39-5.55-7.75-10.12-7.75H291v-7.37a.93.93,0,0,0-1.86,0v8a5.64,5.64,0,0,1-11.29,0v-8a.93.93,0,1,0-1.86,0v7.37H270.8c-4.9,0-9.62,3.71-12.12,8.75-5.21-.31-10.44-5.92-10.44-15.14,0-2.71-1.43-4.39-3.13-5l-.26-5.51a4.1,4.1,0,0,0,2.48-4.33L245.82,374a4.07,4.07,0,0,0-1.49-2.61,39.29,39.29,0,0,1,39.08-35.78m22.91,83.74a8.61,8.61,0,0,0-4.83-1.79,6.17,6.17,0,0,0-3.78,1.27,3.94,3.94,0,0,1-2.47.89,6.11,6.11,0,0,1-3.21-1.17,6.68,6.68,0,0,0-3.49-1.26,7.15,7.15,0,0,0-3.61,1.3,6.57,6.57,0,0,1-3.3,1.21,4.46,4.46,0,0,1-2.82-1.21,5.12,5.12,0,0,0-3.11-1.33,7.36,7.36,0,0,0-3.72,1.43,5.35,5.35,0,0,1-2.28,1,4.38,4.38,0,0,1-2.06-.9,6.19,6.19,0,0,0-3.32-1.27c-2.07,0-4.05,1.31-5.43,2.5,1.14-6.4,6.47-12.05,11.89-12.05h5.26a7.49,7.49,0,0,0,14.78,0h5.71c5.28,0,9,5.56,9.77,11.39m-65-32a2.22,2.22,0,0,1-.87-1.48L238.94,375a2.26,2.26,0,0,1,1.92-2.53l.59-.08.31,0a2.25,2.25,0,0,1,2.22,1.94l1.51,10.91a2.25,2.25,0,0,1-1.91,2.53l-.59.08a2.21,2.21,0,0,1-1.66-.44m81.15,10.18a2.32,2.32,0,0,1,1.7.72,3.56,3.56,0,0,1,.82,2.49,225,225,0,0,1-2.33,24.41c-1.35,8.38-3.85,13.79-7.88,17s-6.81,2.57-6.92,2.54a.93.93,0,0,0-1.18.82c0,.07-.6,6.75-5.16,8.71a6.93,6.93,0,0,1-7.82-1.66.93.93,0,0,0-1.54.35c0,.07-2.55,7.17-8,7.17-3.15,0-6.86-4.94-8-6.84a.93.93,0,0,0-1.43-.19c-.13.12-3.25,3-8.68,1.76s-6.49-9.43-6.5-9.51a.93.93,0,0,0-.82-.8,21,21,0,0,1-8.47-3.74c-4.55-3.15-6.26-11.57-7.44-20.2-1.09-8-1.53-20.8-1.53-20.9,0-2.29,1.27-3.32,2.53-3.32s2.62,1,2.62,3.33c0,9,5,16.14,11.52,16.95a16.91,16.91,0,0,0-1.08,5.84.93.93,0,0,0,.62.88,1,1,0,0,0,.31.05.93.93,0,0,0,.72-.35c.83-1,3.5-3.71,5.86-3.71a4.67,4.67,0,0,1,2.32,1,5.73,5.73,0,0,0,3.05,1.19,6.54,6.54,0,0,0,3.25-1.28,6,6,0,0,1,2.75-1.15,3.49,3.49,0,0,1,2,1,6.24,6.24,0,0,0,3.93,1.58,8.22,8.22,0,0,0,4.23-1.46,5.63,5.63,0,0,1,2.68-1,5.12,5.12,0,0,1,2.53,1,7.79,7.79,0,0,0,4.17,1.43,5.73,5.73,0,0,0,3.5-1.2,4.34,4.34,0,0,1,2.74-1c2.66,0,5.19,2.68,5.21,2.7a.93.93,0,0,0,1.61-.63,18.9,18.9,0,0,0-.95-5.82c7.3-.35,12.35-6.38,12.35-14.93a2.9,2.9,0,0,1,2.75-3.21m5.61-20.91-1.95,10.84a2.25,2.25,0,0,1-2.61,1.81l-.59-.1a2.25,2.25,0,0,1-1.81-2.61l1.95-10.84a2.24,2.24,0,0,1,2.61-1.81l.59.11a2.26,2.26,0,0,1,1.81,2.61" transform="translate(-3.12 -0.72)" fill="#fff"/></g></g></g></g></g><g id="iPhone-7-5" data-name="iPhone-7"><g id="Categories-5" data-name="Categories"><g id="Ethics"><g id="ethics-large-symbol"><g id="Ethics-large-symbol-judge"><path id="Fill-88" d="M158,613.6v-2.81h0a7.1,7.1,0,0,0,3.72-13.14,7.11,7.11,0,0,0-.63-12.42A7.11,7.11,0,0,0,158,571.75h-1.67a7.1,7.1,0,0,0-4.74-12.36h-1.74v-6.11c0-10.47-7.16-17.78-17.42-17.78h-7.66c-7.49,0-10.78,3.6-12.18,6.2-1.28-2.62-4.46-6.2-12.33-6.2H90.78c-10.26,0-17.42,7.31-17.42,17.78v7a7.1,7.1,0,0,0-4.65,12.35H67a7.11,7.11,0,0,0-3.08,13.49,7.1,7.1,0,0,0-.63,12.42A7.1,7.1,0,0,0,67,611.71h0v2.81c-12.84.87-13,13.72-13,13.86a15.12,15.12,0,1,0,30.24,0V572.61a8.65,8.65,0,0,1,3.5-7.27,9.85,9.85,0,0,0,3.92,1.12.89.89,0,0,0,.18,0l.18,0,.35,0h38.66a9.86,9.86,0,0,0,6.1-2.12,8.62,8.62,0,0,1,3.58,7.31v55.77a15.12,15.12,0,1,0,30.24,0c0-.13-.16-13-13-13.86Zm3.73,14.08a5.56,5.56,0,1,1-5.56-5.59,5.59,5.59,0,0,1,5.56,5.59Zm-5.56-7.44a7.36,7.36,0,0,0-5.56,2.55v-12h5.56Zm7.09-16.56a5.25,5.25,0,0,1-5.23,5.26H142.59V598.73H158a7,7,0,0,0,1.31-.13,5.26,5.26,0,0,1,3.92,5.09Zm0-12.06a5.26,5.26,0,0,1-3.92,5.09,7,7,0,0,0-1.31-.13H142.59V586.36H158a5.25,5.25,0,0,1,5.23,5.26Zm-5.23-18a5.26,5.26,0,0,1,0,10.52H142.59V573.6H158ZM75.19,553.28c0-9.53,6.26-15.94,15.59-15.94h9.49c10.6,0,11.32,6.92,11.34,7.21a.92.92,0,0,0,1.82.07c0-.07,1.22-7.27,11.35-7.27h7.66c9.32,0,15.59,6.4,15.59,15.94v6.11h-7.42a10,10,0,0,0-9.53-12.92H92.42l-.35,0-.18,0a.89.89,0,0,0-.18,0,10,10,0,0,0-8.49,13.81h-8Zm53.57,3.2c0,5.06-1.75,8.17-3,8.17h-8.43a17.88,17.88,0,0,0,0-16.34h8.43c1.25,0,3,3.11,3,8.17ZM106,564.65a17.89,17.89,0,0,0,0-16.34h8.43c1.25,0,3,3.11,3,8.17s-1.75,8.17-3,8.17Zm-11.29,0a17.88,17.88,0,0,0,0-16.34h8.43c1.25,0,3,3.11,3,8.17s-1.75,8.17-3,8.17Zm-10.46-8.17A8.15,8.15,0,0,1,92,548.33c1.24.21,2.87,3.26,2.87,8.15s-1.63,7.94-2.87,8.15a8.16,8.16,0,0,1-7.73-8.15ZM61.8,579.77A5.25,5.25,0,0,1,67,574.51H82.46V585H67a5.25,5.25,0,0,1-5.23-5.26Zm0,12.77A5.25,5.25,0,0,1,67,587.28H82.46V597.5H67a7,7,0,0,0-1.31.13,5.26,5.26,0,0,1-3.92-5.09Zm0,12.06a5.26,5.26,0,0,1,3.92-5.09,7,7,0,0,0,1.31.13H82.46v10.22H67a5.25,5.25,0,0,1-5.23-5.26Zm12.66,7.11v12a7.36,7.36,0,0,0-5.56-2.55v-9.46ZM68.89,623a5.59,5.59,0,1,1-5.56,5.59A5.59,5.59,0,0,1,68.89,623Zm.28,18.73a13.34,13.34,0,0,1-13.29-13.36c0-.47.17-11.18,11.17-12v5a7.43,7.43,0,1,0,9.23,7.2V611.71h6.17v16.67a13.34,13.34,0,0,1-13.29,13.36Zm13.29-69.13v.06H73.24a5.26,5.26,0,0,1,.21-10.51H84.22a10.1,10.1,0,0,0,2,2.12,10.58,10.58,0,0,0-3.71,8.34Zm46.16-8a17.88,17.88,0,0,0,0-16.34h2.46a8.17,8.17,0,0,1,0,16.34Zm9.93-1.57a10.06,10.06,0,0,0,1.3-1.85H151.6a5.26,5.26,0,0,1,.21,10.51h-9.23v-.06a10.51,10.51,0,0,0-4-8.6Zm17.33,77.73a13.34,13.34,0,0,1-13.29-13.36V610.79h6.18v16.89a7.4,7.4,0,1,0,9.23-7.2v-5c11,.84,11.17,11.55,11.17,12a13.34,13.34,0,0,1-13.29,13.36Z" transform="translate(-3.12 -0.72)" fill="#fff"/><path id="Fill-90" d="M128.18,628.24a.92.92,0,0,0-1.39-.38c-3,2.22-6.84,3.06-15.21,3.33-6.37.2-12.44-1.13-15.12-3.31a.91.91,0,0,0-1.42.36l-3.24,7.64a.93.93,0,0,0,.11.92c1.49,2,5,3.67,9.46,4.74l-6.27,18.7a.92.92,0,0,0,.3,1,17.58,17.58,0,0,0,10.35,3.34c.52,0,1.06,0,1.61-.07a.92.92,0,0,0,.82-.77l3.34-21h.09l.84,0a.89.89,0,0,0,0,.21l2.73,21a.92.92,0,0,0,.71.78,14,14,0,0,0,2.85.26,17.9,17.9,0,0,0,9.33-2.61.92.92,0,0,0,.4-1.06l-6-19.88c4-1.05,7.3-2.65,8.88-4.55a.92.92,0,0,0,.14-1Zm-21.7,34.49a16.28,16.28,0,0,1-9.43-2.56l6.12-18.24a45,45,0,0,0,6.5.75Zm20-1.63a16.29,16.29,0,0,1-9.59,1.87l-2.64-20.29v0a44,44,0,0,0,6.37-.84Zm-14.87-20.22c-7.54,0-15.33-2.12-17.91-4.8L96.28,630c3.32,2.05,9.15,3.23,15.36,3,7-.22,11.67-.8,15.29-3l2.57,6.06c-2.5,2.41-9.35,4.83-17.89,4.83Z" transform="translate(-3.12 -0.72)" fill="#fff"/><path id="Fill-92" d="M107.76,598.37a.92.92,0,0,0-.92.92v5.83a5.68,5.68,0,1,0,11.37,0v-5.83a.92.92,0,1,0-1.83,0v5.83a3.85,3.85,0,1,1-7.7,0v-5.83a.92.92,0,0,0-.92-.92" transform="translate(-3.12 -0.72)" fill="#fff"/><path id="Fill-94" d="M96.85,588.13a4.63,4.63,0,0,1-4.61-4.64.92.92,0,1,1,1.83,0,2.78,2.78,0,1,0,5.56,0,.92.92,0,1,1,1.83,0,4.63,4.63,0,0,1-4.61,4.64" transform="translate(-3.12 -0.72)" fill="#fff"/><g id="Group"><path id="Fill-96" d="M128.76,588.13a4.63,4.63,0,0,1-4.61-4.64.92.92,0,1,1,1.83,0,2.78,2.78,0,1,0,5.56,0,.92.92,0,1,1,1.83,0,4.63,4.63,0,0,1-4.61,4.64" transform="translate(-3.12 -0.72)" fill="#fff"/></g></g></g></g></g></g><g id="iPhone-7-6" data-name="iPhone-7"><g id="Categories-6" data-name="Categories"><g id="User-Generated"><g id="UG-large-symbol"><g id="User-Generated-large-symbol-windmill"><path id="Fill-1" d="M336.81,662.93h-98a.9.9,0,1,1,0-1.8h98a.9.9,0,0,1,0,1.8" transform="translate(-3.12 -0.72)" fill="#fff"/><path id="Fill-3" d="M296.82,662.93a.9.9,0,0,1-.9-.9V637.56H278.78V662a.9.9,0,1,1-1.8,0V636.66a.9.9,0,0,1,.9-.9h18.94a.9.9,0,0,1,.9.9V662a.9.9,0,0,1-.9.9" transform="translate(-3.12 -0.72)" fill="#fff"/><path id="Fill-5" d="M287.82,587.28a8.5,8.5,0,1,0,8.5,8.5,8.51,8.51,0,0,0-8.5-8.5m0,18.79a10.3,10.3,0,1,1,10.3-10.3,10.31,10.31,0,0,1-10.3,10.3" transform="translate(-3.12 -0.72)" fill="#fff"/><path id="Fill-7" d="M319.3,662.93a.9.9,0,0,1-.9-.9V641.58a.9.9,0,0,1,1.8,0V662a.9.9,0,0,1-.9.9" transform="translate(-3.12 -0.72)" fill="#fff"/><path id="Fill-9" d="M319.3,614.13a.9.9,0,0,1-.9-.9V597.07a31.12,31.12,0,0,0-3.62-14.57.9.9,0,1,1,1.59-.85,32.93,32.93,0,0,1,3.84,15.42v16.17a.9.9,0,0,1-.9.9" transform="translate(-3.12 -0.72)" fill="#fff"/><path id="Fill-11" d="M301.09,569.11a.9.9,0,0,1-.39-.09,31.12,31.12,0,0,0-26.51-.09.9.9,0,0,1-.77-1.63,32.93,32.93,0,0,1,28.06.09.9.9,0,0,1-.39,1.71" transform="translate(-3.12 -0.72)" fill="#fff"/><path id="Fill-13" d="M255.4,614.41a.9.9,0,0,1-.9-.9V597.07a32.9,32.9,0,0,1,3.93-15.6.9.9,0,0,1,1.58.86,31.09,31.09,0,0,0-3.72,14.74v16.44a.9.9,0,0,1-.9.9" transform="translate(-3.12 -0.72)" fill="#fff"/><path id="Fill-15" d="M255.4,662.93a.9.9,0,0,1-.9-.9V641.85a.9.9,0,1,1,1.8,0V662a.9.9,0,0,1-.9.9" transform="translate(-3.12 -0.72)" fill="#fff"/><g id="Group-19"><g mask="url(#mask)"><path id="Fill-17" d="M298.37,619.37l31.32,31.32,12.9-12.9-31.32-31.32Zm31.32,33.49a.9.9,0,0,1-.64-.26L296.46,620a.9.9,0,0,1,0-1.27l14.17-14.17a.9.9,0,0,1,1.27,0l32.59,32.59a.9.9,0,0,1,0,1.27L330.32,652.6a.89.89,0,0,1-.64.26Z" transform="translate(-3.12 -0.72)" fill="#fff"/></g></g><path id="Fill-27" d="M281,590.24a.9.9,0,0,1-.63-.26l-42.83-42.58a.9.9,0,0,1,1.27-1.28l42.83,42.58a.9.9,0,0,1-.63,1.54" transform="translate(-3.12 -0.72)" fill="#fff"/><path id="Fill-20" d="M232.39,637.79l12.9,12.9,31.32-31.32-12.9-12.9Zm12.9,15.07a.89.89,0,0,1-.64-.26l-14.17-14.17a.9.9,0,0,1,0-1.27l32.59-32.59a.9.9,0,0,1,1.27,0l14.17,14.17a.9.9,0,0,1,0,1.27L245.93,652.6a.89.89,0,0,1-.64.26Z" transform="translate(-3.12 -0.72)" fill="#fff"/><path id="Fill-22" d="M232.39,553.79l31.32,31.32,12.9-12.9-31.32-31.32Zm31.32,33.49a.9.9,0,0,1-.64-.26l-32.59-32.59a.9.9,0,0,1,0-1.27L244.66,539a.9.9,0,0,1,1.27,0l32.59,32.59a.9.9,0,0,1,0,1.27L264.35,587a.89.89,0,0,1-.64.26Z" transform="translate(-3.12 -0.72)" fill="#fff"/><path id="Fill-29" d="M336.81,645.74a.89.89,0,0,1-.63-.26l-42.5-42.26a.9.9,0,0,1,1.27-1.28l42.5,42.26a.9.9,0,0,1-.63,1.54" transform="translate(-3.12 -0.72)" fill="#fff"/><path id="Fill-31" d="M294.6,590.18a.9.9,0,0,1-.63-1.54l42.49-42.25a.9.9,0,1,1,1.27,1.28l-42.49,42.25a.9.9,0,0,1-.63.26" transform="translate(-3.12 -0.72)" fill="#fff"/><path id="Fill-33" d="M238.72,645.74a.9.9,0,0,1-.63-1.54l42.56-42.32a.9.9,0,0,1,1.27,1.28l-42.56,42.32a.89.89,0,0,1-.63.26" transform="translate(-3.12 -0.72)" fill="#fff"/><path id="Fill-1-2" data-name="Fill-1" d="M299,571.31l12.9,12.9,31.32-31.32L330.35,540Zm12.9,15.07a.9.9,0,0,1-.64-.26l-14.17-14.17a.9.9,0,0,1,0-1.27l32.59-32.59a.9.9,0,0,1,1.27,0l14.17,14.17a.9.9,0,0,1,0,1.27l-32.59,32.59a.9.9,0,0,1-.64.26Z" transform="translate(-3.12 -0.72)" fill="#fff"/></g></g></g></g></g><circle cx="196.29" cy="757.45" r="26.21" fill="none" stroke="#000" stroke-miterlimit="10" stroke-width="2"/><circle cx="196.29" cy="757.45" r="31.83" fill="none" stroke="#000" stroke-miterlimit="10" stroke-width="2"/><rect x="27.96" y="105.61" width="337.94" height="604.79" fill="none" stroke="#000" stroke-miterlimit="10" stroke-width="2"/><path d="M97.1,289.9a2.23,2.23,0,0,1,1.34.24,1.49,1.49,0,0,1,.53,1.32,1.47,1.47,0,0,1-.53,1.3,2.23,2.23,0,0,1-1.34.24H91.69c-1.21,0-1.63-.46-1.63-1.63V280.52a2.18,2.18,0,0,1,.26-1.39,2.4,2.4,0,0,1,2.95,0,2.18,2.18,0,0,1,.26,1.39v9.37Z" transform="translate(-3.12 -0.72)" fill="#fff"/><path d="M107.16,278.43a7.09,7.09,0,0,1,7.53,7.39,7.17,7.17,0,0,1-7.59,7.46,7.09,7.09,0,0,1-7.52-7.39A7.17,7.17,0,0,1,107.16,278.43Zm0,11.88c2.46,0,4-1.63,4-4.44s-1.58-4.47-4-4.47-4,1.63-4,4.44S104.67,290.32,107.14,290.32Z" transform="translate(-3.12 -0.72)" fill="#fff"/><path d="M125.68,280.33c.37-1,.7-1.69,2.2-1.69,1.12,0,1.65.37,1.65,1.08a2.86,2.86,0,0,1-.26,1l-4.53,10.65c-.48,1.17-.81,1.74-2.18,1.74s-1.8-.66-2.24-1.72L116,280.79a2.61,2.61,0,0,1-.29-1c0-.77.59-1.12,1.69-1.12,1.39,0,1.78.55,2.22,1.72l3,8.18Z" transform="translate(-3.12 -0.72)" fill="#fff"/><path d="M135.23,284h2.4a2.39,2.39,0,0,1,1.34.22,1.75,1.75,0,0,1,0,2.51,2.39,2.39,0,0,1-1.34.22h-2.4v3.06h3.67a2.39,2.39,0,0,1,1.34.22,1.75,1.75,0,0,1,0,2.51,2.39,2.39,0,0,1-1.34.22h-5.37c-1.19,0-1.63-.46-1.63-1.63v-11c0-1.19.44-1.63,1.63-1.63h4.93a2.39,2.39,0,0,1,1.34.22,1.75,1.75,0,0,1,0,2.51,2.39,2.39,0,0,1-1.34.22h-3.23Z" transform="translate(-3.12 -0.72)" fill="#fff"/><path d="M55,489.9a2.23,2.23,0,0,1,1.34.24,1.49,1.49,0,0,1,.53,1.32,1.47,1.47,0,0,1-.53,1.3A2.23,2.23,0,0,1,55,493H49.61c-1.21,0-1.63-.46-1.63-1.63V480.52a2.18,2.18,0,0,1,.26-1.39,2.4,2.4,0,0,1,2.95,0,2.18,2.18,0,0,1,.26,1.39v9.37Z" transform="translate(-3.12 -0.72)" fill="#fff"/><path d="M62.67,491.22a2.18,2.18,0,0,1-.26,1.39,2.4,2.4,0,0,1-2.95,0,2.18,2.18,0,0,1-.26-1.39V480.52a2.18,2.18,0,0,1,.26-1.39,2.4,2.4,0,0,1,2.95,0,2.18,2.18,0,0,1,.26,1.39Z" transform="translate(-3.12 -0.72)" fill="#fff"/><path d="M69.78,491.22a2.15,2.15,0,0,1-.26,1.36,1.64,1.64,0,0,1-1.43.53,1.69,1.69,0,0,1-1.45-.53,2.15,2.15,0,0,1-.26-1.36V480.37c0-1.14.46-1.58,1.63-1.58h5.08a2.23,2.23,0,0,1,1.34.24,1.47,1.47,0,0,1,.53,1.3,1.49,1.49,0,0,1-.53,1.32,2.23,2.23,0,0,1-1.34.24h-3.3v2.55h2.68a2.23,2.23,0,0,1,1.34.24,1.43,1.43,0,0,1,.53,1.28,1.45,1.45,0,0,1-.53,1.3,2.23,2.23,0,0,1-1.34.24H69.78Z" transform="translate(-3.12 -0.72)" fill="#fff"/><path d="M80.87,484h2.4a2.39,2.39,0,0,1,1.34.22,1.75,1.75,0,0,1,0,2.51,2.39,2.39,0,0,1-1.34.22h-2.4v3.06h3.67a2.39,2.39,0,0,1,1.34.22,1.75,1.75,0,0,1,0,2.51,2.39,2.39,0,0,1-1.34.22H79.17c-1.19,0-1.63-.46-1.63-1.63v-11c0-1.19.44-1.63,1.63-1.63H84.1a2.39,2.39,0,0,1,1.34.22,1.75,1.75,0,0,1,0,2.51,2.39,2.39,0,0,1-1.34.22H80.87Z" transform="translate(-3.12 -0.72)" fill="#fff"/><path d="M96.42,485.37A5.52,5.52,0,0,1,94.84,482c0-2,1.89-3.5,4.36-3.5s4.2,1.32,4.2,3.37c0,1.76-1.36,2.95-2.82,4,.77.77,1.5,1.43,2.16,2a6.94,6.94,0,0,0,.59-1.36c.33-1,.33-1.85,1.85-1.85,1.1,0,1.54.42,1.54,1.25a7,7,0,0,1-1.63,3.76c1.45,1,2.64.92,2.64,2.16a1.48,1.48,0,0,1-1.67,1.43,5.66,5.66,0,0,1-3.1-1.47,7.8,7.8,0,0,1-4.55,1.52c-2.84,0-4.62-1.61-4.62-3.85C93.78,487.52,95,486.31,96.42,485.37Zm4.38,4.53c-.84-.77-1.72-1.63-2.55-2.51A2.6,2.6,0,0,0,97,489.24c0,.75.59,1.3,1.72,1.3A3.73,3.73,0,0,0,100.8,489.9ZM99.11,481a1.05,1.05,0,0,0-1.17,1.12,3,3,0,0,0,.86,1.83c.9-.57,1.58-1.14,1.58-1.85A1.15,1.15,0,0,0,99.11,481Z" transform="translate(-3.12 -0.72)" fill="#fff"/><path d="M125.73,491.72a11,11,0,0,1-6.12,1.43,8.36,8.36,0,0,1-3.15-.42c-.84-.35-.95-.88-.95-1.72V480.79c0-1.08.24-1.63,1.61-1.94a14.82,14.82,0,0,1,3.06-.26,9.85,9.85,0,0,1,5.7,1.36c1.45,1,2.66,2.79,2.66,5.81C128.54,488.93,127.22,490.73,125.73,491.72ZM119,490.14s.51,0,1.12,0c1.52,0,4.93-.26,4.93-4.25a4.28,4.28,0,0,0-1.43-3.5,5,5,0,0,0-3.28-.88,8.32,8.32,0,0,0-1.34.09Z" transform="translate(-3.12 -0.72)" fill="#fff"/><path d="M134.61,484H137a2.39,2.39,0,0,1,1.34.22,1.75,1.75,0,0,1,0,2.51A2.39,2.39,0,0,1,137,487h-2.4v3.06h3.67a2.39,2.39,0,0,1,1.34.22,1.75,1.75,0,0,1,0,2.51,2.39,2.39,0,0,1-1.34.22h-5.37c-1.19,0-1.63-.46-1.63-1.63v-11c0-1.19.44-1.63,1.63-1.63h4.93a2.39,2.39,0,0,1,1.34.22,1.75,1.75,0,0,1,0,2.51,2.39,2.39,0,0,1-1.34.22h-3.23Z" transform="translate(-3.12 -0.72)" fill="#fff"/><path d="M150.89,489.72h-5l-.66,1.78c-.42,1.1-.86,1.61-2.09,1.61s-1.52-.4-1.52-1a2.29,2.29,0,0,1,.24-.9l4.58-11c.44-1,.88-1.63,2.11-1.63s1.63.59,2,1.63l4.4,11a2.26,2.26,0,0,1,.2.81c0,.68-.53,1.06-1.63,1.06s-1.58-.44-2-1.61Zm-4-2.73h3l-1.5-4Z" transform="translate(-3.12 -0.72)" fill="#fff"/><path d="M162.73,491.22a2.15,2.15,0,0,1-.26,1.36,2.32,2.32,0,0,1-2.95,0,2.15,2.15,0,0,1-.26-1.36v-9.33h-2.4a2.23,2.23,0,0,1-1.34-.24,1.48,1.48,0,0,1-.53-1.3,1.49,1.49,0,0,1,.53-1.32,2.23,2.23,0,0,1,1.34-.24h8.27a2.23,2.23,0,0,1,1.34.24,1.49,1.49,0,0,1,.53,1.32,1.48,1.48,0,0,1-.53,1.3,2.23,2.23,0,0,1-1.34.24h-2.4Z" transform="translate(-3.12 -0.72)" fill="#fff"/><path d="M182,491.22a2.18,2.18,0,0,1-.26,1.39,2.4,2.4,0,0,1-2.95,0,2.18,2.18,0,0,1-.26-1.39V487h-5.79v4.18a2.18,2.18,0,0,1-.26,1.39,2.4,2.4,0,0,1-2.95,0,2.18,2.18,0,0,1-.26-1.39V480.52a2.18,2.18,0,0,1,.26-1.39,2.4,2.4,0,0,1,2.95,0,2.18,2.18,0,0,1,.26,1.39V484h5.79v-3.43a2.19,2.19,0,0,1,.26-1.39,2.4,2.4,0,0,1,2.95,0,2.19,2.19,0,0,1,.26,1.39Z" transform="translate(-3.12 -0.72)" fill="#fff"/><path d="M275.29,285.17a4.23,4.23,0,0,1,2.18,3.7c0,2.79-2.33,4.36-5.13,4.36a6.81,6.81,0,0,1-3-.66c-.7-.35-1.28-.81-1.28-1.58s.53-1.67,1.39-1.67,1.56,1,2.9,1c1,0,1.63-.51,1.63-1.3s-.79-1.34-1.76-1.85c-1.67-.86-4-1.89-4-4.49s2.2-4.18,4.93-4.18c1.94,0,4,.84,4,2.13a1.63,1.63,0,0,1-1.45,1.61c-.79,0-1.5-.81-2.62-.81-.86,0-1.39.46-1.39,1.06C271.75,283.63,273.73,284.13,275.29,285.17Z" transform="translate(-3.12 -0.72)" fill="#fff"/><path d="M283.47,284h2.4a2.39,2.39,0,0,1,1.34.22,1.75,1.75,0,0,1,0,2.51,2.39,2.39,0,0,1-1.34.22h-2.4v3.06h3.67a2.39,2.39,0,0,1,1.34.22,1.76,1.76,0,0,1,0,2.51,2.39,2.39,0,0,1-1.34.22h-5.37c-1.19,0-1.63-.46-1.63-1.63v-11c0-1.19.44-1.63,1.63-1.63h4.93A2.39,2.39,0,0,1,288,279a1.75,1.75,0,0,1,0,2.51,2.39,2.39,0,0,1-1.34.22h-3.23Z" transform="translate(-3.12 -0.72)" fill="#fff"/><path d="M299.69,280.08a2.5,2.5,0,0,1,2.49-1.45c1.25,0,1.61.42,1.61.92a2.14,2.14,0,0,1-.62,1.25l-3.61,4.8,3.83,5.19a2.46,2.46,0,0,1,.64,1.34c0,.57-.48,1-1.72,1a2.65,2.65,0,0,1-2.6-1.5l-2.44-3.74-2.44,3.79a2.53,2.53,0,0,1-2.49,1.45c-1.25,0-1.61-.42-1.61-.95a2.14,2.14,0,0,1,.59-1.23l3.87-5.24-3.48-4.75a2.49,2.49,0,0,1-.64-1.34c0-.57.51-1,1.74-1a2.63,2.63,0,0,1,2.57,1.5l2.13,3.3Z" transform="translate(-3.12 -0.72)" fill="#fff"/><path d="M220.46,488.2c-.42,0-.77,0-.77,0v3a2.15,2.15,0,0,1-.26,1.36,1.64,1.64,0,0,1-1.43.53,1.69,1.69,0,0,1-1.45-.53,2.15,2.15,0,0,1-.26-1.36V480.83c0-.75,0-1.47,1.12-1.89a8.72,8.72,0,0,1,2.77-.35,8.25,8.25,0,0,1,4.38,1,4.12,4.12,0,0,1,2,3.72C226.54,486.64,223.83,488.2,220.46,488.2Zm-.77-2.73a4.43,4.43,0,0,0,.66,0c1.39,0,2.68-.51,2.68-2s-1.06-2-2.55-2c-.4,0-.79,0-.79,0Z" transform="translate(-3.12 -0.72)" fill="#fff"/><path d="M232.37,484h2.4a2.39,2.39,0,0,1,1.34.22,1.75,1.75,0,0,1,0,2.51,2.39,2.39,0,0,1-1.34.22h-2.4v3.06H236a2.39,2.39,0,0,1,1.34.22,1.75,1.75,0,0,1,0,2.51A2.39,2.39,0,0,1,236,493h-5.37c-1.19,0-1.63-.46-1.63-1.63v-11c0-1.19.44-1.63,1.63-1.63h4.93a2.39,2.39,0,0,1,1.34.22,1.75,1.75,0,0,1,0,2.51,2.39,2.39,0,0,1-1.34.22h-3.23Z" transform="translate(-3.12 -0.72)" fill="#fff"/><path d="M244.09,491.22a2.3,2.3,0,0,1-.26,1.36,2.14,2.14,0,0,1-2.82,0,2.31,2.31,0,0,1-.24-1.36V480.83a1.64,1.64,0,0,1,1.3-1.94,10,10,0,0,1,2.77-.31,8.72,8.72,0,0,1,3.7.66,3.93,3.93,0,0,1,2.29,3.76,4.25,4.25,0,0,1-2.36,4l3.26,4.38c.62.81.26,1.76-1.41,1.76a2.51,2.51,0,0,1-2.38-1.45L246.18,489c-.37-.55-.77-1.28-.77-1.28h-1.32Zm0-6.18s.29,0,.62,0c1.76,0,2.62-.62,2.62-1.85s-1-1.72-2.27-1.72a7.26,7.26,0,0,0-1,.07Z" transform="translate(-3.12 -0.72)" fill="#fff"/><path d="M260.79,485.17a4.23,4.23,0,0,1,2.18,3.7c0,2.79-2.33,4.36-5.13,4.36a6.81,6.81,0,0,1-3-.66c-.7-.35-1.28-.81-1.28-1.58s.53-1.67,1.39-1.67,1.56,1,2.91,1c1,0,1.63-.51,1.63-1.3s-.79-1.34-1.76-1.85c-1.67-.86-4-1.89-4-4.49s2.2-4.18,4.93-4.18c1.94,0,4,.84,4,2.13a1.63,1.63,0,0,1-1.45,1.61c-.79,0-1.5-.81-2.62-.81-.86,0-1.39.46-1.39,1.06C257.25,483.63,259.23,484.13,260.79,485.17Z" transform="translate(-3.12 -0.72)" fill="#fff"/><path d="M272.29,478.43a7.09,7.09,0,0,1,7.53,7.39,7.17,7.17,0,0,1-7.59,7.46,7.09,7.09,0,0,1-7.52-7.39A7.17,7.17,0,0,1,272.29,478.43Zm0,11.88c2.46,0,4-1.63,4-4.44s-1.58-4.47-4-4.47-4,1.63-4,4.44S269.81,490.32,272.27,490.32Z" transform="translate(-3.12 -0.72)" fill="#fff"/><path d="M285.93,491.22a2.11,2.11,0,0,1-.26,1.36,1.65,1.65,0,0,1-1.41.53,1.67,1.67,0,0,1-1.43-.53,2.15,2.15,0,0,1-.26-1.36V480c0-.84.59-1.36,1.83-1.36a2.56,2.56,0,0,1,2.33,1.3l5.68,7.44v-6.82a2.11,2.11,0,0,1,.26-1.36,1.65,1.65,0,0,1,1.41-.53,1.67,1.67,0,0,1,1.43.53,2.11,2.11,0,0,1,.26,1.36v11.27c0,.92-.59,1.39-1.61,1.39a2.48,2.48,0,0,1-2.16-1.25l-6.07-7.77Z" transform="translate(-3.12 -0.72)" fill="#fff"/><path d="M307.34,489.72h-5l-.66,1.78c-.42,1.1-.86,1.61-2.09,1.61s-1.52-.4-1.52-1a2.28,2.28,0,0,1,.24-.9l4.58-11c.44-1,.88-1.63,2.11-1.63s1.63.59,2,1.63l4.4,11a2.26,2.26,0,0,1,.2.81c0,.68-.53,1.06-1.63,1.06s-1.58-.44-2-1.61Zm-4-2.73h3l-1.5-4Z" transform="translate(-3.12 -0.72)" fill="#fff"/><path d="M321,489.9a2.23,2.23,0,0,1,1.34.24,1.49,1.49,0,0,1,.53,1.32,1.47,1.47,0,0,1-.53,1.3A2.23,2.23,0,0,1,321,493h-5.41c-1.21,0-1.63-.46-1.63-1.63V480.52a2.18,2.18,0,0,1,.26-1.39,2.4,2.4,0,0,1,2.95,0,2.18,2.18,0,0,1,.26,1.39v9.37Z" transform="translate(-3.12 -0.72)" fill="#fff"/><path d="M328.66,491.22a2.18,2.18,0,0,1-.26,1.39,2.4,2.4,0,0,1-2.95,0,2.18,2.18,0,0,1-.26-1.39V480.52a2.19,2.19,0,0,1,.26-1.39,2.4,2.4,0,0,1,2.95,0,2.19,2.19,0,0,1,.26,1.39Z" transform="translate(-3.12 -0.72)" fill="#fff"/><path d="M338.69,491.22a2.15,2.15,0,0,1-.26,1.36,2.32,2.32,0,0,1-2.95,0,2.14,2.14,0,0,1-.26-1.36v-9.33h-2.4a2.23,2.23,0,0,1-1.34-.24,1.48,1.48,0,0,1-.53-1.3,1.49,1.49,0,0,1,.53-1.32,2.23,2.23,0,0,1,1.34-.24h8.27a2.23,2.23,0,0,1,1.34.24,1.49,1.49,0,0,1,.53,1.32,1.48,1.48,0,0,1-.53,1.3,2.23,2.23,0,0,1-1.34.24h-2.4Z" transform="translate(-3.12 -0.72)" fill="#fff"/><path d="M353,480.15a2.36,2.36,0,0,1,2.44-1.52c1.21,0,1.61.4,1.61.95a2.32,2.32,0,0,1-.53,1.23l-4.42,6.84v3.56a2.18,2.18,0,0,1-.26,1.39,2.4,2.4,0,0,1-2.95,0,2.18,2.18,0,0,1-.26-1.39v-3.54l-4.22-6.75a2.53,2.53,0,0,1-.55-1.28c0-.64.53-1,1.72-1a2.44,2.44,0,0,1,2.51,1.54l2.42,4.27Z" transform="translate(-3.12 -0.72)" fill="#fff"/><path d="M83.73,692h2.4a2.39,2.39,0,0,1,1.34.22,1.75,1.75,0,0,1,0,2.51,2.39,2.39,0,0,1-1.34.22h-2.4v3.06H87.4a2.39,2.39,0,0,1,1.34.22,1.75,1.75,0,0,1,0,2.51,2.39,2.39,0,0,1-1.34.22H82c-1.19,0-1.63-.46-1.63-1.63v-11c0-1.19.44-1.63,1.63-1.63H87a2.39,2.39,0,0,1,1.34.22,1.75,1.75,0,0,1,0,2.51,2.39,2.39,0,0,1-1.34.22H83.73Z" transform="translate(-3.12 -0.72)" fill="#fff"/><path d="M98.34,699.22a2.15,2.15,0,0,1-.26,1.36,2.32,2.32,0,0,1-2.95,0,2.15,2.15,0,0,1-.26-1.36v-9.33h-2.4a2.23,2.23,0,0,1-1.34-.24,1.48,1.48,0,0,1-.53-1.3,1.49,1.49,0,0,1,.53-1.32,2.23,2.23,0,0,1,1.34-.24h8.27a2.23,2.23,0,0,1,1.34.24,1.49,1.49,0,0,1,.53,1.32,1.48,1.48,0,0,1-.53,1.3,2.23,2.23,0,0,1-1.34.24h-2.4Z" transform="translate(-3.12 -0.72)" fill="#fff"/><path d="M117.63,699.22a2.18,2.18,0,0,1-.26,1.39,2.4,2.4,0,0,1-2.95,0,2.18,2.18,0,0,1-.26-1.39V695h-5.79v4.18a2.18,2.18,0,0,1-.26,1.39,2.4,2.4,0,0,1-2.95,0,2.18,2.18,0,0,1-.26-1.39V688.52a2.18,2.18,0,0,1,.26-1.39,2.4,2.4,0,0,1,2.95,0,2.18,2.18,0,0,1,.26,1.39V692h5.79v-3.43a2.19,2.19,0,0,1,.26-1.39,2.4,2.4,0,0,1,2.95,0,2.19,2.19,0,0,1,.26,1.39Z" transform="translate(-3.12 -0.72)" fill="#fff"/><path d="M124.8,699.22a2.18,2.18,0,0,1-.26,1.39,2.4,2.4,0,0,1-2.95,0,2.18,2.18,0,0,1-.26-1.39V688.52a2.18,2.18,0,0,1,.26-1.39,2.4,2.4,0,0,1,2.95,0,2.18,2.18,0,0,1,.26,1.39Z" transform="translate(-3.12 -0.72)" fill="#fff"/><path d="M134.94,698.1a4.36,4.36,0,0,0,1.67-.33,5,5,0,0,1,1.54-.57c.9,0,1.39,1.08,1.39,1.74a1.72,1.72,0,0,1-1,1.41,7.78,7.78,0,0,1-3.81.9c-4,0-7.19-2.71-7.19-7.39a6.94,6.94,0,0,1,7.26-7.37,7.7,7.7,0,0,1,3.74.88,1.69,1.69,0,0,1,1,1.43c0,.68-.46,1.76-1.39,1.76a5.08,5.08,0,0,1-1.65-.57,4.55,4.55,0,0,0-1.74-.35c-1.94,0-3.7,1.25-3.7,4.16S132.92,698.1,134.94,698.1Z" transform="translate(-3.12 -0.72)" fill="#fff"/><path d="M148.43,693.17a4.23,4.23,0,0,1,2.18,3.7c0,2.79-2.33,4.36-5.13,4.36a6.8,6.8,0,0,1-3-.66c-.7-.35-1.28-.81-1.28-1.58s.53-1.67,1.39-1.67,1.56,1,2.9,1c1,0,1.63-.51,1.63-1.3s-.79-1.34-1.76-1.85c-1.67-.86-4-1.89-4-4.49s2.2-4.18,4.93-4.18c1.94,0,4,.84,4,2.13a1.64,1.64,0,0,1-1.45,1.61c-.79,0-1.5-.81-2.62-.81-.86,0-1.39.46-1.39,1.06C144.89,691.63,146.87,692.13,148.43,693.17Z" transform="translate(-3.12 -0.72)" fill="#fff"/><path d="M216.76,695.9a3.37,3.37,0,0,0,.55-2.2v-5.47a1.88,1.88,0,0,1,.23-1.2,2,2,0,0,1,2.51,0,1.88,1.88,0,0,1,.23,1.2v5.32a5.75,5.75,0,0,1-1.08,4c-.82,1-2.15,1.63-4.43,1.63s-3.59-.7-4.39-1.63a5.67,5.67,0,0,1-1.1-4.06v-5.3a1.88,1.88,0,0,1,.23-1.2,2.07,2.07,0,0,1,2.55,0,1.88,1.88,0,0,1,.23,1.2v5.47a3.34,3.34,0,0,0,.53,2.2,2.46,2.46,0,0,0,2,.76A2.41,2.41,0,0,0,216.76,695.9Z" transform="translate(-3.12 -0.72)" fill="#fff"/><path d="M228.85,692.24a3.65,3.65,0,0,1,1.88,3.19c0,2.41-2,3.76-4.43,3.76a5.88,5.88,0,0,1-2.58-.57c-.61-.3-1.1-.7-1.1-1.37s.46-1.44,1.2-1.44,1.35.87,2.51.87c.84,0,1.41-.44,1.41-1.12s-.68-1.16-1.52-1.6c-1.44-.74-3.42-1.63-3.42-3.88s1.9-3.61,4.26-3.61c1.67,0,3.46.72,3.46,1.84a1.41,1.41,0,0,1-1.25,1.39c-.68,0-1.29-.7-2.26-.7-.74,0-1.2.4-1.2.91C225.79,690.91,227.5,691.34,228.85,692.24Z" transform="translate(-3.12 -0.72)" fill="#fff"/><path d="M235.92,691.27H238a2.07,2.07,0,0,1,1.16.19,1.51,1.51,0,0,1,0,2.17,2.07,2.07,0,0,1-1.16.19h-2.07v2.64h3.17a2.06,2.06,0,0,1,1.16.19,1.52,1.52,0,0,1,0,2.17,2.06,2.06,0,0,1-1.16.19h-4.63c-1,0-1.41-.4-1.41-1.41v-9.46c0-1,.38-1.41,1.41-1.41h4.26a2.05,2.05,0,0,1,1.16.19,1.51,1.51,0,0,1,0,2.17,2.05,2.05,0,0,1-1.16.19h-2.79Z" transform="translate(-3.12 -0.72)" fill="#fff"/><path d="M246,697.46a2,2,0,0,1-.23,1.18,1.85,1.85,0,0,1-2.43,0,2,2,0,0,1-.21-1.18v-9a1.42,1.42,0,0,1,1.12-1.67,8.6,8.6,0,0,1,2.39-.27,7.52,7.52,0,0,1,3.19.57,3.39,3.39,0,0,1,2,3.25,3.66,3.66,0,0,1-2,3.42l2.81,3.78c.53.7.23,1.52-1.22,1.52a2.16,2.16,0,0,1-2.05-1.25l-1.52-2.28c-.32-.47-.67-1.1-.67-1.1H246Zm0-5.34.53,0c1.52,0,2.26-.53,2.26-1.6s-.86-1.48-2-1.48a6.34,6.34,0,0,0-.84.06Z" transform="translate(-3.12 -0.72)" fill="#fff"/><path d="M270,696.91c0,.82-.15,1.25-1.22,1.69a8.92,8.92,0,0,1-3.25.59c-3.63,0-6.55-2.13-6.55-6.35,0-4.5,3.33-6.38,6.59-6.38a7.27,7.27,0,0,1,3.29.72c.57.3,1,.67,1,1.25s-.4,1.52-1.22,1.52a3.73,3.73,0,0,1-1.25-.42,4.84,4.84,0,0,0-1.84-.38,3.29,3.29,0,0,0-3.48,3.65c0,2.56,1.61,3.76,3.5,3.76a3.92,3.92,0,0,0,1.48-.27v-1.2a1.88,1.88,0,0,1,.23-1.2,2.07,2.07,0,0,1,2.54,0,1.88,1.88,0,0,1,.23,1.2Z" transform="translate(-3.12 -0.72)" fill="#fff"/><path d="M275.47,691.27h2.07a2.06,2.06,0,0,1,1.16.19,1.51,1.51,0,0,1,0,2.17,2.06,2.06,0,0,1-1.16.19h-2.07v2.64h3.17a2.06,2.06,0,0,1,1.16.19,1.51,1.51,0,0,1,0,2.17,2.06,2.06,0,0,1-1.16.19H274c-1,0-1.41-.4-1.41-1.41v-9.46c0-1,.38-1.41,1.41-1.41h4.25a2.06,2.06,0,0,1,1.16.19,1.52,1.52,0,0,1,0,2.17,2.06,2.06,0,0,1-1.16.19h-2.79Z" transform="translate(-3.12 -0.72)" fill="#fff"/><path d="M285.64,697.46a1.83,1.83,0,0,1-.23,1.18,1.43,1.43,0,0,1-1.22.46,1.44,1.44,0,0,1-1.23-.46,1.85,1.85,0,0,1-.23-1.18v-9.71c0-.72.51-1.18,1.58-1.18a2.21,2.21,0,0,1,2,1.12l4.9,6.42v-5.89a1.83,1.83,0,0,1,.23-1.18,1.43,1.43,0,0,1,1.22-.46,1.44,1.44,0,0,1,1.23.46,1.82,1.82,0,0,1,.23,1.18V698c0,.8-.51,1.2-1.39,1.2a2.14,2.14,0,0,1-1.86-1.08l-5.24-6.71Z" transform="translate(-3.12 -0.72)" fill="#fff"/><path d="M300.19,691.27h2.07a2.06,2.06,0,0,1,1.16.19,1.51,1.51,0,0,1,0,2.17,2.06,2.06,0,0,1-1.16.19h-2.07v2.64h3.17a2.06,2.06,0,0,1,1.16.19,1.51,1.51,0,0,1,0,2.17,2.06,2.06,0,0,1-1.16.19h-4.63c-1,0-1.41-.4-1.41-1.41v-9.46c0-1,.38-1.41,1.41-1.41H303a2.06,2.06,0,0,1,1.16.19,1.52,1.52,0,0,1,0,2.17,2.06,2.06,0,0,1-1.16.19h-2.79Z" transform="translate(-3.12 -0.72)" fill="#fff"/><path d="M310.32,697.46a2,2,0,0,1-.23,1.18,1.39,1.39,0,0,1-1.22.46,1.38,1.38,0,0,1-1.22-.46,2,2,0,0,1-.21-1.18v-9a1.42,1.42,0,0,1,1.12-1.67,8.59,8.59,0,0,1,2.39-.27,7.52,7.52,0,0,1,3.19.57,3.39,3.39,0,0,1,2,3.25,3.67,3.67,0,0,1-2,3.42l2.81,3.78c.53.7.23,1.52-1.22,1.52a2.16,2.16,0,0,1-2.05-1.25l-1.52-2.28c-.32-.47-.67-1.1-.67-1.1h-1.14Zm0-5.34.53,0c1.52,0,2.26-.53,2.26-1.6s-.85-1.48-2-1.48a6.32,6.32,0,0,0-.84.06Z" transform="translate(-3.12 -0.72)" fill="#fff"/><path d="M326.28,696.17H322l-.57,1.54c-.36,1-.74,1.39-1.8,1.39s-1.31-.34-1.31-.87a2,2,0,0,1,.21-.78l4-9.46c.38-.89.76-1.41,1.82-1.41s1.41.51,1.77,1.41l3.8,9.5a2,2,0,0,1,.17.7c0,.59-.46.91-1.41.91s-1.37-.38-1.75-1.39Zm-3.44-2.36h2.58l-1.29-3.44Z" transform="translate(-3.12 -0.72)" fill="#fff"/><path d="M336.5,697.46a1.85,1.85,0,0,1-.23,1.18,2,2,0,0,1-2.54,0,1.85,1.85,0,0,1-.23-1.18v-8.05h-2.07a1.93,1.93,0,0,1-1.16-.21,1.27,1.27,0,0,1-.46-1.12,1.29,1.29,0,0,1,.46-1.14,1.93,1.93,0,0,1,1.16-.21h7.14a1.92,1.92,0,0,1,1.16.21,1.29,1.29,0,0,1,.46,1.14,1.27,1.27,0,0,1-.46,1.12,1.92,1.92,0,0,1-1.16.21H336.5Z" transform="translate(-3.12 -0.72)" fill="#fff"/><path d="M345,691.27h2.07a2.06,2.06,0,0,1,1.16.19,1.51,1.51,0,0,1,0,2.17,2.06,2.06,0,0,1-1.16.19H345v2.64h3.17a2.06,2.06,0,0,1,1.16.19,1.51,1.51,0,0,1,0,2.17,2.06,2.06,0,0,1-1.16.19h-4.63c-1,0-1.41-.4-1.41-1.41v-9.46c0-1,.38-1.41,1.41-1.41h4.25a2.06,2.06,0,0,1,1.16.19,1.52,1.52,0,0,1,0,2.17,2.06,2.06,0,0,1-1.16.19H345Z" transform="translate(-3.12 -0.72)" fill="#fff"/><path d="M361.11,697.9a9.51,9.51,0,0,1-5.28,1.23,7.21,7.21,0,0,1-2.72-.36c-.72-.3-.82-.76-.82-1.48v-8.83c0-.93.21-1.41,1.39-1.67a12.69,12.69,0,0,1,2.64-.23,8.5,8.5,0,0,1,4.92,1.18,6.64,6.64,0,0,1-.13,10.16Zm-5.83-1.37s.44,0,1,0c1.31,0,4.26-.23,4.26-3.67a3.7,3.7,0,0,0-1.23-3,4.33,4.33,0,0,0-2.83-.76,7.16,7.16,0,0,0-1.16.08Z" transform="translate(-3.12 -0.72)" fill="#fff"/><circle cx="137.02" cy="58.28" r="8.33" fill="none" stroke="#000" stroke-miterlimit="10"/><circle cx="197.13" cy="31.28" r="6.54" fill="none" stroke="#000" stroke-miterlimit="10"/><rect x="162.88" y="54.28" width="66" height="8.33" rx="4.17" ry="4.17" fill="none" stroke="#000" stroke-miterlimit="10"/><g id="iPhone-7-7" data-name="iPhone-7"><g id="Categories-7" data-name="Categories"><g id="Love-2" data-name="Love"><g id="love-small-symbol"><path id="Love-small-symbol-heart" d="M43,119.58c4.21-4.86,9,2.84,9,2.84s5.61-7.34,9.16-1.81c3,4.71-7.82,14.64-9.71,14.56S39.39,123.77,43,119.58" transform="translate(-3.12 -0.72)" fill="#fff"/></g></g></g></g><g id="iPhone-7-8" data-name="iPhone-7"><g id="Categories-8" data-name="Categories"><g id="Sex-2" data-name="Sex"><g id="sex-small-symbol"><path id="Sex-small-symbol-peach" d="M229.55,122.62c-.71-2.39-4.82-3.94-7.34-1.76-1,1.41-2.88,3.86-.87,7.44a.81.81,0,0,1-.34,1.13c-.42.21-.88-.17-1.08-.55-1.93-3.67-.81-6.13.56-8.4a1.6,1.6,0,0,0-.6-.58c-2.29-1.53-6.92-.8-7.76,4.25-1,5.86,6.67,9,10.16,9.35,2.18.21.16-1.69,3.5-3.7,4.1-2.46,4.45-4.91,3.78-7.17" transform="translate(-3.12 -0.72)" fill="#fff"/></g></g></g></g><g id="iPhone-7-9" data-name="iPhone-7"><g id="Categories-9" data-name="Categories"><g id="Life-_-death-2" data-name="Life-&amp;-death"><g id="death-small-symbol"><path id="Death-small-symbol-skull" d="M49.74,322.7a8.19,8.19,0,0,0-8.4,8,8.4,8.4,0,0,0,2.07,5.24,4.5,4.5,0,0,1,1.27,2.61v1.85a1.66,1.66,0,0,0,3.31,0v-.21a1.74,1.74,0,1,0,3.48,0v.21a1.66,1.66,0,0,0,3.31,0v-1.9a3.89,3.89,0,0,1,1.28-2.56,8.05,8.05,0,0,0,2.07-5.23c0-4.4-2.83-8-7.47-8m-4.91,11.51a1.78,1.78,0,1,1,1.77-1.78,1.78,1.78,0,0,1-1.77,1.78m5.77,3.39c-.79,1-1.8-.49-1.8-.49s-1,1.51-1.8.44c-.64-.91,1.42-3,1.8-3s2.48,2.16,1.8,3m2.31-3.39a1.78,1.78,0,1,1,1.77-1.78,1.78,1.78,0,0,1-1.77,1.78" transform="translate(-3.12 -0.72)" fill="#fff"/></g></g></g></g><g id="iPhone-7-10" data-name="iPhone-7"><g id="Categories-10" data-name="Categories"><g id="Personality-2" data-name="Personality"><g id="personality-small"><path id="Personality-small-symbol-glasses" d="M236.11,322.45a1.19,1.19,0,0,0-1.69,0l-2,2a4.9,4.9,0,0,0-6.92,1.57,4.79,4.79,0,0,0-2-.47,4.11,4.11,0,0,0-1.75.42,4.92,4.92,0,0,0-4.18-2.34,4.87,4.87,0,0,0-2.4.65l-1.85-1.86a1.19,1.19,0,0,0-1.69,1.69l1.8,1.8a4.93,4.93,0,1,0,9.08,2.66c0-.08,0-.16,0-.24a1.73,1.73,0,0,1,1.05-.39,2.09,2.09,0,0,1,1.27.41c0,.07,0,.14,0,.22a4.93,4.93,0,1,0,9.87,0,4.87,4.87,0,0,0-.62-2.34l2.12-2.12a1.19,1.19,0,0,0,0-1.69m-18.58,8.69a2.54,2.54,0,0,1-1.85-4.28,1.12,1.12,0,0,0,.19-.13,1.19,1.19,0,0,0,.08-.11,2.52,2.52,0,0,1,1.59-.57,2.55,2.55,0,0,1,0,5.1m12.14,0a2.55,2.55,0,1,1,2.55-2.55,2.55,2.55,0,0,1-2.55,2.55" transform="translate(-3.12 -0.72)" fill="#fff"/></g></g></g></g><g id="iPhone-7-11" data-name="iPhone-7"><g id="Categories-11" data-name="Categories"><g id="User-Generated-2" data-name="User-Generated"><g id="UG-small-symbol"><path id="UG-small-symbol-lightbulb" d="M223.64,521.81a7.05,7.05,0,0,0-5.45-2,7.44,7.44,0,0,0-3.45,13.58,1.69,1.69,0,0,1,.59.7l.09.24a1.58,1.58,0,0,1,.07.48v2.5a2.45,2.45,0,0,0,2.43,2.48h1.44a2.45,2.45,0,0,0,2.43-2.48V535a1.73,1.73,0,0,1,.83-1.47,7.39,7.39,0,0,0,3.38-6.26A7.72,7.72,0,0,0,223.64,521.81Z" transform="translate(-3.12 -0.72)" fill="#fff"/></g></g></g></g><g id="iPhone-7-12" data-name="iPhone-7"><g id="Categories-12" data-name="Categories"><g id="Ethics-2" data-name="Ethics"><g id="ethics-small-symbol"><path id="Ethics-small-symbol-judge" d="M57.77,527a1.49,1.49,0,0,0-2,.42l-8.64-5.16a1.49,1.49,0,0,0-2.62-1.42l-2.85,4.83a1.51,1.51,0,0,0,.52,2.06h0a1.49,1.49,0,0,0,2-.52l0,0,3.16,1.89-4.83,8.16a1.51,1.51,0,0,0,.52,2.06,1.49,1.49,0,0,0,2-.52L50,530.61l2.9,1.73,0,0a1.51,1.51,0,0,0,.52,2.06,1.49,1.49,0,0,0,2-.52l2.85-4.82a1.51,1.51,0,0,0-.52-2.06" transform="translate(-3.12 -0.72)" fill="#fff"/></g></g></g></g><path d="M252.9,584.25a24.39,24.39,0,0,0-23.4-24.37v0H166V560a24.39,24.39,0,0,0,0,48.58v.21h63.5v-.13A24.39,24.39,0,0,0,252.9,584.25Z" transform="translate(-3.12 -0.72)" fill="#2b1d22"/><path d="M176.58,583.76a4.31,4.31,0,0,1,2.38,3.81c0,2.64-2.13,4-4.51,4a6.06,6.06,0,0,1-3-.77c-.55-.33-1-.75-1-1.19a.91.91,0,0,1,.79-.9c.66,0,1.34,1.23,3.12,1.23a2.39,2.39,0,0,0,2.66-2.33,3,3,0,0,0-1.89-2.6c-1.41-.79-4.31-1.78-4.31-4.55,0-2.16,1.78-3.65,4.29-3.65,1.87,0,3.54.86,3.54,1.65a.92.92,0,0,1-.79.9c-.62,0-1.28-.92-2.77-.92s-2.35.79-2.35,1.94C172.75,582.18,175.06,582.84,176.58,583.76Z" transform="translate(-3.12 -0.72)" fill="#fff"/><path d="M187.32,590.45a1.23,1.23,0,0,1-.13.73,1,1,0,0,1-.81.33,1,1,0,0,1-.84-.33,1.23,1.23,0,0,1-.13-.73V578.83h-3.85a1.19,1.19,0,0,1-.7-.15.8.8,0,0,1-.29-.68.82.82,0,0,1,.29-.7,1.2,1.2,0,0,1,.7-.15h9.62a1.2,1.2,0,0,1,.7.15.8.8,0,0,1,.29.68.82.82,0,0,1-.29.7,1.19,1.19,0,0,1-.7.15h-3.85Z" transform="translate(-3.12 -0.72)" fill="#fff"/><path d="M201,586.69h-5.26l-1.5,3.89c-.22.55-.4.92-1.14.92s-.86-.24-.86-.59a1.66,1.66,0,0,1,.15-.59l4.93-12.25c.26-.66.51-1.12,1.19-1.12s.88.44,1.14,1.1l4.73,12.26a1.82,1.82,0,0,1,.15.59c0,.37-.29.62-.9.62s-.92-.29-1.17-.92ZM196.43,585h4l-2-5.24Z" transform="translate(-3.12 -0.72)" fill="#fff"/><path d="M209.67,590.45a1.23,1.23,0,0,1-.13.73,1.17,1.17,0,0,1-1.63,0,1.24,1.24,0,0,1-.13-.73v-12c0-.59,0-1,.95-1.23a9.83,9.83,0,0,1,2.11-.2,7.53,7.53,0,0,1,3.39.66,3.59,3.59,0,0,1,2,3.39,4,4,0,0,1-2.79,3.92l4,5.48c.35.48.26,1.08-.75,1.08a1.46,1.46,0,0,1-1.39-.86l-2.57-3.7c-.68-1-1-1.61-1-1.61a8.46,8.46,0,0,1-1.14.07,5.21,5.21,0,0,1-.81,0Zm0-6.65a6.14,6.14,0,0,0,.84,0c2.35,0,3.72-.84,3.72-2.71s-1.56-2.53-3.28-2.53a9.38,9.38,0,0,0-1.28.09Z" transform="translate(-3.12 -0.72)" fill="#fff"/><path d="M225.25,590.45a1.23,1.23,0,0,1-.13.73,1,1,0,0,1-.81.33,1,1,0,0,1-.84-.33,1.23,1.23,0,0,1-.13-.73V578.83h-3.85a1.19,1.19,0,0,1-.7-.15.8.8,0,0,1-.29-.68.82.82,0,0,1,.29-.7,1.2,1.2,0,0,1,.7-.15h9.62a1.2,1.2,0,0,1,.71.15.8.8,0,0,1,.29.68.82.82,0,0,1-.29.7,1.19,1.19,0,0,1-.71.15h-3.85Z" transform="translate(-3.12 -0.72)" fill="#fff"/></svg>